<svg width="46" height="42" viewBox="0 0 46 42" fill="none" xmlns="http://www.w3.org/2000/svg">
<g filter="url(#filter0_d_10_4782)">
<path d="M21.4653 25.7434L17.6116 21.3767C17.5708 21.3305 17.5203 21.2936 17.4637 21.2684C17.407 21.2432 17.3455 21.2303 17.2834 21.2306H14.6923L8.73294 26.7047L8.7174 26.7217C7.91351 27.5193 7.46369 28.5975 7.46635 29.7204C7.46901 30.8433 7.92394 31.9195 8.7316 32.7134C9.53925 33.5073 10.6339 33.9543 11.7759 33.9566C12.9179 33.9589 14.0144 33.5163 14.8253 32.7257L14.8409 32.7087L21.4653 25.7434ZM29.9017 16.9352C30.4164 16.5752 31.1506 16.3748 32.0384 16.3204C34.8402 16.1523 37.9339 14.8071 39.7234 13.0475C41.1812 11.6141 42.0001 9.6701 42.0001 7.64304C42.0001 5.61598 41.1812 3.67193 39.7234 2.23859C38.2657 0.805238 36.2886 -1.20905e-05 34.227 -1.20905e-05C32.1654 -1.20905e-05 30.1883 0.805238 28.7305 2.23859C27.1863 3.75699 25.9547 6.22994 25.5367 8.65022C25.5735 8.92197 25.5919 9.19655 25.5919 9.47396V13.0628C25.5919 13.1236 25.6051 13.1838 25.6307 13.2392C25.6563 13.2946 25.6938 13.3439 25.7405 13.3838L29.9017 16.9352ZM30.3422 6.79382C30.6858 6.79382 31.0153 6.92803 31.2582 7.16691C31.5012 7.40581 31.6377 7.72981 31.6377 8.06765C31.6377 9.23958 32.605 10.1907 33.7969 10.1907C34.1405 10.1907 34.47 10.3249 34.7129 10.5638C34.9559 10.8027 35.0924 11.1267 35.0924 11.4645C35.0924 11.8024 34.9559 12.1264 34.7129 12.3653C34.47 12.6042 34.1405 12.7384 33.7969 12.7384C32.537 12.7384 31.3288 12.2463 30.438 11.3704C29.5471 10.4944 29.0467 9.3064 29.0467 8.06765C29.0467 7.72981 29.1831 7.40581 29.4261 7.16691C29.6691 6.92803 29.9986 6.79382 30.3422 6.79382ZM10.868 1.36898C11.3091 0.935033 11.8328 0.590793 12.4093 0.35593C12.9858 0.121068 13.6037 0.000182889 14.2277 0.000182889C14.8517 0.000182889 15.4695 0.121068 16.046 0.35593C16.6225 0.590793 17.1462 0.935033 17.5874 1.36898L22.4723 6.17389C23.3627 7.04972 23.8628 8.23734 23.8629 9.47566V13.0645C23.8629 13.6793 24.134 14.2653 24.6056 14.6678L36.9942 25.2389L37.027 25.2729C37.5146 25.7447 37.9024 26.3067 38.1679 26.9266C38.4335 27.5465 38.5716 28.2119 38.5743 28.8845C38.577 29.5571 38.4443 30.2236 38.1837 30.8455C37.9231 31.4674 37.5399 32.0325 37.0561 32.508C36.5724 32.9836 35.9976 33.3603 35.3651 33.6163C34.7325 33.8724 34.0546 34.0028 33.3706 33.9999C32.6865 33.9971 32.0098 33.8612 31.3794 33.5999C30.7491 33.3386 30.1776 32.9572 29.6979 32.4777L29.6668 32.4454L18.914 20.2642C18.7112 20.0348 18.4607 19.8509 18.1794 19.7249C17.898 19.5989 17.5925 19.5337 17.2834 19.5339H13.6421C12.3827 19.5338 11.1748 19.042 10.2841 18.1666L5.39224 13.3617C4.9509 12.928 4.6008 12.413 4.36194 11.8461C4.12308 11.2793 4.00014 10.6718 4.00014 10.0582C4.00014 9.44468 4.12308 8.83714 4.36194 8.27031C4.6008 7.70349 4.9509 7.1885 5.39224 6.75475L10.868 1.36898ZM14.8478 5.04442C14.6022 4.81941 14.2774 4.69691 13.9417 4.70273C13.6061 4.70856 13.2859 4.84224 13.0485 5.07563C12.8112 5.30902 12.6752 5.62389 12.6693 5.9539C12.6634 6.28391 12.7879 6.6033 13.0168 6.84477L17.3352 11.0909C17.5808 11.3159 17.9056 11.4384 18.2412 11.4326C18.5768 11.4267 18.8971 11.2931 19.1344 11.0597C19.3718 10.8263 19.5078 10.5114 19.5137 10.1814C19.5196 9.8514 19.395 9.53201 19.1662 9.29053L14.8478 5.04442ZM9.13023 8.86592C8.88763 9.10477 8.75136 9.42853 8.75136 9.7661C8.75136 10.1037 8.88763 10.4274 9.13023 10.6663L13.4486 14.9124C13.5672 15.0375 13.7103 15.1379 13.8692 15.2075C14.0281 15.2772 14.1996 15.3146 14.3736 15.3176C14.5475 15.3206 14.7203 15.2892 14.8816 15.2251C15.0429 15.161 15.1895 15.0657 15.3125 14.9447C15.4355 14.8238 15.5325 14.6797 15.5977 14.5211C15.6628 14.3624 15.6948 14.1926 15.6918 14.0215C15.6887 13.8505 15.6506 13.6818 15.5798 13.5255C15.509 13.3693 15.4069 13.2287 15.2796 13.112L10.9612 8.86592C10.7183 8.62737 10.389 8.49339 10.0457 8.49339C9.70242 8.49339 9.37314 8.62737 9.13023 8.86592Z" fill="white"/>
<path d="M9.06956 27.0766L9.0781 27.0681L9.08622 27.0593L9.08713 27.0583L14.8871 21.7306H17.257L20.7873 25.7308L14.4786 32.3641L14.4785 32.3641L14.472 32.3712L14.4664 32.3773C13.7509 33.0698 12.7847 33.4587 11.7769 33.4566C10.7644 33.4546 9.79562 33.0582 9.0821 32.3568C8.36887 31.6558 7.96869 30.7072 7.96635 29.7192C7.96401 28.7313 8.35968 27.781 9.06956 27.0766ZM32.0085 15.8213L32.0079 15.8213C31.2334 15.8687 30.5255 16.0232 29.9528 16.3215L26.0919 13.0264V9.47396C26.0919 9.20105 26.0754 8.93029 26.0423 8.66181C26.4571 6.35394 27.6366 4.01541 29.0811 2.59511C30.4445 1.25457 32.2953 0.499988 34.227 0.499988C36.1586 0.499988 38.0095 1.25457 39.3729 2.59511C40.736 3.93537 41.5001 5.75134 41.5001 7.64304C41.5001 9.53474 40.736 11.3507 39.3729 12.691C37.6763 14.3592 34.6996 15.6598 32.0085 15.8213ZM11.2186 1.72545L11.2186 1.72542C11.6129 1.33752 12.0816 1.02937 12.598 0.818975C13.1144 0.608579 13.6682 0.500183 14.2277 0.500183C14.7871 0.500183 15.3409 0.608578 15.8574 0.818975C16.3738 1.02937 16.8424 1.33752 17.2367 1.72542L17.2367 1.72544L22.1217 6.53033C22.9174 7.31308 23.3628 8.37267 23.3629 9.47568V13.0645C23.3629 13.8268 23.699 14.5514 24.281 15.0481L24.2811 15.0482L36.6513 25.6037L36.6675 25.6203L36.6733 25.6264L36.6793 25.6322C37.1195 26.0581 37.4691 26.565 37.7083 27.1235C37.9476 27.6819 38.0719 28.2811 38.0743 28.8865C38.0767 29.4919 37.9573 30.092 37.7225 30.6523C37.4878 31.2126 37.1423 31.7222 36.7056 32.1515C36.2689 32.5808 35.7496 32.9212 35.1774 33.1529C34.6053 33.3845 33.9919 33.5025 33.3726 33.4999C32.7534 33.4974 32.141 33.3743 31.5709 33.138C31.0021 32.9023 30.4869 32.5587 30.0546 32.1273L30.0344 32.1064L19.2888 19.9333L19.2886 19.933C19.0383 19.6499 18.7296 19.4235 18.3837 19.2685C18.0379 19.1137 17.6627 19.0337 17.2834 19.0339C17.2833 19.0339 17.2832 19.0339 17.2831 19.0339H13.6421C12.5126 19.0338 11.4309 18.5927 10.6346 17.81L10.6345 17.8099L5.74271 13.0051C5.74267 13.0051 5.74264 13.005 5.7426 13.005C5.34816 12.6173 5.03572 12.1575 4.8227 11.652C4.60967 11.1465 4.50014 10.6049 4.50014 10.0582C4.50014 9.51154 4.60967 8.97 4.8227 8.46448C5.03574 7.95894 5.34822 7.49907 5.74271 7.11136L5.74285 7.11122L11.2186 1.72545ZM15.1983 4.68789L15.1921 4.68171L15.1856 4.67576C14.8447 4.3635 14.3956 4.19478 13.9331 4.20281C13.4705 4.21083 13.0276 4.39504 12.698 4.71911C12.3681 5.04344 12.1777 5.48273 12.1694 5.94493C12.1611 6.40714 12.3357 6.85294 12.6539 7.1887L12.6599 7.19511L12.6662 7.2013L16.9846 11.4474L16.9909 11.4536L16.9974 11.4595C17.3382 11.7718 17.7873 11.9405 18.2499 11.9325C18.7124 11.9245 19.1554 11.7403 19.485 11.4162C19.8148 11.0919 20.0053 10.6526 20.0136 10.1904C20.0219 9.72816 19.8473 9.28236 19.5291 8.9466L19.523 8.9402L19.5167 8.93401L15.1983 4.68789ZM8.7799 8.50918L8.77946 8.50962C8.4423 8.84154 8.25136 9.29329 8.25136 9.7661C8.25136 10.2389 8.4423 10.6907 8.77945 11.0226L8.77968 11.0228L13.0923 15.2632C13.2558 15.4339 13.4518 15.5706 13.6685 15.6655C13.8882 15.7618 14.125 15.8134 14.3649 15.8175C14.6048 15.8217 14.8433 15.7783 15.0662 15.6898C15.2891 15.6013 15.4922 15.4693 15.6631 15.3012C15.834 15.1332 15.9692 14.9326 16.0602 14.7111C16.1512 14.4895 16.196 14.2519 16.1917 14.0125C16.1874 13.7732 16.1341 13.5373 16.0352 13.3192C15.9377 13.1039 15.7979 12.9105 15.6244 12.7498L11.3118 8.5094L11.3116 8.50918C10.9743 8.17796 10.5189 7.99339 10.0457 7.99339C9.57261 7.99339 9.11718 8.17796 8.7799 8.50918ZM31.6088 6.81039C31.2714 6.47869 30.8157 6.29382 30.3422 6.29382C29.8687 6.29382 29.4129 6.47869 29.0755 6.81039C28.7379 7.14237 28.5467 7.59445 28.5467 8.06765C28.5467 9.44176 29.1019 10.7579 30.0874 11.7269C31.0726 12.6956 32.4071 13.2384 33.7969 13.2384C34.2704 13.2384 34.7262 13.0535 35.0635 12.7218C35.4011 12.3898 35.5924 11.9377 35.5924 11.4645C35.5924 10.9913 35.4011 10.5393 35.0635 10.2073C34.7262 9.87558 34.2704 9.69071 33.7969 9.69071C32.8732 9.69071 32.1377 8.95551 32.1377 8.06765C32.1377 7.59446 31.9464 7.14238 31.6088 6.81039Z" stroke="black"/>
</g>
<defs>
<filter id="filter0_d_10_4782" x="0.000137329" y="-1.14441e-05" width="46" height="42" filterUnits="userSpaceOnUse" color-interpolation-filters="sRGB">
<feFlood flood-opacity="0" result="BackgroundImageFix"/>
<feColorMatrix in="SourceAlpha" type="matrix" values="0 0 0 0 0 0 0 0 0 0 0 0 0 0 0 0 0 0 127 0" result="hardAlpha"/>
<feOffset dy="4"/>
<feGaussianBlur stdDeviation="2"/>
<feComposite in2="hardAlpha" operator="out"/>
<feColorMatrix type="matrix" values="0 0 0 0 0 0 0 0 0 0 0 0 0 0 0 0 0 0 0.25 0"/>
<feBlend mode="normal" in2="BackgroundImageFix" result="effect1_dropShadow_10_4782"/>
<feBlend mode="normal" in="SourceGraphic" in2="effect1_dropShadow_10_4782" result="shape"/>
</filter>
</defs>
</svg>
