<svg width="1440" height="626" viewBox="0 0 1440 626" fill="none" xmlns="http://www.w3.org/2000/svg">
<g opacity="0.8">
<path d="M501.217 625.522C493.281 625.522 485.557 625.011 478.133 623.991C462.564 621.852 448.18 617.459 435.381 610.934C421.623 603.923 409.558 594.37 399.515 582.541C379.332 558.764 369.234 530.291 359.468 502.753C357.549 497.346 355.566 491.755 353.552 486.33C339.81 449.355 322.39 416.967 300.3 387.316C256.234 328.165 194.262 277.685 121.082 241.332C36.4498 199.293 -54.5437 178.351 -135.139 182.366C-182.508 184.727 -245.097 207.179 -273.069 245.524C-289.669 268.28 -291.008 293.534 -276.937 318.552L-277.217 318.657C-284.594 305.537 -287.809 292.384 -286.768 279.563C-285.813 267.802 -281.294 256.305 -273.333 245.393C-260.671 228.036 -239.791 212.652 -212.949 200.904C-188.145 190.049 -160.52 183.375 -135.157 182.112C-92.9791 180.012 -48.121 184.672 -1.82901 195.965C40.134 206.203 81.5413 221.392 121.242 241.113C194.465 277.486 256.473 327.994 300.564 387.18C322.666 416.852 340.095 449.257 353.846 486.252C355.864 491.677 357.847 497.271 359.763 502.678C369.52 530.195 379.611 558.649 399.767 582.39C419.259 605.353 445.644 619.264 478.185 623.735C523.249 629.927 577.971 616.975 624.564 589.086C691.709 548.896 738.308 490.398 783.375 433.828C791.274 423.913 799.441 413.66 807.528 403.759C828.521 378.049 856.954 344.735 890.745 315.055C925.284 284.719 960.382 262.43 998.047 246.913C1021.1 237.415 1045.53 231.016 1070.67 227.895C1093.88 225.01 1118.45 224.831 1143.7 227.358C1187 231.696 1233.65 243.948 1286.33 264.811C1390.04 305.897 1493.64 355.766 1594.25 413.035C1689.87 467.468 1783.66 529.062 1873 596.102L1872.79 596.288C1687.59 457.318 1490.23 345.87 1286.19 265.038C1170.91 219.371 1079.4 213.682 998.185 247.137C915.564 281.172 857.848 342.592 807.782 403.897C799.699 413.795 791.532 424.049 783.633 433.964C738.553 490.554 691.939 549.07 624.748 589.287C603.036 602.284 578.61 612.422 554.113 618.602C541.173 621.867 528.309 624.001 515.874 624.948C510.919 625.333 506.028 625.522 501.217 625.522Z" fill="#E39B53"/>
<path d="M508.977 611.423C488.738 611.423 469.992 608.263 453.238 602.028C434.556 595.075 418.435 584.301 405.319 570.007C404.158 568.741 403.007 567.432 401.896 566.113C381.927 542.44 371.381 514.336 361.185 487.156C359.122 481.664 356.991 475.982 354.83 470.469C341.957 437.643 326.455 408.711 307.436 382.025C305.093 378.739 302.668 375.447 300.221 372.24C255.507 313.598 193.032 263.757 119.551 228.104C34.3079 186.782 -56.9435 166.706 -137.394 171.577C-184.42 174.454 -246.72 197.274 -274.812 235.324C-291.633 258.108 -293.537 283.413 -280.323 308.503L-280.605 308.604C-287.531 295.453 -290.377 282.275 -289.06 269.439C-287.851 257.65 -283.147 246.128 -275.076 235.193C-262.285 217.866 -241.467 202.465 -214.876 190.656C-190.299 179.741 -162.794 172.876 -137.422 171.325C-95.296 168.775 -50.3887 172.989 -3.94943 183.849C38.1149 193.687 79.7187 208.504 119.704 227.888C193.229 263.561 255.737 313.432 300.479 372.106C302.926 375.316 305.354 378.611 307.697 381.899C326.729 408.603 342.239 437.55 355.119 470.393C357.283 475.906 359.414 481.588 361.477 487.083C371.67 514.246 382.207 542.329 402.147 565.97C403.256 567.284 404.407 568.593 405.564 569.856C432.668 599.402 469.909 611.423 509.072 611.423C509.287 611.423 509.499 611.423 509.714 611.423C509.468 611.42 509.222 611.423 508.977 611.423ZM517.331 611.246C553.74 609.713 591.309 598.242 623.54 581.177C693.064 544.215 743.031 487.126 791.355 431.918C793.344 429.643 795.334 427.372 797.323 425.101C801.692 420.117 806.872 414.216 812.158 408.268C835.875 381.592 864.578 350.553 897.635 322.615C932.807 292.888 967.945 270.828 1005.05 255.173C1027.86 245.564 1051.95 238.795 1076.68 235.054C1099.58 231.588 1123.79 230.609 1148.62 232.142C1191.51 234.793 1237.63 244.842 1289.62 262.866C1340.3 280.412 1381.96 296.928 1420.73 314.844C1475.65 340.249 1527.96 369.521 1571.89 394.803C1674.02 453.749 1774.23 520.682 1869.74 593.746L1869.53 593.93C1774.04 520.876 1673.84 453.948 1571.72 395.009C1527.79 369.73 1475.49 340.463 1420.58 315.066C1381.82 297.155 1340.17 280.644 1289.5 263.103C1176.26 223.837 1085.92 221.388 1005.2 255.4C921.416 290.738 861.754 352.914 812.407 408.419C807.117 414.367 801.941 420.266 797.572 425.252C795.583 427.521 793.593 429.794 791.604 432.069C743.264 487.295 693.279 544.403 623.706 581.393C606.454 590.526 588.098 597.781 569.143 602.954C551.498 607.765 534.106 610.547 517.331 611.246Z" fill="#E39B53"/>
<path d="M517.533 597.645C515.098 597.645 512.679 597.603 510.278 597.514C490.058 596.782 471.345 592.978 454.662 586.204C436.416 578.796 420.608 567.822 407.679 553.587C406.531 552.318 405.386 551.007 404.281 549.687C384.536 526.13 373.551 498.402 362.932 471.589C360.718 466.001 358.428 460.221 356.107 454.612C342.598 421.897 326.688 393.197 307.463 366.87C305.084 363.615 302.621 360.35 300.138 357.168C254.776 299.038 191.798 249.836 118.015 214.883C32.1644 174.278 -59.3449 155.066 -139.654 160.793C-184.872 164.068 -246.99 185.586 -276.525 225.088C-293.589 247.911 -296.073 273.283 -283.709 298.461L-283.995 298.555C-290.473 285.364 -292.944 272.155 -291.348 259.297C-289.88 247.47 -284.98 235.918 -276.786 224.958C-263.861 207.671 -243.11 192.265 -216.774 180.401C-192.427 169.432 -165.048 162.381 -139.682 160.544C-97.6053 157.546 -52.6488 161.311 -6.06525 171.738C36.1035 181.178 77.9007 195.62 118.169 214.667C191.994 249.643 255.006 298.872 300.396 357.035C302.879 360.219 305.345 363.484 307.724 366.744C326.959 393.086 342.877 421.804 356.392 454.537C358.713 460.148 361.004 465.928 363.217 471.516C373.834 498.313 384.81 526.022 404.529 549.551C405.635 550.871 406.774 552.18 407.922 553.443C460.455 611.287 553.555 605.077 622.514 573.265C694.939 539.56 748.762 483.542 800.814 429.368L801.348 428.812C806.389 423.561 811.602 418.134 816.791 412.774C871.541 356.235 931.719 298.129 1012.07 263.428C1034.62 253.706 1058.39 246.566 1082.7 242.209C1105.31 238.156 1129.15 236.376 1153.55 236.92C1196.1 237.866 1241.69 245.716 1292.92 260.915C1346.76 276.832 1387.27 291.463 1424.28 308.357C1477.02 332.476 1528.11 362.953 1573.18 389.844C1673.52 450.036 1772.21 517.843 1866.49 591.377L1866.27 591.558C1772.01 518.032 1673.33 450.232 1572.99 390.045C1527.93 363.16 1476.85 332.687 1424.13 308.576C1387.14 291.687 1346.63 277.062 1292.81 261.149C1181.77 228.202 1092.61 228.995 1012.21 263.647C931.913 298.326 871.759 356.406 817.031 412.925C811.842 418.285 806.629 423.714 801.588 428.963L801.053 429.519C775.114 456.515 748.293 484.43 719.329 509.365C686.779 537.385 655.159 558.357 622.661 573.479C588.662 589.162 551.627 597.645 517.533 597.645Z" fill="#E39B53"/>
<path d="M1863.02 589.185C1769.97 515.185 1672.83 446.514 1574.28 385.081C1570.1 382.498 1565.92 379.903 1561.72 377.3C1519.03 350.812 1474.9 323.424 1427.69 302.087C1381.9 281.445 1335.49 268.823 1296.14 259.199C1187.49 232.47 1099.5 236.505 1019.23 271.894C936.821 308.33 872.968 368.824 821.663 417.434C818.583 420.352 815.51 423.274 812.431 426.199C810.159 428.359 807.884 430.519 805.609 432.677C776.396 460.382 749.824 485.153 720.464 507.756C686.922 533.577 654.594 552.487 621.623 565.57C590.725 577.832 557.718 584.319 527.016 584.321C521.422 584.321 515.911 584.107 510.495 583.672C490.724 582.083 472.419 577.62 456.092 570.406C438.276 562.534 422.781 551.352 410.03 537.169C408.891 535.898 407.755 534.584 406.656 533.262C387.145 509.828 375.734 482.49 364.7 456.053C362.323 450.358 359.864 444.468 357.377 438.751C343.224 406.139 326.903 377.668 307.487 351.709C305.071 348.479 302.569 345.244 300.051 342.09C254.039 284.47 190.56 235.908 116.48 201.652C30.021 161.765 -61.7431 143.421 -141.911 149.996C-196.717 154.58 -252.76 181.229 -278.199 214.798C-295.53 237.668 -298.603 263.121 -287.093 288.405L-287.382 288.493C-293.408 275.254 -295.508 262.006 -293.623 249.114C-291.889 237.245 -286.786 225.655 -278.46 214.664C-265.399 197.428 -244.716 182.022 -218.644 170.115C-194.531 159.102 -167.292 151.867 -141.942 149.747C-99.9145 146.298 -54.912 149.619 -8.18414 159.613C34.0859 168.655 76.0827 182.724 116.633 201.431C190.759 235.707 254.272 284.297 300.312 341.951C302.833 345.108 305.335 348.345 307.751 351.575C327.179 377.549 343.506 406.036 357.669 438.663C360.156 444.382 362.615 450.27 364.991 455.967C376.019 482.389 387.425 509.71 406.911 533.116C408.01 534.435 409.143 535.747 410.279 537.016C465.122 598.021 558.335 590.401 621.491 565.341C696.842 535.44 754.503 480.758 805.379 432.51C807.654 430.351 809.926 428.191 812.2 426.033C815.277 423.108 818.353 420.186 821.432 417.268C850.719 389.522 879.64 362.558 911.434 337.712C947.997 309.138 983.212 287.537 1019.09 271.672C1041.41 261.832 1064.83 254.323 1088.72 249.356C1111.05 244.711 1134.52 242.134 1158.5 241.691C1200.77 240.91 1245.83 246.559 1296.23 258.957C1335.6 268.586 1382.03 281.213 1427.84 301.868C1475.07 323.212 1519.22 350.609 1561.91 377.101C1566.11 379.704 1570.29 382.299 1574.47 384.882C1673.03 446.321 1770.18 514.999 1863.24 589.006L1863.02 589.185Z" fill="#E39B53"/>
<path d="M1859.77 586.813C1766.19 510.925 1670.57 441.381 1575.56 380.116C1569.87 376.451 1564.06 372.673 1558.43 369.02C1518.15 342.86 1476.49 315.808 1431.25 295.597C1386.08 275.486 1339.28 264.923 1299.45 257.245C1193.45 236.61 1106.64 243.885 1026.25 280.14C949.566 314.847 889.492 367.036 831.395 417.507L825.015 423.047C819.977 427.425 814.767 431.949 809.631 436.387C751.476 486.567 693.259 533.599 620.585 557.655C602.95 563.492 584.842 567.538 566.759 569.685C547.34 571.988 528.477 572.021 510.692 569.781C491.374 567.347 473.485 562.234 457.52 554.584C440.146 546.259 424.961 534.873 412.391 520.745C411.259 519.467 410.132 518.15 409.042 516.831C389.77 493.535 377.947 466.6 366.514 440.55C363.963 434.738 361.322 428.726 358.657 422.889C343.847 390.377 327.121 362.135 307.521 336.549C305.071 333.352 302.532 330.142 299.974 327.013C253.314 269.905 189.335 221.982 114.951 188.423C27.881 149.258 -64.141 131.778 -144.171 139.207C-198.476 144.354 -254.264 171.189 -279.832 204.466C-297.452 227.394 -301.133 252.945 -290.48 278.358L-290.771 278.441C-296.347 265.144 -298.069 251.845 -295.892 238.916C-293.884 226.996 -288.57 215.361 -280.096 204.335C-266.895 187.157 -246.285 171.766 -220.489 159.824C-196.615 148.77 -169.524 141.361 -144.208 138.96C-102.229 135.063 -57.1809 137.935 -10.3057 147.496C32.0687 156.141 74.2589 169.835 115.095 188.204C189.522 221.78 253.538 269.733 300.226 326.875C302.784 330.006 305.326 333.218 307.776 336.415C327.388 362.014 344.123 390.271 358.94 422.801C361.605 428.638 364.245 434.652 366.796 440.465C378.224 466.499 390.041 493.422 409.291 516.69C410.377 518.004 411.504 519.318 412.634 520.597C466.156 580.754 555.086 579.065 620.466 557.423C693.081 533.388 751.273 486.374 809.403 436.216C814.54 431.777 819.75 427.254 824.788 422.876L831.168 417.335C859.687 392.562 889.172 366.943 921.197 343.111C957.468 316.12 991.78 295.451 1026.09 279.919C1048.19 269.955 1071.28 262.076 1094.74 256.502C1116.79 251.261 1139.9 247.883 1163.42 246.461C1205.52 243.916 1250.03 247.364 1299.52 256.998C1339.36 264.681 1386.19 275.246 1431.39 295.375C1476.66 315.594 1518.33 342.653 1558.62 368.821C1564.24 372.474 1570.06 376.25 1575.74 379.918C1670.77 441.187 1766.4 510.736 1859.98 586.632L1859.77 586.813Z" fill="#E39B53"/>
<path d="M1856.51 584.442C1763.74 507.711 1669.65 437.296 1576.84 375.155C1569.86 370.486 1562.71 365.63 1555.8 360.935C1517.69 335.057 1478.28 308.297 1434.81 289.113C1389.84 269.346 1342.83 260.926 1302.77 255.297C1199.71 240.593 1114.07 251.111 1033.26 288.393C962.741 321.065 904.84 367.369 848.844 412.148C842.952 416.86 836.858 421.731 830.92 426.451C823.948 431.995 818.621 436.206 813.65 440.103C787.029 460.962 755.333 484.98 722.07 504.957C686.822 526.126 653.286 540.777 619.545 549.748C601.803 554.466 583.772 557.441 565.95 558.589C546.813 559.823 528.285 558.917 510.883 555.893C492.029 552.618 474.557 546.856 458.945 538.768C442.016 529.997 427.147 518.407 414.75 504.325C413.633 503.049 412.512 501.73 411.425 500.406C392.408 477.266 380.189 450.746 368.369 425.1C365.627 419.151 362.794 413.001 359.935 407.027C344.459 374.607 327.324 346.596 307.549 321.39C305.062 318.221 302.486 315.041 299.892 311.937C252.584 255.34 188.101 208.057 113.416 175.195C25.7418 136.75 -66.5381 120.138 -146.427 128.415C-191.884 133.229 -251.255 155.401 -281.422 194.083C-299.358 217.081 -303.662 242.748 -293.865 268.307L-294.157 268.382C-299.281 255.018 -300.62 241.661 -298.139 228.681C-295.849 216.701 -290.313 205.016 -281.68 193.947C-268.337 176.839 -247.804 161.473 -222.294 149.506C-198.66 138.419 -171.731 130.842 -146.464 128.166C-104.534 123.821 -59.4368 126.245 -12.4203 135.373C30.0554 143.62 72.4421 156.942 113.561 174.974C188.289 207.853 252.808 255.164 300.144 311.794C302.738 314.898 305.317 318.082 307.804 321.254C327.588 346.473 344.732 374.498 360.218 406.934C363.079 412.911 365.913 419.06 368.655 425.009C380.466 450.643 392.682 477.148 411.677 500.262C412.764 501.584 413.881 502.901 414.999 504.174C459.525 554.758 535.957 571.705 619.45 549.504C695.062 529.401 756.742 484.343 813.439 439.917C818.409 436.02 823.733 431.808 830.705 426.265C836.643 421.545 842.737 416.674 848.629 411.961C876.196 389.917 904.699 367.123 935.103 345.778C969.483 321.639 1001.54 302.794 1033.11 288.169C1055 278.074 1077.76 269.825 1100.77 263.652C1122.56 257.804 1145.3 253.628 1168.36 251.234C1210.35 246.879 1254.34 248.125 1302.83 255.043C1342.91 260.677 1389.95 269.1 1434.95 288.883C1478.45 308.081 1517.87 334.848 1555.99 360.734C1562.91 365.428 1570.06 370.284 1577.03 374.954C1669.85 437.102 1763.95 507.522 1856.73 584.259L1856.51 584.442Z" fill="#E39B53"/>
<path d="M1853.25 582.07C1761.29 504.491 1668.72 433.202 1578.11 370.19C1570.4 364.831 1562.49 359.205 1554.83 353.765C1518.36 327.851 1480.65 301.057 1438.36 282.622C1393.37 263.092 1346.25 256.862 1306.09 253.343C1207.7 244.489 1120.75 258.652 1040.28 296.639C976.198 327.023 921.27 367.671 868.15 406.981C857.419 414.921 846.327 423.133 835.542 430.959C828.944 435.75 823.098 439.956 817.664 443.818C792.393 461.756 758.778 484.757 722.857 503.554C686.764 522.439 652.627 534.963 618.496 541.838C581.27 549.337 544.118 549.393 511.059 542.002C492.678 537.891 475.62 531.482 460.358 522.95C443.881 513.739 429.328 501.948 417.1 487.909C415.991 486.63 414.88 485.309 413.799 483.984C395.053 461.021 382.453 434.936 370.27 409.713C367.323 403.611 364.277 397.302 361.204 391.172C345.049 358.837 327.506 331.053 307.571 306.237C305.048 303.096 302.435 299.944 299.804 296.868C251.848 240.781 186.865 194.135 111.879 161.976C23.5997 124.253 -68.9381 108.507 -148.689 117.633C-202.736 123.951 -256.7 150.484 -282.968 183.653C-301.248 206.734 -306.188 232.534 -297.254 258.264L-297.549 258.332C-302.218 244.887 -303.17 231.459 -300.379 218.425C-297.8 206.377 -292.028 194.631 -283.226 183.514C-269.742 166.487 -249.289 151.156 -224.077 139.179C-200.691 128.07 -173.932 120.326 -148.732 117.381C-106.852 112.588 -61.7048 114.567 -14.544 123.259C28.0361 131.108 70.6193 144.057 112.02 161.749C187.049 193.928 252.069 240.6 300.056 296.722C302.687 299.798 305.3 302.952 307.826 306.096C327.77 330.927 345.322 358.724 361.487 391.074C364.56 397.204 367.605 403.515 370.553 409.617C382.729 434.828 395.323 460.9 414.051 483.841C415.132 485.165 416.24 486.482 417.348 487.76C461.11 538.017 536.277 558.14 618.422 541.594C693.31 526.507 758.342 485.593 817.461 443.629C822.892 439.767 828.741 435.563 835.336 430.773C846.118 422.946 857.214 414.737 867.941 406.798C921.073 367.479 976.011 326.822 1040.12 296.425C1061.81 286.187 1084.23 277.57 1106.78 270.808C1128.34 264.344 1150.72 259.367 1173.29 256.016C1215.27 249.786 1258.72 248.832 1306.12 253.096C1346.3 256.618 1393.46 262.851 1438.5 282.403C1480.82 300.85 1518.55 327.655 1555.03 353.578C1562.69 359.018 1570.6 364.642 1578.31 370.002C1668.93 433.018 1761.51 504.312 1853.48 581.897L1853.25 582.07Z" fill="#E39B53"/>
<path d="M1850 579.7C1758.85 501.264 1667.81 429.107 1579.39 365.229C1571.27 359.359 1562.91 353.144 1554.83 347.132C1519.69 321 1483.35 293.976 1441.92 276.135C1396.73 256.772 1349.58 252.762 1309.41 251.392C1214.74 247.929 1129 265.427 1047.29 304.889C989.993 332.695 938.915 367.888 889.516 401.92C872.532 413.623 856.487 424.676 840.169 435.468C833.532 439.861 827.487 443.808 821.684 447.531C784.243 471.534 753.094 488.889 723.651 502.145C686.714 518.777 651.978 529.174 617.457 533.927C604.065 535.769 590.722 536.688 577.621 536.688C554.399 536.688 531.928 533.808 511.241 528.104C473.804 517.78 442.924 498.732 419.459 471.487C418.354 470.195 417.251 468.873 416.183 467.554C397.722 444.79 384.769 419.169 372.243 394.388C369.068 388.11 365.789 381.62 362.483 375.309C345.637 343.049 327.682 315.497 307.603 291.076C305.043 287.962 302.393 284.838 299.725 281.789C251.122 226.214 185.635 180.207 110.348 148.745C21.4641 111.748 -71.3286 96.8653 -150.941 106.839C-205.212 113.779 -257.62 139.809 -284.45 173.153C-303.101 196.331 -308.695 222.284 -300.633 248.211L-300.931 248.273C-305.14 234.735 -305.699 221.227 -302.589 208.124C-299.709 195.996 -293.694 184.184 -284.705 173.015C-271.08 156.081 -250.715 140.801 -225.81 128.823C-202.676 117.696 -176.104 109.802 -150.987 106.59C-109.156 101.349 -63.9602 102.879 -16.6581 111.139C26.0264 118.592 68.8029 131.169 110.49 148.519C185.819 180.001 251.343 226.033 299.977 281.641C302.645 284.692 305.295 287.816 307.858 290.932C327.949 315.366 345.913 342.933 362.765 375.206C366.072 381.517 369.354 388.009 372.525 394.287C385.045 419.055 397.992 444.667 416.438 467.411C417.506 468.728 418.605 470.049 419.71 471.338C463.528 522.219 535.585 544.94 617.405 533.675C695.292 522.951 764.278 484.01 821.494 447.33C827.293 443.607 833.338 439.662 839.976 435.269C856.291 424.478 872.336 413.426 889.32 401.723C938.725 367.684 989.815 332.486 1047.14 304.67C1068.66 294.273 1090.75 285.286 1112.8 277.956C1134.16 270.857 1156.17 265.079 1178.23 260.787C1220.29 252.603 1263.21 249.447 1309.42 251.138C1349.62 252.508 1396.82 256.523 1442.06 275.909C1483.53 293.762 1519.88 320.798 1555.03 346.941C1563.12 352.952 1571.47 359.168 1579.59 365.036C1668.01 428.918 1759.07 501.083 1850.22 579.523L1850 579.7Z" fill="#E39B53"/>
<path d="M1846.75 577.328C1755.15 496.914 1668.12 425.912 1580.68 360.265C1572.33 354.001 1564.12 347.605 1555.42 340.833C1521.42 314.361 1486.27 286.99 1445.47 269.648C1399.72 250.292 1350.5 248.681 1312.73 249.441C1222.37 251.022 1137.83 271.858 1054.31 313.14C1004.19 338.029 957.923 367.917 913.175 396.824C889.658 412.016 867.445 426.362 844.794 439.979C838.07 444.024 831.822 447.71 825.7 451.246C787.75 473.137 755.575 488.861 724.437 500.732C686.643 515.142 651.309 523.411 616.413 526.014C598.484 527.351 580.677 527.099 563.487 525.266C545.287 523.326 527.769 519.602 511.42 514.203C475.183 502.233 445.037 482.338 421.817 455.068C420.721 453.774 419.628 452.45 418.566 451.131C400.415 428.6 387.137 403.467 374.294 379.162C370.868 372.678 367.325 365.971 363.76 359.451C346.208 327.262 327.849 299.939 307.632 275.921C305.031 272.835 302.345 269.738 299.646 266.717C250.395 211.653 184.408 166.285 108.82 135.521C39.0538 107.244 -32.8924 92.4895 -98.8672 92.4895C-117.518 92.4895 -135.678 93.6676 -153.194 96.0516C-206.811 103.493 -258.89 129.615 -285.877 162.603C-304.924 185.888 -311.197 212.018 -304.016 238.166L-304.316 238.221C-308.065 224.577 -308.222 210.976 -304.783 197.798C-301.596 185.581 -295.321 173.692 -286.135 162.462C-272.368 145.633 -252.099 130.416 -227.513 118.451C-204.306 107.156 -178.624 99.3241 -153.249 95.8049C-111.467 90.1157 -66.2221 91.2006 -18.7758 99.0246C24.01 106.078 66.9861 118.28 108.955 135.292C184.586 166.074 250.613 211.467 299.895 266.564C302.597 269.585 305.286 272.684 307.887 275.772C328.113 299.803 346.482 327.139 364.043 359.343C367.607 365.863 371.153 372.569 374.58 379.056C387.416 403.351 400.688 428.475 418.824 450.987C419.886 452.304 420.979 453.628 422.072 454.919C465.493 505.913 536.316 531.731 616.389 525.76C697.414 519.716 770.717 482.65 825.528 451.035C831.65 447.498 837.895 443.813 844.619 439.77C867.267 426.159 889.477 411.81 912.991 396.62C957.745 367.711 1004.02 337.815 1054.15 312.918C1097.16 291.664 1139.36 276.175 1183.17 265.562C1225.42 255.327 1267.8 249.97 1312.73 249.184C1338.36 248.668 1359.27 249.564 1378.54 252.001C1403.41 255.148 1425.36 260.845 1445.62 269.419C1486.45 286.776 1521.62 314.162 1555.64 340.647C1564.33 347.419 1572.55 353.813 1580.89 360.076C1668.33 425.726 1755.37 496.732 1846.98 577.151L1846.75 577.328Z" fill="#E39B53"/>
<path d="M1843.49 574.957C1752.73 493.662 1667.18 421.814 1581.95 355.301C1573.52 348.721 1565.21 341.941 1556.41 334.764C1523.43 307.874 1489.33 280.065 1449.03 263.159C1402.9 243.893 1353.73 244.664 1316.05 247.486C1230.77 253.651 1147.45 277.825 1061.32 321.385C1018.89 342.951 978.485 367.631 939.411 391.5C908.522 410.368 879.349 428.191 849.421 444.48C842.658 448.166 836.026 451.69 829.717 454.953C791.693 474.598 757.513 489.105 725.224 499.306C686.561 511.52 650.628 517.667 615.37 518.095C597.431 518.312 579.695 516.982 562.665 514.14C544.812 511.16 527.631 506.5 511.599 500.287C476.605 486.726 447.19 465.986 424.173 438.64C423.092 437.349 422.005 436.022 420.946 434.695C403.136 412.44 389.569 387.838 376.447 364.046C372.735 357.315 368.895 350.352 365.035 343.583C346.765 311.454 327.997 284.362 307.66 260.754C305.023 257.696 302.3 254.627 299.564 251.634C249.665 197.081 183.174 152.353 107.286 122.285C17.195 86.7405 -76.1165 73.5899 -155.453 85.2552C-208.376 93.1723 -260.108 119.363 -287.246 151.975C-306.723 175.384 -313.692 201.71 -307.404 228.112L-307.705 228.16C-310.984 214.398 -310.732 200.691 -306.953 187.422C-303.444 175.104 -296.901 163.129 -287.5 151.831C-273.599 135.124 -253.431 119.982 -229.176 108.042C-206.236 96.7494 -180.763 88.7846 -155.508 85.006C-113.772 78.8712 -68.481 79.5056 -20.8935 86.8965C21.9967 93.5574 65.1663 105.386 107.418 122.056C183.352 152.139 249.88 196.894 299.807 251.481C302.545 254.474 305.271 257.545 307.909 260.606C328.258 284.226 347.032 311.33 365.312 343.472C369.174 350.241 373.012 357.204 376.727 363.938C389.842 387.719 403.403 412.311 421.201 434.552C422.26 435.876 423.347 437.203 424.425 438.492C468.303 490.621 536.114 518.805 615.364 517.838C679.669 517.058 747.728 497.005 829.551 454.734C835.857 451.471 842.486 447.949 849.249 444.264C879.168 427.977 908.341 410.159 939.224 391.291C978.304 367.419 1018.71 342.734 1061.16 321.163C1104.59 299.199 1146.11 282.575 1188.1 270.333C1230.64 257.933 1272.48 250.373 1316.02 247.226C1353.74 244.399 1402.97 243.632 1449.17 262.927C1489.51 279.854 1523.63 307.675 1556.62 334.578C1565.42 341.755 1573.74 348.532 1582.16 355.11C1667.4 421.625 1752.95 493.478 1843.72 574.778L1843.49 574.957Z" fill="#E39B53"/>
<path d="M1840.23 572.585C1750.32 490.406 1666.26 417.708 1583.23 350.339C1574.81 343.499 1566.48 336.393 1557.68 328.868C1525.63 301.497 1492.49 273.195 1452.59 256.671C1406.02 237.476 1356.93 240.635 1319.37 245.532C1239.13 255.79 1159.37 282.514 1068.34 329.634C1034.2 347.386 1000.84 366.86 968.572 385.692C929.385 408.565 892.371 430.171 854.046 448.988C847.141 452.382 840.307 455.639 833.734 458.665C795.028 476.473 759.792 489.301 726.011 497.88C707.089 502.686 688.41 506.167 670.493 508.229C651.381 510.427 632.484 511.084 614.327 510.183C577.488 508.352 542.986 500.342 511.781 486.376C478.08 471.292 449.398 449.708 426.534 422.219C425.46 420.918 424.382 419.588 423.329 418.269C405.9 396.341 392.09 372.323 378.738 349.098C374.695 342.067 370.516 334.797 366.313 327.723C347.306 295.647 328.13 268.784 307.688 245.597C305.014 242.564 302.251 239.523 299.482 236.56C248.935 182.515 181.944 138.426 105.755 109.061C15.0619 74.2439 -78.5044 61.9593 -157.709 74.4679C-242.516 88.0692 -325.155 146.837 -310.787 218.065L-311.091 218.105C-314.686 200.287 -312.58 182.734 -304.834 165.928C-297.76 150.58 -286.152 136.135 -270.331 123C-255.622 110.786 -237.975 100.241 -217.884 91.6564C-198.775 83.4926 -177.987 77.4611 -157.77 74.2187C-116.083 67.6359 -70.7431 67.8247 -23.0112 74.7826C19.9834 81.0483 63.3494 92.5047 105.883 108.835C182.116 138.22 249.147 182.334 299.724 236.409C302.497 239.374 305.26 242.415 307.937 245.451C328.388 268.648 347.573 295.526 366.59 327.615C370.793 334.688 374.971 341.958 379.015 348.992C392.364 372.209 406.167 396.217 423.587 418.133C424.637 419.452 425.712 420.782 426.786 422.081C470.729 474.91 537.34 506.107 614.346 509.933C679.538 513.168 751.25 496.33 833.583 458.449C840.153 455.423 846.984 452.168 853.889 448.775C892.205 429.962 929.213 408.359 968.394 385.488C1000.66 366.654 1034.03 347.177 1068.17 329.422C1159.24 282.282 1239.04 255.548 1319.32 245.282C1344.56 241.992 1365.46 240.94 1385.09 241.975C1410.19 243.296 1432.31 248.029 1452.72 256.444C1492.67 272.986 1525.83 301.306 1557.89 328.692C1566.7 336.214 1575.02 343.32 1583.45 350.157C1666.48 417.532 1750.54 490.233 1840.46 572.416L1840.23 572.585Z" fill="#E39B53"/>
<path d="M1836.98 570.214C1747.92 487.139 1665.34 413.595 1584.52 345.375C1576.15 338.316 1567.89 330.923 1559.14 323.091C1527.96 295.196 1495.72 266.35 1456.15 250.181C1408.57 230.825 1357.19 237.141 1322.69 243.576C1229.03 260.825 1145.1 300.926 1075.36 337.883C1050.29 351.22 1025.29 365.347 1001.1 379.009C952.593 406.415 906.774 432.301 858.677 453.497C851.603 456.616 844.566 459.604 837.756 462.381C798.296 478.439 762.003 489.586 726.807 496.453C686.907 504.239 648.717 506.198 613.291 502.271C576.897 498.235 542.806 488.206 511.969 472.46C479.625 455.946 451.677 433.519 428.897 405.801C427.834 404.499 426.763 403.168 425.716 401.844C408.719 380.318 394.738 356.959 381.214 334.369C376.784 326.965 372.2 319.312 367.595 311.864C347.562 279.385 328.536 253.514 307.723 230.44C305.012 227.434 302.215 224.424 299.406 221.486C248.205 167.955 180.711 124.505 104.221 95.8352C12.9261 61.7478 -80.8981 50.3266 -159.967 63.6786C-245.078 78.2415 -326.029 136.211 -314.172 208.018L-314.476 208.051C-317.417 190.236 -314.872 172.7 -306.914 155.932C-299.62 140.568 -287.944 126.109 -272.206 112.958C-257.531 100.694 -239.976 90.0705 -220.026 81.3781C-201.031 73.101 -180.282 66.8958 -160.028 63.4294C-118.388 56.3985 -73.0016 56.1417 -25.1285 62.6641C17.9704 68.5346 61.533 79.6185 104.349 95.6061C180.886 124.291 248.417 167.766 299.643 221.33C302.452 224.27 305.252 227.283 307.966 230.289C328.791 253.373 347.823 279.259 367.865 311.75C372.47 319.199 377.054 326.854 381.484 334.258C395.005 356.841 408.983 380.192 425.968 401.708C427.015 403.032 428.083 404.361 429.145 405.663C473.429 459.544 538.839 493.765 613.327 502.021C680.134 509.427 753.499 496.385 837.618 462.154C844.425 459.38 851.462 456.395 858.529 453.276C906.614 432.085 952.427 406.204 1000.93 378.8C1025.11 365.138 1050.12 351.008 1075.19 337.669C1122.09 312.82 1161.11 294.461 1197.97 279.893C1241.36 262.745 1282.13 250.785 1322.62 243.329C1347.29 238.727 1368.8 236.643 1388.38 236.96C1413.57 237.368 1435.79 241.617 1456.28 249.955C1495.91 266.144 1528.17 295.008 1559.36 322.92C1568.11 330.749 1576.37 338.142 1584.73 345.196C1665.56 413.418 1748.15 486.968 1837.21 570.045L1836.98 570.214Z" fill="#E39B53"/>
<path d="M1833.73 567.84C1745.53 483.866 1664.43 409.473 1585.8 340.408C1577.55 333.165 1569.39 325.515 1560.75 317.414C1530.39 288.958 1499.01 259.533 1459.7 243.691C1411.6 224.381 1360.37 233.259 1326.01 241.619C1241.15 262.088 1165.47 301.061 1082.38 346.129C1067.39 354.288 1052.24 362.709 1037.58 370.855C981.195 402.181 922.899 434.571 863.304 458.003C856.064 460.852 848.819 463.574 841.773 466.091C802.045 480.269 763.631 490.001 727.596 495.018C686.775 500.702 647.968 500.478 612.244 494.356C576.36 488.206 542.683 476.155 512.147 458.539C481.246 440.711 454.026 417.443 431.246 389.383C430.193 388.079 429.13 386.744 428.09 385.42C411.606 364.398 397.535 341.8 383.928 319.947C379.025 312.072 373.956 303.931 368.863 296.009C348.047 263.563 328.625 237.914 307.742 215.288C305 212.318 302.164 209.332 299.315 206.417C247.475 153.389 179.483 110.579 102.686 82.6088C10.7928 49.2515 -83.2862 38.6962 -162.226 52.889C-244.636 67.8672 -327.082 123.803 -317.561 197.969L-317.865 197.994C-320.152 180.179 -317.168 162.663 -308.999 145.933C-301.486 130.552 -289.739 116.079 -274.088 102.914C-245.21 78.6264 -204.462 60.3026 -162.294 52.6398C-120.702 45.1633 -75.2669 44.4584 -27.2496 50.5454C15.9538 56.0231 59.7097 66.7319 102.809 82.3772C179.649 110.363 247.68 153.2 299.554 206.253C302.406 209.171 305.243 212.156 307.988 215.129C328.88 237.768 348.311 263.427 369.133 295.886C374.227 303.81 379.298 311.951 384.201 319.826C397.805 341.674 411.873 364.267 428.347 385.279C429.385 386.603 430.447 387.935 431.5 389.239C477.077 445.381 539.598 481.643 612.302 494.107C679.625 505.646 756.784 496.143 841.644 465.859C848.687 463.342 855.926 460.623 863.162 457.776C922.736 434.352 981.026 401.967 1037.39 370.646C1052.05 362.5 1067.21 354.079 1082.2 345.921C1118.57 326.192 1160.89 303.564 1202.9 284.671C1246.83 264.91 1287.07 250.75 1325.91 241.38C1350.36 235.432 1371.87 232.345 1391.65 231.948C1416.61 231.444 1439.54 235.321 1459.83 243.467C1477.44 250.564 1495.16 261.154 1514.01 275.845C1530.65 288.817 1546.06 303.272 1560.97 317.248C1569.61 325.346 1577.77 332.996 1586.01 340.236C1664.65 409.305 1745.75 483.7 1833.95 567.676L1833.73 567.84Z" fill="#E39B53"/>
<path d="M1830.47 565.468C1743.14 480.589 1663.52 405.348 1587.07 335.446C1578.98 328.045 1570.96 320.163 1562.47 311.821C1532.91 282.773 1502.34 252.736 1463.26 237.207C1426.74 222.739 1382.93 223.545 1329.32 239.669C1254.37 262.086 1187.38 299.581 1116.44 339.282C1107.61 344.226 1098.48 349.337 1089.39 354.384C1085.83 356.365 1082.27 358.351 1078.71 360.335C1011.13 398.017 941.242 436.983 867.93 462.514C860.518 465.097 853.07 467.551 845.791 469.807C805.191 482.376 765.693 490.376 728.397 493.583C686.633 497.173 647.203 494.771 611.209 486.444C575.883 478.27 542.621 464.198 512.346 444.618C483.002 425.64 456.512 401.534 433.612 372.965C432.568 371.658 431.515 370.321 430.48 368.995C414.623 348.632 400.599 326.945 387.031 305.973C381.539 297.479 375.856 288.696 370.149 280.147C348.529 247.724 328.714 222.296 307.781 200.129C305 197.183 302.129 194.228 299.243 191.341C246.746 138.826 178.251 96.6531 101.153 69.3827C8.6644 36.7579 -85.6756 27.0662 -164.484 42.0997C-245.379 57.6595 -327.709 114.053 -320.945 187.922L-321.252 187.942C-322.883 170.124 -319.462 152.629 -311.081 135.941C-303.347 120.543 -291.533 106.053 -275.964 92.8771C-247.209 68.5394 -206.603 49.9438 -164.554 41.8556C-123.009 33.931 -77.5274 32.778 -29.3688 38.432C13.9389 43.512 57.8945 53.8482 101.276 69.1511C178.417 96.4392 246.955 138.635 299.473 191.177C302.359 194.064 305.236 197.025 308.018 199.97C328.959 222.15 348.786 247.586 370.413 280.022C376.123 288.57 381.803 297.356 387.299 305.85C400.859 326.817 414.884 348.498 430.735 368.854C431.77 370.18 432.82 371.514 433.864 372.821C480.429 430.911 541.78 470.114 611.289 486.195C679.904 502.069 758.764 496.473 845.68 469.565C852.953 467.31 860.399 464.858 867.807 462.277C941.095 436.757 1010.97 397.798 1078.54 360.121C1082.1 358.135 1085.66 356.151 1089.22 354.17C1098.31 349.123 1107.44 344.013 1116.27 339.071C1187.22 299.362 1254.23 261.856 1329.22 239.429C1353.43 232.144 1374.93 228.059 1394.94 226.933C1419.99 225.526 1443.01 228.907 1463.39 236.978C1480.89 243.933 1498.39 254.571 1516.89 269.502C1533.21 282.675 1548.2 297.409 1562.7 311.657C1571.19 319.997 1579.21 327.876 1587.3 335.275C1663.75 405.179 1743.37 480.422 1830.71 565.305L1830.47 565.468Z" fill="#E39B53"/>
<path d="M1827.22 563.097C1747.5 484.002 1667.14 405.738 1588.35 330.482C1580.33 322.865 1572.38 314.681 1563.97 306.019C1536.6 277.839 1505.57 245.902 1466.81 230.72C1429.87 216.278 1385.98 218.566 1332.64 237.713C1269.22 260.404 1213.09 293.769 1153.67 329.093C1135.06 340.154 1115.82 351.595 1096.41 362.631C1062.53 381.937 1025.88 402.365 987.461 420.971C946.318 440.898 908.73 455.959 872.548 467.02C864.946 469.344 857.295 471.532 849.801 473.518C808.341 484.501 767.769 490.751 729.211 492.096C686.526 493.581 646.473 489.02 610.159 478.527C543.101 458.912 484.491 417.872 435.961 356.544C434.927 355.235 433.883 353.896 432.854 352.569C417.801 333.105 404.022 312.571 390.698 292.712C384.425 283.365 377.941 273.698 371.417 264.291C348.974 231.875 328.76 206.672 307.803 184.975C304.982 182.054 302.074 179.127 299.155 176.27C246.019 124.261 177.02 82.73 99.6216 56.1569C6.53424 24.2622 -88.0606 15.4389 -166.74 31.3107C-248.127 47.822 -328.393 103.468 -324.331 177.876L-324.638 177.886C-325.611 160.063 -321.749 142.587 -313.162 125.943C-305.204 110.524 -293.323 96.0191 -277.843 82.8332C-263.26 70.4101 -245.975 59.5478 -226.47 50.5458C-207.533 41.8081 -187.463 35.2529 -166.816 31.064C-125.317 22.6939 -79.7865 21.0928 -31.4867 26.3113C11.9254 31.0011 56.0744 40.9622 99.7383 55.9228C177.183 82.511 246.222 124.067 299.388 176.101C302.308 178.961 305.221 181.891 308.043 184.811C329.009 206.52 349.232 231.734 371.684 264.16C378.208 273.57 384.693 283.237 390.965 292.586C404.289 312.443 418.065 332.974 433.112 352.431C434.138 353.76 435.184 355.097 436.216 356.406C484.709 417.686 543.266 458.693 610.261 478.288C679.269 498.225 762.068 496.493 849.706 473.276C857.194 471.29 864.845 469.105 872.44 466.784C953.336 442.056 1027.35 401.67 1096.23 362.422C1115.64 351.386 1134.88 339.947 1153.49 328.886C1212.92 293.555 1269.06 260.183 1332.51 237.481C1385.94 218.304 1429.91 216.016 1466.94 230.491C1484.3 237.29 1501.54 247.948 1519.64 263.07C1535.6 276.405 1550.14 291.38 1564.21 305.86C1572.62 314.522 1580.57 322.704 1588.59 330.316C1667.38 405.575 1747.74 483.839 1827.45 562.936L1827.22 563.097Z" fill="#E39B53"/>
<path d="M1823.96 560.726C1745.47 481.193 1666.63 402.058 1589.63 325.518C1581.86 317.818 1574.15 309.49 1565.99 300.674C1539.29 271.838 1509.03 239.153 1470.37 224.228C1432.98 209.811 1389.01 213.582 1335.95 235.752C1280.36 258.947 1229.29 291.698 1179.9 323.373C1155.13 339.255 1129.52 355.678 1103.42 370.876C1062.23 394.886 1027.58 413.202 994.353 428.52C953.388 447.408 915.057 461.475 877.174 471.524C869.397 473.588 861.538 475.507 853.816 477.226C813.585 486.18 774.078 490.711 736.284 490.714C734.184 490.714 732.096 490.699 730.009 490.671C686.314 490.087 645.641 483.335 609.118 470.608C591.489 464.43 574.226 456.589 557.809 447.3C542.379 438.57 527.215 428.286 512.739 416.737C486.695 395.958 462.349 370.896 438.315 340.121C437.284 338.797 436.255 337.47 435.233 336.139C421.288 317.981 408.096 299 395.339 280.644C387.974 270.048 380.36 259.09 372.691 248.424C349.078 215.563 329.076 191.316 307.827 169.81C304.969 166.918 302.025 164.018 299.068 161.188C245.288 109.696 175.789 68.8043 98.0891 42.9285C4.4061 11.7663 -90.4466 3.80899 -168.997 20.5191C-248.858 37.5565 -329.02 93.6253 -327.715 167.824L-328.022 167.827C-328.63 133.266 -311.925 100.402 -279.716 72.7893C-265.157 60.3083 -247.964 49.3679 -228.61 40.2652C-209.778 31.4092 -189.748 24.6828 -169.074 20.2724C-127.623 11.4542 -82.0436 9.40756 -33.6025 14.1905C9.91397 18.4876 54.2594 28.0762 98.2027 42.6919C175.952 68.5853 245.491 109.502 299.305 161.025C302.261 163.857 305.212 166.759 308.07 169.652C329.328 191.17 349.339 215.425 372.958 248.299C380.627 258.967 388.244 269.925 395.606 280.521C408.363 298.875 421.552 317.853 435.494 336.005C436.516 337.337 437.542 338.664 438.573 339.985C489.643 405.381 545.467 448.032 609.238 470.376C697.563 501.158 790.948 490.96 853.736 476.984C861.452 475.265 869.305 473.349 877.079 471.285C964.207 448.171 1043.71 405.373 1103.24 370.672C1129.34 355.48 1154.94 339.056 1179.71 323.177C1229.11 291.496 1280.2 258.735 1335.82 235.531C1359.56 225.61 1381.05 219.518 1401.51 216.91C1426.74 213.693 1449.95 216.079 1470.5 224.004C1487.81 230.687 1504.88 241.431 1522.69 256.847C1538.37 270.431 1552.54 285.729 1566.24 300.526C1574.4 309.339 1582.1 317.664 1589.87 325.359C1666.87 401.899 1745.71 481.035 1824.2 560.568L1823.96 560.726Z" fill="#E39B53"/>
<path d="M1820.71 558.354L1590.91 320.556C1583.41 312.79 1575.96 304.339 1568.07 295.395C1542.03 265.877 1512.51 232.421 1473.93 217.743C1436.61 203.55 1391.31 208.952 1339.27 233.801C1289.25 257.688 1243.62 289.454 1199.5 320.176C1170.74 340.201 1141 360.907 1110.44 379.13C1018.6 433.902 938.329 466.252 857.838 480.941C824.447 487.033 791.507 490.099 759.562 490.099C749.879 490.099 740.294 489.817 730.81 489.253C686.084 486.595 644.79 477.659 608.08 462.695C574.057 448.825 542.932 429.245 512.936 402.833C488.983 381.743 466.021 356.599 440.677 323.705C427.3 306.346 414.347 288.309 401.821 270.866C373.471 231.394 344.157 190.578 307.864 154.655C252.196 99.5583 179.126 56.3506 96.5542 29.702C2.27869 -0.725183 -92.8319 -7.81906 -171.253 9.72935C-247.178 26.7189 -329.585 80.2931 -331.101 157.777L-331.408 157.772C-330.73 123.138 -313.503 90.2794 -281.592 62.7472C-252.738 37.8531 -213.581 18.9378 -171.333 9.48517C-129.929 0.22134 -84.2999 -2.27335 -35.7207 2.07411C7.90018 5.97599 52.4421 15.1945 96.6678 29.4679C137.526 42.6537 176.329 60.0108 212.005 81.0583C247.978 102.282 280.31 126.987 308.098 154.489C344.406 190.424 373.729 231.251 402.085 270.733C414.611 288.173 427.564 306.207 440.938 323.564C477.915 371.56 530.347 430.72 608.219 462.464C697.524 498.867 793.217 492.468 857.771 480.689C938.221 466.011 1018.45 433.673 1110.26 378.921C1140.8 360.705 1170.54 340 1199.3 319.98C1243.43 289.253 1289.07 257.479 1339.12 233.579C1391.25 208.688 1436.65 203.28 1474.06 217.511C1491.33 224.084 1508.25 234.921 1525.76 250.647C1541.18 264.49 1554.98 280.125 1568.31 295.244C1576.2 304.188 1583.66 312.634 1591.16 320.397L1820.95 558.196L1820.71 558.354Z" fill="#E39B53"/>
<path d="M1818.85 540.073C1760.34 473.862 1710.13 420.134 1660.86 370.993C1636.94 347.121 1612.51 323.624 1588.25 301.154C1580.91 294.357 1573.64 287.128 1565.94 279.472C1546.6 260.232 1526.6 240.338 1503.58 225.574C1491.23 217.631 1479.33 211.945 1467.21 208.189C1430.02 196.546 1386.39 204.244 1337.53 231.071C1312.24 244.934 1289.21 260.711 1270.03 274.314C1249.71 288.716 1229.67 304.598 1210.29 319.956C1182.43 342.033 1153.63 364.861 1122.66 384.466C1103.82 396.431 1084.72 407.122 1065.89 416.245C1028.22 434.495 987.789 449.534 945.715 460.943C919.72 467.913 893.599 473.182 868.083 476.601C846.091 479.536 824.06 481.23 802.596 481.635C770.473 482.245 739.176 479.921 709.574 474.723C678.098 469.195 648.311 460.371 621.042 448.494C596.727 437.904 573.759 424.57 550.828 407.726C508.097 376.365 474.015 340.103 449.098 312.014C436.857 298.151 424.905 284.014 413.346 270.342C380.062 230.968 348.624 193.779 309.282 160.654C277.196 133.814 240.588 110.652 200.464 91.8068C169.63 77.3246 136.095 65.4805 100.791 56.6018C92.3816 54.4897 83.8127 52.5212 75.3299 50.7565C38.8072 43.1717 -2.30844 38.2327 -46.8719 36.0753C-91.8006 33.85 -130.672 35.7758 -165.7 41.9685C-185.502 45.4424 -204.688 50.8924 -222.731 58.1651C-286.431 83.842 -327.334 126.946 -332.148 173.472L-332.532 173.444C-331.249 161.041 -327.482 148.825 -321.338 137.129C-315.502 126.02 -307.486 115.306 -297.514 105.285C-278.672 86.3543 -252.871 69.9613 -222.9 57.8806C-204.829 50.5954 -185.613 45.1378 -165.779 41.6588C-130.715 35.4611 -91.8129 33.5328 -46.8473 35.7607C-2.25934 37.918 38.8778 42.8621 75.425 50.4519C83.9171 52.2191 92.489 54.1876 100.904 56.3022C136.236 65.1859 169.799 77.0401 200.657 91.535C240.809 110.392 277.448 133.575 309.55 160.432C348.915 193.578 380.36 230.777 413.656 270.161C425.212 283.832 437.164 297.967 449.402 311.828C474.307 339.904 508.373 376.148 551.079 407.489C573.986 424.315 596.929 437.637 621.217 448.215C674.586 471.458 735.605 482.597 802.584 481.321C824.029 480.915 846.045 479.221 868.019 476.288C893.516 472.87 919.619 467.606 945.592 460.641C987.641 449.24 1028.05 434.211 1065.7 415.97C1084.51 406.855 1103.6 396.169 1122.43 384.214C1153.38 364.619 1182.17 341.797 1210.02 319.727C1229.4 304.366 1249.45 288.479 1269.77 274.073C1288.97 260.461 1312.01 244.68 1337.31 230.807C1359.07 218.862 1380.13 210.61 1399.93 206.278C1424.24 200.956 1446.93 201.5 1467.35 207.894C1479.5 211.663 1491.43 217.364 1503.82 225.324C1526.87 240.111 1546.88 260.018 1566.24 279.271C1573.94 286.924 1581.21 294.154 1588.54 300.945C1612.8 323.418 1637.24 346.917 1661.16 370.794C1710.44 419.94 1760.65 473.673 1819.17 539.889L1818.85 540.073Z" fill="#E39B53"/>
<path d="M1817 521.788C1762.75 454.456 1711.83 398.113 1661.34 349.541C1636.71 325.815 1611.23 303.008 1585.59 281.754C1578.78 276.115 1572.07 270.255 1564.96 264.052C1543.66 245.476 1521.65 226.269 1496.98 212.98C1484.53 206.241 1472.6 201.549 1460.5 198.634C1414.17 187.467 1367.11 208.622 1335.79 228.336C1313.59 242.262 1293.32 258.008 1272.79 274.262C1254.82 288.49 1237.92 303.796 1220.02 319.997C1193.45 344.048 1165.98 368.917 1134.89 389.798C1116.44 402.257 1097.19 413.028 1077.67 421.814C1041.3 438.182 1001.48 450.892 955.921 460.674C930.426 466.147 904.318 470.046 878.32 472.259C856.383 474.104 834.487 474.764 813.235 474.212C781.619 473.402 750.714 469.757 721.376 463.38C690.564 456.682 661.164 446.894 633.996 434.29C610.193 423.249 587.21 409.549 563.732 392.411C521.094 361.33 484.568 326.872 457.514 300.324C447.499 290.497 437.644 280.608 428.111 271.043C390.148 232.95 354.292 196.967 310.702 166.653C278.124 143.997 241.549 124.84 201.999 109.716C172.074 98.2721 140.357 89.698 105.037 83.5028C96.8861 82.0755 88.5936 80.7891 80.3932 79.679C44.3741 74.828 5.93253 72.9929 -40.5774 71.0948C-74.1036 69.6574 -117.992 68.7109 -160.154 74.2037C-180.123 76.7563 -199.425 81.1894 -217.529 87.3745C-281.272 109.157 -324.512 147.209 -333.201 189.168L-333.655 189.105C-331.353 177.979 -326.686 167.066 -319.794 156.667C-313.223 146.759 -304.59 137.258 -294.136 128.422C-274.269 111.637 -247.841 97.3205 -217.707 87.0246C-199.569 80.8269 -180.23 76.3863 -160.228 73.8287C-118.025 68.3283 -74.1036 69.2773 -40.5559 70.7147C5.96936 72.6128 44.4232 74.4479 80.4669 79.3014C88.6735 80.414 96.9721 81.7004 105.133 83.1277C140.486 89.3305 172.234 97.9121 202.193 109.369C241.783 124.508 278.388 143.68 310.999 166.359C354.62 196.695 390.492 232.688 428.467 270.796C437.997 280.359 447.852 290.247 457.867 300.073C484.915 326.61 521.425 361.055 564.039 392.122C587.489 409.242 610.448 422.927 634.223 433.955C687.644 458.738 747.881 472.153 813.251 473.83C834.484 474.379 856.359 473.722 878.274 471.876C904.247 469.666 930.334 465.772 955.804 460.302C1001.32 450.529 1041.11 437.829 1077.45 421.477C1096.95 412.701 1116.17 401.944 1134.6 389.499C1165.66 368.635 1193.12 343.776 1219.68 319.738C1237.58 303.529 1254.49 288.221 1272.48 273.985C1293.02 257.721 1313.29 241.97 1335.51 228.029C1355.82 215.248 1375.85 206.055 1395.04 200.698C1418.32 194.203 1440.39 193.385 1460.63 198.264C1472.78 201.191 1484.75 205.899 1497.24 212.658C1521.95 225.972 1543.98 245.197 1565.3 263.788C1572.4 269.988 1579.12 275.846 1585.92 281.482C1611.57 302.743 1637.06 325.558 1661.69 349.292C1712.2 397.876 1763.13 454.23 1817.39 521.576L1817 521.788Z" fill="#E39B53"/>
<path d="M1815.15 503.502C1764.37 434.137 1714.22 376.759 1661.82 328.091C1636.48 304.511 1609.94 282.396 1582.92 262.356C1577.15 258.071 1571.21 253.525 1565.46 249.13C1541.73 230.97 1517.18 212.193 1490.39 200.389C1477.81 194.81 1465.84 191.11 1453.79 189.078C1407.56 181.277 1363.16 204.633 1334.04 225.598C1314.31 239.75 1296.28 255.791 1278.83 271.305L1275.56 274.21C1259.73 288.284 1244.87 303.721 1229.14 320.066C1204.09 346.093 1178.19 373.003 1147.11 395.131C1129.03 408.1 1109.63 418.952 1089.43 427.385C1054.22 442.089 1015.03 452.582 966.117 460.405C940.822 464.451 914.725 466.978 888.549 467.915C866.668 468.667 844.906 468.29 823.864 466.787C760.158 462.258 700.633 446.545 646.942 420.085C623.732 408.646 600.733 394.587 576.636 377.096C535.855 347.56 499.584 317.201 465.932 288.637C461.419 284.808 456.955 281.004 452.524 277.231C406.561 238.089 363.149 201.116 312.129 172.66C278.821 154.082 242.283 138.933 203.534 127.63C175.086 119.333 144.255 113.699 109.286 110.406C101.405 109.669 93.3888 109.062 85.4586 108.604C65.5087 107.471 44.3491 107.287 21.9461 107.094C3.95187 106.937 -14.6533 106.776 -34.287 106.119C-72.2066 104.742 -115.183 103.184 -154.616 106.447C-174.962 108.131 -194.381 111.544 -212.335 116.594C-276.053 134.517 -321.633 167.522 -334.26 204.882L-334.779 204.764C-331.451 194.914 -325.888 185.305 -318.246 176.205C-310.939 167.502 -301.692 159.21 -290.762 151.56C-269.858 136.929 -242.797 124.695 -212.513 116.176C-194.519 111.114 -175.06 107.693 -154.674 106.006C-115.201 102.741 -72.2036 104.302 -34.2686 105.679C-14.6472 106.333 3.95801 106.497 21.9461 106.653C44.3583 106.847 65.524 107.031 85.4923 108.166C93.4287 108.627 101.454 109.233 109.341 109.971C144.354 113.266 175.221 118.907 203.709 127.217C242.504 138.533 279.082 153.7 312.427 172.298C363.493 200.779 406.926 237.769 452.908 276.929C457.338 280.702 461.805 284.503 466.315 288.335C499.961 316.894 536.22 347.246 576.989 376.772C601.062 394.242 624.036 408.289 647.219 419.713C700.839 446.14 760.287 461.83 823.91 466.354C844.928 467.854 866.668 468.232 888.524 467.479C914.673 466.543 940.745 464.018 966.012 459.978C1014.88 452.161 1054.02 441.681 1089.19 426.998C1109.34 418.582 1128.71 407.75 1146.76 394.803C1177.79 372.704 1203.68 345.808 1228.71 319.797C1244.45 303.444 1259.31 288 1275.17 273.915L1278.43 271.01C1295.89 255.489 1313.93 239.438 1333.69 225.27C1362.89 204.238 1407.45 180.814 1453.9 188.65C1466 190.692 1478.01 194.405 1490.64 200.006C1517.49 211.835 1542.06 230.632 1565.82 248.812C1571.57 253.208 1577.51 257.754 1583.28 262.036C1610.3 282.087 1636.86 304.214 1662.21 327.807C1714.64 376.495 1764.81 433.893 1815.6 503.281L1815.15 503.502Z" fill="#E39B53"/>
<path d="M1813.29 485.214C1766.68 414.801 1715.88 354.719 1662.3 306.643C1636.25 283.212 1608.65 261.787 1580.27 242.962C1576.17 240.243 1571.98 237.421 1567.91 234.692C1541.09 216.666 1513.35 198.022 1483.81 187.802C1471.12 183.369 1459.12 180.663 1447.1 179.525C1401 175.165 1359.23 200.683 1332.31 222.858C1315.59 236.558 1300.5 251.793 1285.91 266.527C1283.39 269.077 1280.86 271.622 1278.34 274.157C1264.46 288.083 1251.48 303.64 1237.74 320.108C1214.38 348.106 1190.23 377.056 1159.34 400.467C1141.21 414.214 1122.19 424.843 1101.2 432.964C1057.3 449.948 1013.43 456.234 976.313 460.146C951.205 462.789 925.121 463.947 898.779 463.579C876.965 463.24 855.336 461.822 834.496 459.37C772.703 452.118 713.958 434.124 659.896 405.887C637.401 394.141 614.39 379.717 589.543 361.791C564.444 343.726 541.056 326.344 518.435 309.533C503.062 298.107 488.541 287.315 474.36 276.961C420.754 237.821 371.653 203.409 313.569 178.674C279.545 164.187 243.044 153.04 205.078 145.546C177.868 140.174 148.781 137.558 113.545 137.309C105.943 137.264 98.2 137.337 90.5338 137.528C78.8886 137.838 66.8413 138.484 54.0909 139.172C29.6217 140.488 1.88278 141.981 -27.996 141.145C-39.3741 140.826 -50.9824 140.375 -62.21 139.937C-91.0879 138.812 -120.948 137.649 -149.08 138.688C-169.739 139.454 -189.278 141.85 -207.146 145.812C-270.757 159.922 -318.673 187.882 -335.326 220.605L-335.894 220.411C-331.534 211.842 -325.074 203.54 -316.696 195.734C-308.649 188.237 -298.788 181.156 -287.391 174.689C-265.43 162.228 -237.74 152.076 -207.312 145.327C-189.401 141.354 -169.819 138.95 -149.114 138.185C-120.951 137.143 -91.0787 138.308 -62.1854 139.434C-50.9609 139.872 -39.3526 140.322 -27.9776 140.642C1.87357 141.478 29.591 139.987 54.0479 138.671C66.8045 137.984 78.8549 137.337 90.5123 137.027C98.1877 136.836 105.937 136.763 113.548 136.808C148.833 137.055 177.963 139.678 205.22 145.057C243.231 152.561 279.782 163.721 313.848 178.228C340.086 189.4 366.674 203.555 395.131 221.499C420.607 237.562 445.389 255.138 474.765 276.586C488.946 286.942 503.468 297.734 518.843 309.16C541.461 325.969 564.849 343.351 589.942 361.413C614.764 379.321 637.751 393.731 660.218 405.464C714.207 433.663 772.868 451.632 834.576 458.875C855.391 461.324 876.993 462.739 898.782 463.079C925.093 463.446 951.15 462.291 976.227 459.647C1013.3 455.743 1057.11 449.465 1100.93 432.51C1121.86 424.412 1140.83 413.812 1158.92 400.1C1189.75 376.729 1213.89 347.802 1237.23 319.826C1250.98 303.348 1263.96 287.783 1277.86 273.842C1280.38 271.307 1282.9 268.762 1285.43 266.215C1300.03 251.47 1315.13 236.225 1331.87 222.508C1349.38 208.082 1367.35 196.983 1385.27 189.521C1406.5 180.683 1427.33 177.153 1447.16 179.031C1459.24 180.174 1471.3 182.893 1484.04 187.344C1513.66 197.592 1541.43 216.258 1568.29 234.307C1572.35 237.036 1576.55 239.858 1580.64 242.574C1609.05 261.414 1636.67 282.859 1662.73 306.308C1691.18 331.837 1719.04 360.922 1745.54 392.757C1768.96 420.893 1791.93 451.922 1813.82 484.977L1813.29 485.214Z" fill="#E39B53"/>
<path d="M1811.44 466.92C1768.3 394.488 1718.28 333.347 1662.78 285.193C1636.02 261.91 1607.37 241.177 1577.62 223.565C1576.21 222.727 1574.79 221.889 1573.37 221.048C1542.44 202.712 1510.46 183.751 1477.24 175.215C1464.37 171.907 1452.32 170.193 1440.42 169.971C1394.5 169.12 1355.35 196.771 1330.59 220.114C1316.01 233.771 1303.08 248.739 1290.57 263.214C1287.48 266.793 1284.28 270.494 1281.12 274.099C1269.1 287.828 1257.92 303.438 1246.09 319.967C1224.56 350.032 1202.31 381.119 1171.58 405.799C1153.81 420.077 1134.64 430.786 1112.98 438.539C1070.3 453.812 1026.97 457.822 986.509 459.881C961.558 461.15 935.483 460.934 909.009 459.239C887.266 457.804 865.775 455.35 845.128 451.947C785.438 442.129 727.473 421.854 672.852 391.684C650.977 379.603 628.608 365.239 602.459 346.48C552.762 310.925 515.859 285.882 482.806 265.283C417.064 224.313 366.888 200.21 315.036 184.688C280.322 174.296 243.858 167.154 206.651 163.459C180.837 160.896 153.441 161.125 117.828 164.209C110.53 164.848 103.063 165.601 95.6334 166.449C88.615 167.263 81.4861 168.194 73.9366 169.178C46.0625 172.816 14.4675 176.939 -21.6929 176.169C-40.7525 175.764 -60.2204 174.653 -79.0467 173.581C-100.443 172.363 -122.566 171.101 -143.542 170.93C-164.572 170.759 -184.23 172.139 -201.955 175.034C-265.353 185.382 -315.612 208.303 -336.394 236.344L-336.983 236.049C-331.586 228.764 -324.23 221.768 -315.121 215.256C-306.328 208.967 -295.859 203.099 -284.002 197.811C-260.969 187.535 -232.644 179.464 -202.09 174.477C-184.316 171.577 -164.615 170.193 -143.535 170.364C-122.542 170.535 -100.406 171.796 -79.0006 173.017C-60.1805 174.09 -40.7218 175.2 -21.6776 175.605C14.4183 176.373 45.9796 172.254 73.8229 168.622C81.3755 167.635 88.5106 166.706 95.5321 165.891C102.971 165.042 110.444 164.29 117.748 163.648C153.417 160.561 180.858 160.33 206.727 162.9C243.987 166.6 280.503 173.752 315.267 184.159C367.189 199.701 417.417 223.83 483.217 264.835C516.283 285.442 553.198 310.492 602.907 346.057C629.038 364.801 651.382 379.15 673.233 391.218C727.78 421.346 785.659 441.593 845.26 451.395C865.879 454.794 887.346 457.243 909.058 458.678C935.501 460.37 961.542 460.586 986.463 459.32C1026.87 457.263 1070.12 453.263 1112.7 438.026C1134.28 430.302 1153.38 419.629 1171.09 405.401C1201.75 380.774 1223.99 349.72 1245.49 319.688C1257.33 303.149 1268.51 287.526 1280.56 273.776C1283.71 270.174 1286.91 266.474 1290 262.894C1302.52 248.407 1315.46 233.428 1330.06 219.749C1346.22 204.514 1363.16 192.464 1380.41 183.93C1400.62 173.933 1420.82 169.052 1440.43 169.412C1452.4 169.634 1464.51 171.358 1477.44 174.681C1510.77 183.248 1542.8 202.233 1573.78 220.598C1575.19 221.438 1576.61 222.279 1578.03 223.115C1607.81 240.746 1636.49 261.504 1663.28 284.812C1718.83 333.01 1768.88 394.199 1812.06 466.681L1811.44 466.92Z" fill="#E39B53"/>
<path d="M1001.79 459.62C1000.06 459.62 998.366 459.617 996.696 459.61C971.874 459.524 945.808 457.938 919.23 454.892C897.567 452.362 876.211 448.871 855.754 444.518C826.526 438.311 797.194 429.389 768.565 418.003C740.918 407.007 713.074 393.373 685.805 377.476C659.086 361.902 634.128 344.547 615.37 331.167C571.479 299.947 529.718 273.852 491.249 253.605C428.943 220.814 373.419 200.824 316.508 190.697C282.174 184.587 245.338 181.365 209.872 181.365C209.322 181.365 208.776 181.365 208.226 181.368C177.758 181.453 148.831 186.095 122.114 191.1C115.16 192.411 107.967 193.844 100.733 195.362C96.7698 196.202 92.8001 197.068 88.6001 197.985C58.9761 204.457 25.3977 211.79 -15.3955 211.188C-40.2393 210.821 -65.6142 208.711 -90.154 206.669C-105.999 205.35 -122.382 203.989 -138.009 203.165C-159.491 202.035 -179.259 202.398 -196.772 204.248C-259.833 210.904 -312.434 228.787 -337.483 252.087L-338.061 251.672C-325.212 239.722 -305.885 229.376 -280.618 220.918C-256.486 212.842 -227.525 206.861 -196.87 203.626C-179.312 201.773 -159.491 201.406 -137.96 202.541C-122.317 203.364 -105.925 204.729 -90.0742 206.048C-65.5497 208.089 -40.1902 210.199 -15.3802 210.564C25.3087 211.165 58.8287 203.843 88.4036 197.383C92.6067 196.464 96.5764 195.598 100.543 194.757C107.783 193.239 114.982 191.805 121.942 190.493C148.705 185.481 177.681 180.831 208.223 180.743C244.254 180.64 281.75 183.872 316.67 190.088C346.043 195.316 374.518 203.012 403.719 213.615C431.841 223.828 460.609 236.737 491.66 253.082C530.16 273.344 571.951 299.459 615.87 330.699C634.613 344.071 659.552 361.413 686.244 376.97C741.578 409.228 798.674 431.75 855.945 443.917C876.373 448.264 897.702 451.751 919.334 454.278C945.879 457.319 971.908 458.905 996.696 458.988C1035.48 459.119 1080.52 458.047 1124.45 443.534C1146.69 436.188 1165.92 425.447 1183.26 410.698C1213.7 384.794 1233.89 351.548 1253.41 319.394C1263.45 302.855 1272.94 287.232 1283.25 273.709C1286.55 269.377 1289.89 264.913 1293.11 260.596C1304 246.011 1315.27 230.932 1328.24 216.993C1343.07 200.958 1358.98 187.95 1375.53 178.334C1394.72 167.185 1414.29 160.947 1433.68 159.794C1445.65 159.082 1457.8 159.809 1470.82 162.019C1505.64 167.925 1540.16 185.083 1575.39 203.654C1606.11 219.845 1636.68 240.475 1663.81 263.315C1693.94 288.612 1722.25 318.289 1747.95 351.52C1770.84 381.127 1791.82 413.716 1810.28 448.385L1809.58 448.637C1769.92 374.184 1720.7 311.98 1663.26 263.755C1636.17 240.948 1605.65 220.349 1574.97 204.185C1539.8 185.647 1505.36 168.522 1470.67 162.636C1457.71 160.438 1445.63 159.716 1433.74 160.423C1398.1 162.545 1360.85 182.77 1328.85 217.376C1315.9 231.289 1304.65 246.355 1293.77 260.926C1290.54 265.246 1287.2 269.711 1283.9 274.044C1273.61 287.542 1264.13 303.152 1254.1 319.676C1244.52 335.452 1234.62 351.767 1223.25 367.45C1210.36 385.23 1197.47 399.518 1183.81 411.136C1166.4 425.95 1147.08 436.74 1124.74 444.121C1105.04 450.63 1083.86 454.933 1060.01 457.279C1039.8 459.255 1019.51 459.62 1001.79 459.62Z" fill="#E39B53"/>
<path d="M1051.02 460.88C1035.36 460.88 1020.33 460.115 1006.87 459.339C982.137 457.915 956.084 454.957 929.441 450.546C907.87 446.924 886.649 442.398 866.368 437.089C810.831 422.581 756.001 398.432 698.746 363.268C673.776 347.934 650.237 331.436 628.273 315.853C584.91 285.179 541.652 260.308 499.692 241.926C437.981 214.893 380.244 200.521 317.987 196.7C282.515 194.522 245.108 195.411 209.807 199.268C180.26 202.495 152.404 210.283 126.4 217.981C119.894 219.917 112.974 222.032 105.836 224.265C104.052 224.826 102.253 225.398 100.429 225.974C70.4798 235.469 36.5913 246.213 -6.90063 246.213C-7.6344 246.213 -8.36508 246.211 -9.10498 246.203C-38.5294 245.959 -68.571 242.515 -97.627 239.183C-109.146 237.861 -121.059 236.497 -132.489 235.391C-154.815 233.237 -174.151 232.6 -191.605 233.451C-255.087 236.547 -308.67 249.073 -338.61 267.825L-339.123 267.274C-324.322 258.005 -302.92 249.957 -277.238 244.001C-251.976 238.143 -222.383 234.256 -191.657 232.758C-174.154 231.905 -154.769 232.542 -132.394 234.702C-120.951 235.807 -109.036 237.174 -97.5134 238.493C-68.485 241.821 -38.4711 245.262 -9.10193 245.506C35.2957 245.879 69.7368 234.956 100.119 225.322C101.94 224.746 103.742 224.174 105.526 223.61C112.67 221.375 119.593 219.26 126.105 217.324C152.152 209.611 180.06 201.813 209.687 198.575C245.043 194.714 282.511 193.822 318.042 196.002C348.894 197.896 378.31 202.366 407.968 209.667C438.513 217.186 468.643 227.535 500.082 241.31C542.094 259.717 585.408 284.618 628.817 315.322C650.771 330.899 674.295 347.388 699.243 362.706C756.422 397.823 811.169 421.937 866.616 436.422C886.867 441.721 908.06 446.242 929.601 449.859C956.207 454.264 982.223 457.22 1006.92 458.64C1048.49 461.031 1092.7 462.26 1136.2 449.026C1159.09 442.06 1178.46 431.251 1195.41 415.978C1225.62 388.773 1244.42 351.665 1261 318.924C1269.35 302.451 1277.23 286.891 1285.93 273.627C1289.07 268.842 1292.23 263.895 1295.28 259.112C1304.84 244.147 1314.72 228.673 1326.41 214.221C1339.94 197.385 1354.82 183.421 1370.65 172.717C1388.82 160.425 1407.76 152.833 1426.92 150.157C1438.89 148.483 1451.09 148.216 1464.19 149.333C1500.8 152.462 1538 167.924 1572.74 184.168C1604.82 199.167 1636.49 219.094 1664.33 241.796C1695.3 266.974 1723.83 296.948 1749.14 330.879C1771.76 361.223 1791.74 394.593 1808.51 430.068L1807.72 430.317C1772.08 354.912 1722.29 289.892 1663.74 242.284C1635.95 219.625 1604.34 199.736 1572.33 184.768C1537.67 168.561 1500.57 153.137 1464.11 150.021C1451.08 148.908 1438.97 149.175 1427.07 150.836C1391.68 155.778 1356.19 178.421 1327.12 214.598C1315.45 229.02 1305.58 244.479 1296.03 259.43C1292.98 264.215 1289.82 269.162 1286.68 273.952C1278 287.186 1270.12 302.73 1261.79 319.186C1245.17 351.977 1226.34 389.146 1196.04 416.441C1178.99 431.797 1159.51 442.667 1136.5 449.673C1116.52 455.75 1094.97 459.269 1070.62 460.424C1064.03 460.752 1057.48 460.88 1051.02 460.88Z" fill="#E39B53"/>
<path d="M1081.92 463.608C1081.7 463.608 1081.48 463.608 1081.25 463.608C1059.13 463.562 1037.41 461.342 1017.05 459.071C992.351 456.317 966.313 451.985 939.655 446.2C918.182 441.49 897.096 435.924 876.987 429.661C823.67 413.079 771.149 387.47 711.695 349.063C690.284 335.236 669.213 320.345 648.834 305.949C646.285 304.146 643.734 302.346 641.183 300.547C597.596 269.88 552.836 246.23 508.15 230.255C446.958 208.381 385.245 199.369 319.482 202.705C283.423 204.535 246.05 209.537 211.403 217.17C184.066 223.194 159.707 232.858 130.701 244.865C124.821 247.31 118.543 249.948 110.947 253.17L110.523 253.351C95.8694 259.609 79.2599 266.701 60.6301 272.093C39.2342 278.286 18.4768 281.266 -2.80869 281.231C-36.0002 281.163 -69.8734 276.098 -102.629 271.197C-110.654 269.996 -118.956 268.755 -126.969 267.632C-149.949 264.418 -169.402 262.794 -186.438 262.671C-249.168 262.217 -305.051 269.84 -339.756 283.58L-340.155 282.9C-323.156 276.169 -300.225 270.706 -273.843 267.101C-247.412 263.489 -217.183 261.696 -186.429 261.918C-169.344 262.041 -149.842 263.667 -126.813 266.89C-118.793 268.012 -110.492 269.253 -102.463 270.454C-69.7475 275.348 -35.9173 280.408 -2.8056 280.476C-2.65823 280.476 -2.50781 280.476 -2.36044 280.476C45.003 280.476 81.0866 265.07 110.1 252.682L110.526 252.5C118.125 249.276 124.404 246.638 130.286 244.193C159.342 232.165 183.744 222.484 211.166 216.442C245.872 208.794 283.306 203.785 319.427 201.952C351.608 200.321 381.963 201.565 412.232 205.758C444.849 210.277 476.346 218.063 508.518 229.565C553.29 245.57 598.127 269.258 641.785 299.975C644.336 301.775 646.887 303.577 649.435 305.38C669.806 319.771 690.87 334.657 712.263 348.474C771.64 386.834 824.085 412.407 877.312 428.961C897.394 435.217 918.449 440.773 939.891 445.478C966.513 451.255 992.514 455.58 1017.17 458.329C1061.34 463.258 1104.59 466.676 1147.97 454.553C1171.51 447.972 1191.01 437.095 1207.58 421.296C1237.52 392.757 1253.87 353.212 1268.3 318.319C1275.05 301.984 1281.43 286.553 1288.63 273.586C1291.4 268.596 1294.18 263.436 1296.86 258.444C1305.26 242.836 1313.95 226.7 1324.6 211.485C1336.86 193.841 1350.71 178.918 1365.78 167.132C1382.95 153.7 1401.24 144.758 1420.16 140.559C1431.89 137.956 1443.86 136.687 1456.73 136.687C1457.01 136.687 1457.29 136.688 1457.57 136.69C1497.56 136.861 1538.72 151.759 1570.11 164.718C1603.54 178.526 1636.31 197.748 1664.87 220.309C1696.68 245.371 1725.44 275.64 1750.34 310.276C1772.69 341.358 1791.67 375.511 1806.74 411.791L1805.87 412.035C1783.44 358.053 1740.66 281.067 1664.23 220.855C1635.74 198.345 1603.05 179.168 1569.69 165.393C1538.4 152.469 1497.37 137.614 1457.57 137.445C1444.46 137.382 1432.31 138.646 1420.41 141.289C1385.35 149.07 1351.61 174.133 1325.4 211.86C1314.77 227.04 1306.09 243.159 1297.7 258.749C1295.02 263.743 1292.24 268.906 1289.47 273.898C1282.29 286.832 1275.91 302.243 1269.17 318.561C1254.72 353.517 1238.33 393.137 1208.28 421.787C1191.6 437.692 1171.97 448.642 1148.27 455.265C1128.18 460.876 1106.47 463.608 1081.92 463.608Z" fill="#E39B53"/>
<path d="M1106.49 467.15C1101.73 467.15 1096.86 467.024 1091.87 466.773C1070.05 465.673 1048.84 462.372 1027.23 458.798C1002.17 454.654 976.866 449.111 949.867 441.851C928.505 436.056 907.557 429.456 887.604 422.228C836.986 403.922 786.727 376.974 724.646 334.854C709.227 324.394 693.815 313.424 678.909 302.813C670.795 297.038 662.407 291.064 654.096 285.232C609.99 254.359 563.735 231.935 516.614 218.578C454.354 200.928 390.366 197.696 320.987 208.697C284.332 214.51 246.992 223.625 213.009 235.056C185.709 244.239 161.927 257.136 136.749 270.79L135.008 271.734C131.075 273.874 127.1 276.043 123.075 278.239C120.757 279.505 118.423 280.779 116.068 282.062C101.387 290.11 85.5295 298.506 67.3449 304.968C46.2314 312.469 25.3481 316.16 3.49466 316.251C-32.8868 316.397 -69.9958 309.464 -105.88 302.753C-111.001 301.793 -116.3 300.804 -121.443 299.865C-145.553 295.46 -164.56 292.925 -181.268 291.883C-242.923 288.039 -301.109 290.747 -340.91 299.316L-341.165 298.526C-301.259 289.934 -242.954 287.215 -181.191 291.067C-164.437 292.112 -145.381 294.654 -121.225 299.067C-116.079 300.009 -110.78 300.998 -105.656 301.957C-70.2108 308.585 -33.5714 315.435 2.32803 315.435C2.71487 315.435 3.10172 315.435 3.49164 315.432C49.9248 315.241 82.9781 299.216 115.519 281.383C117.874 280.099 120.207 278.825 122.525 277.559C126.55 275.361 130.523 273.194 134.459 271.052L136.199 270.108C161.421 256.431 185.242 243.512 212.631 234.298C246.676 222.844 284.08 213.714 320.799 207.891C390.354 196.863 454.514 200.105 516.943 217.802C564.18 231.194 610.543 253.669 654.747 284.61C663.058 290.445 671.449 296.416 679.563 302.194C694.463 312.802 709.872 323.77 725.281 334.222C787.289 376.294 837.477 403.205 888.006 421.481C907.931 428.695 928.848 435.288 950.18 441.073C977.139 448.323 1002.41 453.859 1027.43 457.995C1065.4 464.275 1112.67 472.094 1159.74 460.051C1183.94 453.861 1203.57 442.916 1219.75 426.588C1249.4 396.682 1263.14 354.62 1275.27 317.512C1280.54 301.391 1285.52 286.163 1291.32 273.526C1293.59 268.602 1295.86 263.51 1298.05 258.583C1305.4 242.062 1313.01 224.979 1322.78 208.732C1333.8 190.267 1346.62 174.386 1360.9 161.527C1377.07 146.957 1394.74 136.668 1413.4 130.946C1425.38 127.273 1437.66 125.01 1450.94 124.026C1468.72 122.707 1487.65 124.117 1508.8 128.326C1526.7 131.89 1545.89 137.423 1567.47 145.245C1602.26 157.859 1636.13 176.379 1665.4 198.801C1698.06 223.746 1727.04 254.314 1751.54 289.652C1773.61 321.474 1791.59 356.41 1804.97 393.493L1804.01 393.724C1775.75 315.435 1726.28 246.422 1664.72 199.4C1635.53 177.039 1601.76 158.572 1567.06 145.995C1520.57 129.144 1483.71 122.42 1451.03 124.842C1437.84 125.818 1425.65 128.066 1413.75 131.712C1369.34 145.323 1340.25 181.306 1323.67 209.092C1313.93 225.299 1306.33 242.361 1298.98 258.863C1296.79 263.792 1294.52 268.887 1292.26 273.813C1286.47 286.412 1281.5 301.622 1276.23 317.723C1264.08 354.912 1250.3 397.062 1220.52 427.104C1204.21 443.56 1184.42 454.594 1160.03 460.834C1143.5 465.063 1125.87 467.15 1106.49 467.15Z" fill="#E39B53"/>
<path d="M1127.78 471.214C1095.31 471.214 1064.1 464.375 1037.39 458.524C1012.27 453.021 986.979 446.144 960.072 437.502C938.829 430.63 918.017 422.992 898.214 414.798C838.853 390.264 785.932 355.049 737.589 320.647C727.719 313.623 717.747 306.384 708.107 299.383C694.721 289.661 680.877 279.609 667.006 269.922C622.24 238.745 574.49 217.541 525.085 206.901C461.173 193.138 394.904 195.683 322.491 214.684C285.207 224.467 247.904 237.695 214.615 252.94C188.939 264.696 167.214 279.539 144.216 295.252C142.586 296.365 140.952 297.482 139.31 298.6L138.419 299.209C132.829 303.033 127.047 306.985 121.186 310.953C107.144 320.501 91.6791 330.376 73.7924 337.921C53.0288 346.679 32.0964 351.046 9.79169 351.273C-29.359 351.673 -69.262 342.648 -107.848 333.921C-110.553 333.309 -113.245 332.7 -115.925 332.098C-141.371 326.374 -159.933 322.98 -176.107 321.092C-236.214 314.079 -296.709 311.874 -342.08 315.043L-342.172 314.165C-296.727 310.988 -236.144 313.196 -175.956 320.219C-159.737 322.112 -141.134 325.513 -115.643 331.247C-112.963 331.849 -110.27 332.458 -107.562 333.072C-69.0501 341.783 -29.2239 350.785 9.77637 350.392C58.2144 349.898 92.3269 329.425 120.499 310.273C126.36 306.306 132.141 302.353 137.732 298.532L138.622 297.923C140.264 296.803 141.898 295.687 143.528 294.575C166.567 278.834 188.328 263.966 214.09 252.17C247.441 236.897 284.814 223.646 322.162 213.846C356.493 204.839 388.739 199.638 420.739 197.946C456.436 196.061 491.632 198.787 525.355 206.05C574.917 216.723 622.808 237.987 667.7 269.25C681.581 278.942 695.427 288.996 708.816 298.721C718.456 305.722 728.422 312.959 738.289 319.98C786.583 354.344 839.439 389.521 898.693 414.01C918.468 422.191 939.25 429.819 960.462 436.681C987.329 445.311 1012.58 452.178 1037.67 457.673C1076.19 466.112 1124.12 476.614 1171.49 465.563C1196.35 459.763 1216.11 448.75 1231.9 431.893C1261.24 400.58 1272.22 355.93 1281.91 316.534C1285.8 300.704 1289.47 285.754 1294 273.477C1295.68 268.936 1297.36 264.243 1298.99 259.704C1305.36 241.952 1311.94 223.593 1320.95 205.989C1330.75 186.689 1342.54 169.843 1356 155.924C1371.18 140.219 1388.22 128.584 1406.62 121.341C1418.58 116.639 1430.9 113.379 1444.29 111.372C1462.33 108.671 1482.35 108.762 1503.79 111.642C1522.56 114.164 1543.09 118.919 1564.81 125.779C1600.96 137.2 1635.92 155.016 1665.91 177.299C1699.42 202.128 1728.63 232.99 1752.73 269.034C1774.51 301.596 1791.48 337.317 1803.19 375.203L1802.15 375.419C1777.35 295.141 1728.71 225.013 1665.2 177.954C1635.3 155.743 1600.45 137.986 1564.42 126.602C1517.71 111.848 1478.48 107.148 1444.48 112.241C1431.19 114.232 1418.96 117.469 1407.09 122.137C1363.29 139.368 1336.61 177.43 1321.94 206.329C1312.96 223.888 1306.38 242.222 1300.02 259.951C1298.39 264.49 1296.71 269.185 1295.03 273.731C1290.52 285.968 1286.84 300.898 1282.96 316.707C1278.3 335.66 1273.02 357.141 1265.35 377.28C1256.57 400.354 1245.9 418.393 1232.75 432.43C1225.15 440.545 1216.41 447.453 1206.78 452.961C1196.42 458.884 1184.65 463.41 1171.78 466.411C1157.07 469.847 1142.3 471.214 1127.78 471.214Z" fill="#E39B53"/>
<path d="M1146.97 475.672C1136.23 475.672 1124.99 474.816 1113.11 473.106C1089.71 469.741 1067.32 463.634 1047.56 458.249C1022.66 451.46 996.652 443.014 970.276 433.149C949.169 425.209 928.491 416.534 908.824 407.361C852.373 381.062 803.738 346.094 750.532 306.436C745.804 302.911 741.003 299.317 736.36 295.838C718.078 282.146 699.175 267.988 679.915 254.611C634.406 223.069 585.164 203.088 533.555 195.224C468.455 185.303 397.945 193.862 323.994 220.667C286.047 234.422 248.778 251.761 216.219 270.815C191.704 285.161 171.524 302.076 150.159 319.984C147.988 321.804 145.808 323.629 143.616 325.462C138.16 330.028 132.284 334.929 126.307 339.836C113.771 350.159 98.4939 361.923 80.2418 370.867C59.8098 380.881 38.8253 385.928 16.0938 386.293C-25.5193 386.965 -67.8783 375.668 -108.844 364.742L-110.403 364.327C-130.461 358.98 -151.678 353.578 -170.941 350.298C-229.654 340.301 -290.846 333.361 -343.238 330.756L-343.168 329.814C-290.72 332.422 -229.473 339.367 -170.707 349.374C-151.39 352.664 -130.135 358.074 -110.047 363.428L-108.487 363.844C-67.6112 374.744 -25.3381 386.014 16.0723 385.347C63.8962 384.576 96.925 362.696 125.493 339.164C131.471 334.26 137.341 329.358 142.796 324.795C144.988 322.964 147.168 321.137 149.339 319.319C170.741 301.381 190.958 284.436 215.553 270.042C248.174 250.951 285.513 233.579 323.531 219.799C358.227 207.224 392.37 198.56 425.006 194.049C462.296 188.896 498.889 188.976 533.77 194.29C585.576 202.185 634.999 222.235 680.661 253.886C699.936 267.276 718.848 281.438 737.14 295.138C741.782 298.614 746.584 302.209 751.312 305.733C804.466 345.354 853.048 380.284 909.398 406.538C929.038 415.696 949.685 424.358 970.761 432.288C997.1 442.138 1023.06 450.571 1047.93 457.35C1086.91 467.979 1135.43 481.202 1183.27 471.07C1208.78 465.665 1228.67 454.586 1244.07 437.197C1273.09 404.433 1281.48 355.051 1288.23 315.37C1290.86 299.913 1293.34 285.315 1296.71 273.433C1297.76 269.687 1298.84 265.828 1299.87 262.095C1305.24 242.701 1310.8 222.646 1319.14 203.252C1332.01 173.072 1356.47 132.699 1399.86 111.747C1411.85 105.962 1424.21 101.702 1437.66 98.727C1472.84 90.83 1514.73 93.3851 1562.16 106.317C1599.68 116.545 1635.74 133.655 1666.45 155.8C1700.81 180.51 1730.24 211.67 1753.94 248.421C1764.81 265.277 1774.42 283.281 1782.5 301.932C1790.22 319.747 1796.59 338.247 1801.43 356.918L1800.3 357.115C1778.97 274.843 1731.17 203.6 1665.69 156.508C1635.09 134.446 1599.17 117.401 1561.8 107.21C1514.59 94.3367 1472.92 91.7891 1437.96 99.6357C1424.61 102.589 1412.34 106.815 1400.45 112.557C1357.35 133.363 1333.03 173.53 1320.23 203.562C1311.91 222.905 1306.36 242.933 1300.99 262.301C1299.96 266.035 1298.89 269.896 1297.83 273.645C1294.47 285.486 1291.99 300.064 1289.37 315.498C1285.98 335.466 1282.13 358.096 1275.55 379.456C1268 404 1258 423.069 1245 437.75C1237.58 446.126 1228.91 453.189 1219.22 458.742C1208.78 464.726 1196.78 469.182 1183.55 471.981C1171.94 474.443 1159.82 475.672 1146.97 475.672Z" fill="#E39B53"/>
<path d="M1164.65 480.38C1151.79 480.38 1138.22 479.013 1123.73 476.272C1100.25 471.834 1077.66 464.468 1057.73 457.968C1032.63 449.787 1006.64 439.972 980.481 428.792C959.512 419.793 938.972 410.081 919.434 399.923C865.669 371.993 819.555 335.995 770.733 297.888C768.317 296.002 765.901 294.114 763.479 292.226C740.775 274.524 717.3 256.218 692.828 239.301C646.527 207.359 595.792 188.6 542.034 183.545C474.509 177.193 401.657 191.696 325.498 226.644C287.404 244.125 249.165 266.159 217.825 288.687C194.16 305.696 175.18 324.836 155.086 345.1C152.706 347.499 150.321 349.906 147.917 352.318C143.115 357.143 137.402 362.865 131.421 368.718C120.344 379.586 105.251 393.396 86.6887 403.785C66.5822 415.04 45.5516 420.777 22.3933 421.318C3.35831 421.708 -17.6478 419.299 -41.8284 413.95C-62.5888 409.358 -82.6708 403.357 -104.893 396.56C-125.177 390.279 -146.585 383.792 -165.792 379.508C-222.686 366.815 -282.781 355.701 -344.405 346.467L-344.184 345.478C-282.523 354.714 -222.394 365.838 -165.47 378.536C-146.211 382.833 -124.772 389.33 -104.463 395.616C-67.2155 407.012 -20.8591 421.2 22.3596 420.311C71.7708 419.153 103.525 394.518 130.478 368.069C136.456 362.221 142.167 356.501 146.965 351.678C149.369 349.267 151.755 346.86 154.131 344.464C174.259 324.166 193.273 304.994 217.014 287.929C248.419 265.356 286.731 243.279 324.9 225.766C401.288 190.712 474.392 176.171 542.175 182.545C568.164 184.99 593.693 190.666 618.045 199.417C644.175 208.804 669.602 221.967 693.62 238.534C718.12 255.468 741.61 273.784 764.326 291.499C766.748 293.389 769.168 295.275 771.584 297.16C820.36 335.235 866.433 371.198 920.094 399.075C939.605 409.217 960.113 418.917 981.052 427.901C1007.18 439.063 1033.13 448.865 1058.18 457.034C1097.56 469.873 1146.57 485.85 1195.03 476.584C1221.28 471.564 1241.3 460.417 1256.23 442.509C1284.99 408.303 1290.11 356.051 1294.22 314.067C1295.7 299.051 1297.09 284.868 1299.39 273.399C1299.87 271.033 1300.35 268.654 1300.82 266.262C1305.13 244.661 1309.58 222.322 1317.32 200.522C1328.36 169.166 1350.48 126.648 1393.09 102.159C1404.98 95.3269 1417.38 90.0707 1431.01 86.0883C1449.96 80.5023 1471.07 77.8767 1493.76 78.2795C1514.48 78.647 1536.6 81.5344 1559.51 86.8586C1598.37 95.8883 1635.53 112.294 1666.97 134.3C1702.18 158.89 1731.84 190.352 1755.14 227.807C1765.83 244.993 1775.08 263.367 1782.65 282.419C1789.89 300.664 1795.62 319.58 1799.65 338.638L1798.44 338.81C1780.86 255.76 1732.65 181.498 1666.17 135.066C1634.87 113.155 1597.87 96.8172 1559.17 87.8227C1511.46 76.7313 1467.28 76.4594 1431.42 87.0323C1417.89 90.9845 1405.58 96.2004 1393.79 102.98C1351.47 127.3 1329.48 169.599 1318.49 200.799C1310.78 222.541 1306.33 244.847 1302.03 266.421C1301.56 268.812 1301.08 271.194 1300.6 273.56C1298.3 284.986 1296.92 299.151 1295.45 314.145C1291.32 356.25 1286.18 408.653 1257.24 443.078C1250.04 451.71 1241.44 458.935 1231.66 464.546C1221.15 470.582 1208.92 474.963 1195.31 477.566C1185.48 479.439 1175.31 480.38 1164.65 480.38Z" fill="#E39B53"/>
<path d="M1181.27 485.281C1166.61 485.281 1151.08 483.338 1134.35 479.436C1110.67 473.915 1087.94 465.293 1067.89 457.688C1042.55 448.077 1016.57 436.888 990.678 424.437C969.859 414.393 949.458 403.641 930.036 392.487C882.212 365.027 841.339 331.388 798.065 295.773C790.991 289.95 783.675 283.931 776.417 278.013C750.904 257.22 729.118 240.074 705.733 223.991C658.606 191.625 606.382 174.087 550.508 171.861C480.3 169.065 405.096 189.506 326.991 232.615C288.19 254.033 249.985 280.289 219.416 306.55C196.386 326.333 178.383 347.869 159.323 370.669C156.962 373.493 154.592 376.328 152.207 379.165C147.958 384.227 142.333 390.898 136.527 397.587C112.095 425.801 80.1745 454.849 28.6848 456.334C27.0791 456.377 25.4673 456.397 23.8585 456.397C-16.3484 456.397 -57.3965 443.35 -99.3902 428.782L-102.012 427.865C-122.812 420.585 -142.462 413.71 -160.649 408.706C-229.191 389.846 -295.478 373.926 -345.571 362.165L-345.212 361.136C-295.107 372.902 -228.801 388.824 -160.235 407.691C-141.998 412.708 -122.327 419.593 -101.499 426.881L-98.8805 427.797C-55.3487 442.899 -12.8361 456.369 28.6387 455.267C79.5574 453.797 111.211 424.973 135.462 396.97C141.265 390.286 146.883 383.621 151.132 378.561C153.518 375.721 155.885 372.889 158.246 370.065C177.336 347.23 195.367 325.659 218.47 305.812C249.101 279.496 287.383 253.187 326.26 231.726C362.344 211.809 398.44 196.516 433.544 186.268C473.822 174.51 513.197 169.304 550.57 170.792C606.732 173.027 659.22 190.651 706.568 223.168C729.987 239.276 751.794 256.439 777.332 277.25C784.593 283.168 791.909 289.19 798.986 295.013C842.217 330.593 883.05 364.199 930.782 391.603C950.176 402.745 970.547 413.479 991.335 423.508C1017.19 435.944 1043.13 447.116 1068.43 456.712C1108.15 471.778 1157.59 490.527 1206.79 482.087C1233.68 477.472 1253.83 466.26 1268.38 447.81C1296.77 412.046 1298.48 356.854 1299.85 312.506C1300.3 298.036 1300.72 284.367 1302.08 273.353L1302.11 273.102C1305.15 248.439 1308.29 222.938 1315.49 197.778C1321.72 175.831 1330.41 156.1 1341.3 139.128C1353.58 119.994 1368.72 104.326 1386.31 92.5576C1398.07 84.6833 1410.52 78.4277 1424.35 73.4358C1461.74 59.8698 1507.55 57.7754 1556.84 67.3841C1576.68 71.2508 1596.24 77.1086 1615 84.7916C1633.87 92.5198 1651.53 101.942 1667.49 112.792C1703.55 137.263 1733.44 169.022 1756.33 207.187C1776.91 241.491 1791.27 280.623 1797.87 320.35L1796.58 320.493C1782.45 235.467 1735.1 160.063 1666.66 113.615C1634.65 91.8603 1596.57 76.2326 1556.54 68.4313C1507.53 58.878 1462.01 60.9498 1424.89 74.4226C1411.16 79.3767 1398.81 85.582 1387.13 93.3933C1354.3 115.367 1329.97 151.549 1316.76 198.027C1309.58 223.122 1306.44 248.588 1303.41 273.215L1303.38 273.467C1302.03 284.44 1301.61 298.089 1301.16 312.538C1299.78 357.022 1298.07 412.381 1269.47 448.397C1262.46 457.293 1253.91 464.674 1244.08 470.333C1233.48 476.435 1221.03 480.742 1207.06 483.141C1198.74 484.566 1190.16 485.281 1181.27 485.281Z" fill="#E39B53"/>
<path d="M29.6393 491.445C11.6604 491.445 -7.91804 488.573 -30.014 482.708C-51.9688 476.88 -73.681 468.834 -93.8765 461.01C-97.5331 459.586 -101.162 458.163 -104.766 456.751C-122.708 449.72 -139.656 443.079 -155.495 437.906C-218.651 417.287 -278.851 398.754 -337.07 380.836L-346.717 377.865L-346.232 376.805L-336.585 379.776C-278.363 397.699 -218.154 416.232 -154.985 436.857C-139.103 442.042 -122.134 448.691 -104.171 455.732C-100.569 457.144 -96.9405 458.566 -93.287 459.988C-51.8306 476.049 -7.78605 491.614 34.9322 490.227C87.4443 488.434 118.914 454.893 140.46 425.876C145.98 418.455 151.298 411.059 155.313 405.445C157.53 402.351 159.731 399.26 161.926 396.176C180.133 370.613 197.329 346.466 219.943 323.699C249.795 293.652 288.04 263.107 327.639 237.694C364.376 214.117 401.448 195.488 437.83 182.328C479.56 167.231 520.319 159.397 558.975 159.042C617.143 158.332 671.168 174.74 719.53 207.806C746.338 226.157 770.375 246.009 790.355 263.009C801.227 272.26 812.098 281.743 822.613 290.913C859.833 323.38 898.321 356.948 941.484 384.138C960.765 396.287 981.003 408.058 1001.63 419.122C1027.16 432.783 1053.08 445.325 1078.69 456.396C1118.71 473.7 1168.52 495.236 1218.56 487.594C1246.1 483.387 1266.37 472.109 1280.54 453.116C1308.56 415.731 1306.66 357.515 1305.14 310.738C1304.69 296.905 1304.27 283.837 1304.78 273.317C1305.93 249.601 1307.67 222.039 1313.67 195.043C1318.74 172.168 1326.38 151.473 1336.4 133.534C1347.73 113.242 1362.24 96.2295 1379.54 82.9681C1391 74.1801 1403.84 66.7212 1417.71 60.7954C1437.5 52.3119 1459.71 46.9777 1483.72 44.9437C1506.21 43.038 1529.91 44.0399 1554.18 47.9192C1574.65 51.1917 1594.83 56.5738 1614.15 63.9194C1633.59 71.3103 1651.71 80.5188 1668.02 91.288C1686.81 103.688 1704.09 118.332 1719.38 134.813C1733.87 150.428 1746.7 167.843 1757.54 186.572C1777.81 221.611 1791.14 261.551 1796.1 302.068L1794.73 302.181C1784.07 215.174 1737.57 138.629 1667.15 92.1716C1634.9 70.8698 1594.69 55.5492 1553.92 49.0318C1503.51 40.9738 1456.63 45.3892 1418.35 61.7998C1404.59 67.6778 1391.85 75.0788 1380.48 83.7964C1347.89 108.784 1325.87 146.279 1315.03 195.247C1309.04 222.17 1307.31 249.684 1306.16 273.363C1305.65 283.845 1306.07 296.892 1306.52 310.707C1307.27 333.784 1308.12 359.942 1305.27 385.228C1301.97 414.57 1294.26 436.97 1281.72 453.708C1274.89 462.866 1266.41 470.405 1256.52 476.115C1245.83 482.282 1233.15 486.519 1218.82 488.706C1211.58 489.811 1204.36 490.312 1197.18 490.312C1154.18 490.312 1112.5 472.293 1078.05 457.396C1052.41 446.307 1026.44 433.748 1000.88 420.066C980.22 408.987 959.954 397.198 940.646 385.032C897.393 357.787 858.866 324.183 821.61 291.686C811.097 282.518 800.229 273.038 789.364 263.792C769.411 246.812 745.408 226.988 718.649 208.672C670.548 175.783 616.839 159.47 558.997 160.17C468.16 161.006 383.509 203.27 328.492 238.58C288.973 263.943 250.805 294.423 221.018 324.409C198.471 347.108 181.299 371.217 163.121 396.74C160.926 399.824 158.721 402.915 156.505 406.012C152.486 411.628 147.165 419.029 141.642 426.457C132.597 438.639 118.398 456.371 99.5899 469.663C90.4561 476.117 80.736 481.19 70.6996 484.741C59.5089 488.701 47.4923 490.927 34.9906 491.352C33.2191 491.415 31.4353 491.445 29.6393 491.445Z" fill="#E39B53"/>
<path d="M35.4126 526.493C17.4123 526.493 -2.12625 523.399 -24.1056 517.086C-46.8616 510.551 -69.3598 501.362 -88.3641 493.234C-94.2036 490.732 -100.031 488.194 -105.668 485.74C-121.424 478.88 -136.308 472.398 -150.342 467.106C-200.738 448.1 -250.806 429.545 -299.229 411.599C-315.246 405.663 -331.807 399.526 -347.857 393.565L-347.256 392.475C-331.205 398.436 -314.644 404.573 -298.627 410.509C-250.205 428.455 -200.13 447.013 -149.731 466.022C-135.66 471.328 -120.757 477.815 -104.983 484.685C-99.3492 487.139 -93.522 489.674 -87.6887 492.177C-48.2739 509.028 -2.55609 526.866 41.2214 525.187C94.9707 523.077 125.16 486.452 145.46 454.782C150.664 446.668 155.696 438.522 159.496 432.332C161.449 429.155 163.389 425.981 165.327 422.814C182.741 394.33 199.187 367.427 221.422 341.592C250.339 307.99 288.554 273.213 329.019 243.667C385.371 202.697 472.469 152.723 567.38 147.303C627.739 143.764 683.294 158.953 732.493 192.454C754.599 207.513 776.458 224.882 803.377 248.78C816.981 260.855 830.481 273.372 843.535 285.472C877.5 316.957 912.617 349.514 952.188 376.688C971.358 389.857 991.459 402.662 1011.93 414.751C1036.72 429.374 1062.63 443.285 1088.95 456.098C1129.38 475.66 1179.69 500.011 1230.33 493.118C1258.1 489.418 1279.08 477.75 1292.7 458.442C1320.33 419.365 1314.4 355.435 1310.07 308.755C1308.85 295.655 1307.7 283.282 1307.48 273.301C1306.98 251.118 1307.02 221.869 1311.86 192.328C1320.22 141.138 1340.71 101.122 1372.77 73.3987C1384.01 63.6314 1396.9 55.1454 1411.07 48.1749C1431.24 38.2465 1453.99 31.568 1478.7 28.3281C1501.98 25.2771 1526.48 25.325 1551.53 28.4716C1572.66 31.1853 1593.44 36.1042 1613.29 43.0873C1633.33 50.1409 1651.92 59.1279 1668.55 69.7989C1687.76 82.1288 1705.32 96.8226 1720.72 113.475C1735.32 129.256 1748.11 146.918 1758.74 165.974C1778.7 201.751 1791.01 242.496 1794.34 283.806L1792.88 283.884C1785.71 194.891 1740.06 117.203 1667.65 70.7429C1634.82 49.6652 1593.5 35.0721 1551.31 29.6548C1499.29 23.1223 1451.07 29.8813 1411.83 49.202C1397.77 56.1146 1384.99 64.5326 1373.84 74.2219C1341.99 101.762 1321.62 141.551 1313.31 192.489C1308.48 221.95 1308.44 251.141 1308.94 273.281C1309.17 283.227 1310.31 295.585 1311.53 308.667C1313.76 332.796 1316.3 360.147 1314.85 386.848C1313.16 417.94 1306.33 441.555 1293.96 459.043C1287.31 468.476 1278.9 476.179 1268.95 481.939C1258.17 488.184 1245.26 492.343 1230.57 494.301C1207.79 497.4 1183.27 494.616 1155.61 485.788C1131.57 478.112 1108.54 466.965 1088.21 457.133C1061.86 444.302 1035.91 430.371 1011.08 415.727C990.581 403.622 970.453 390.798 951.255 377.612C911.601 350.382 876.444 317.79 842.445 286.273C829.397 274.175 815.901 261.666 802.309 249.6C775.436 225.746 753.616 208.409 731.563 193.385C682.655 160.076 627.454 144.977 567.478 148.494C472.976 153.893 386.167 203.714 329.983 244.561C289.598 274.046 251.463 308.75 222.607 342.281C200.434 368.044 184.012 394.909 166.625 423.35C164.688 426.519 162.748 429.694 160.795 432.871C156.991 439.066 151.956 447.219 146.746 455.34C126.268 487.293 95.7751 524.245 41.2859 526.382C39.3486 526.455 37.3867 526.493 35.4126 526.493Z" fill="#E39B53"/>
<path d="M41.3007 561.541C-7.88331 561.541 -59.4897 536.773 -105.238 514.814C-119.296 508.068 -132.575 501.694 -145.193 496.304L-349 409.262L-348.291 408.147L-144.484 495.189C-131.832 500.591 -118.538 506.973 -104.461 513.729C-56.9445 536.537 -3.08465 562.387 47.5086 560.147C102.443 557.717 131.382 518.009 150.457 483.69C156.696 472.465 162.72 461.044 168.547 449.998C184.484 419.79 200.961 388.552 222.892 359.479C240.306 336.395 261.938 312.186 285.449 289.472C311.242 264.552 338.858 241.69 367.524 221.521C399.131 199.285 431.27 180.891 463.043 166.852C498.187 151.325 532.809 141.187 565.955 136.719C632.353 127.77 692.743 141.351 745.443 177.09C789.239 206.787 826.461 243.51 862.459 279.025C893.793 309.938 926.193 341.9 962.881 369.224C1005.26 400.781 1051.12 429.904 1099.21 455.78C1139.72 477.583 1190.13 504.72 1242.1 498.62C1285.98 493.47 1311.36 469.394 1319.66 425.013C1326.73 387.263 1320.01 342.482 1314.61 306.502C1312.77 294.24 1311.03 282.657 1310.17 273.265C1305.47 221.488 1308.47 178.746 1319.35 142.6C1326.14 120.047 1336.16 99.9433 1349.14 82.848C1363.62 63.7514 1382.23 47.8317 1404.42 35.532C1423.63 24.8911 1445.27 17.1629 1468.75 12.5612C1491.11 8.181 1514.64 6.71339 1538.71 8.19862C1586.03 11.1187 1632.33 25.3569 1669.06 48.2873C1688.7 60.5443 1706.52 75.2909 1722.05 92.1143C1736.76 108.059 1749.51 125.97 1759.93 145.354C1779.57 181.868 1790.85 223.422 1792.55 265.519L1791.01 265.562C1787.4 175.914 1741.46 95.0647 1668.13 49.2918C1590.25 0.681827 1479.71 -4.66752 1405.28 36.5767C1331.54 77.4332 1300.93 154.824 1311.7 273.172C1312.55 282.534 1314.29 294.101 1316.13 306.348C1321.54 342.406 1328.28 387.283 1321.18 425.204C1317.31 445.859 1309.54 462.459 1298.08 474.544C1291.63 481.339 1283.86 486.892 1274.98 491.046C1265.52 495.466 1254.53 498.434 1242.31 499.869C1237.32 500.455 1232.24 500.75 1227.07 500.75C1208.24 500.75 1188.18 496.846 1166.21 488.936C1141.45 480.025 1117.56 467.166 1098.36 456.835C1050.21 430.921 1004.28 401.76 961.843 370.158C925.072 342.776 892.639 310.776 861.271 279.83C825.319 244.361 788.143 207.683 744.457 178.062C692.111 142.567 632.135 129.074 566.194 137.963C432.808 155.942 295.406 265.738 224.187 360.144C202.315 389.136 185.859 420.331 169.944 450.499C164.113 461.55 158.087 472.979 151.842 484.214C139.178 506.998 126.67 523.313 112.479 535.552C103.622 543.19 94.0124 549.211 83.9177 553.448C72.6932 558.158 60.4678 560.836 47.5792 561.408C45.4976 561.496 43.4007 561.541 41.3007 561.541Z" fill="#E39B53"/>
</g>
</svg>
