<svg width="1440" height="626" viewBox="0 0 1440 626" fill="none" xmlns="http://www.w3.org/2000/svg">
<g opacity="0.3">
<path d="M531.848 625.522C523.917 625.522 516.198 625.011 508.78 623.991C493.222 621.852 478.848 617.459 466.057 610.934C452.309 603.923 440.252 594.37 430.216 582.541C410.047 558.764 399.956 530.291 390.197 502.753C388.28 497.346 386.298 491.755 384.285 486.33C370.552 449.355 353.144 416.967 331.07 387.316C287.034 328.165 225.106 277.685 151.976 241.332C67.403 199.293 -23.5273 178.351 -104.066 182.366C-151.403 184.727 -213.948 207.179 -241.901 245.524C-258.49 268.28 -259.827 293.534 -245.766 318.552L-246.046 318.657C-253.418 305.537 -256.63 292.384 -255.59 279.563C-254.636 267.802 -250.12 256.305 -242.165 245.393C-229.512 228.036 -208.646 212.652 -181.823 200.904C-157.036 190.049 -129.43 183.375 -104.085 182.112C-61.936 180.012 -17.109 184.672 29.1508 195.965C71.0847 206.203 112.463 221.392 152.136 241.113C225.309 277.486 287.274 327.994 331.334 387.18C353.421 416.852 370.838 449.257 384.579 486.252C386.595 491.677 388.577 497.271 390.492 502.678C400.242 530.195 410.326 558.649 430.468 582.39C449.947 605.353 476.314 619.264 508.832 623.735C553.864 629.927 608.549 616.975 655.109 589.086C722.207 548.896 768.774 490.398 813.81 433.828C821.704 423.913 829.865 413.66 837.946 403.759C858.925 378.049 887.338 344.735 921.105 315.055C955.62 284.719 990.694 262.43 1028.33 246.913C1051.37 237.415 1075.79 231.016 1100.9 227.895C1124.1 225.01 1148.65 224.831 1173.88 227.358C1217.15 231.696 1263.78 243.948 1316.41 264.811C1420.05 305.897 1523.58 355.766 1624.12 413.035C1719.68 467.468 1813.4 529.062 1902.68 596.102L1902.47 596.288C1717.4 457.318 1520.18 345.87 1316.28 265.038C1201.08 219.371 1109.63 213.682 1028.47 247.137C945.907 281.172 888.231 342.592 838.2 403.897C830.122 413.795 821.961 424.049 814.067 433.964C769.019 490.554 722.437 549.07 655.293 589.287C633.596 602.284 609.187 612.422 584.707 618.602C571.776 621.867 558.921 624.001 546.495 624.948C541.543 625.333 536.656 625.522 531.848 625.522Z" fill="#FFE492"/>
<path d="M539.602 611.423C519.377 611.423 500.644 608.263 483.902 602.028C465.233 595.075 449.123 584.301 436.016 570.007C434.856 568.741 433.706 567.432 432.595 566.113C412.64 542.44 402.102 514.336 391.913 487.156C389.851 481.664 387.722 475.982 385.562 470.469C372.698 437.643 357.207 408.711 338.201 382.025C335.86 378.739 333.436 375.447 330.991 372.24C286.308 313.598 223.877 263.757 150.446 228.104C65.2624 186.782 -25.9257 166.706 -106.32 171.577C-153.313 174.454 -215.57 197.274 -243.643 235.324C-260.452 258.108 -262.354 283.413 -249.15 308.503L-249.432 308.604C-256.353 295.453 -259.197 282.275 -257.881 269.439C-256.672 257.65 -251.972 246.128 -243.906 235.193C-231.125 217.866 -210.321 202.465 -183.748 190.656C-159.189 179.741 -131.702 172.876 -106.348 171.325C-64.2515 168.775 -19.3754 172.989 27.0317 183.849C69.0668 193.687 110.642 208.504 150.6 227.888C224.073 263.561 286.538 313.432 331.249 372.106C333.694 375.316 336.121 378.611 338.462 381.899C357.48 408.603 372.98 437.55 385.85 470.393C388.013 475.906 390.143 481.588 392.204 487.083C402.39 514.246 412.92 542.329 432.847 565.97C433.954 567.284 435.105 568.593 436.261 569.856C463.346 599.402 500.561 611.423 539.697 611.423C539.912 611.423 540.123 611.423 540.338 611.423C540.093 611.42 539.847 611.423 539.602 611.423ZM547.95 611.246C584.334 609.713 621.877 598.242 654.086 581.177C723.561 544.215 773.493 487.126 821.784 431.918C823.772 429.643 825.76 427.372 827.749 425.101C832.114 420.117 837.29 414.216 842.573 408.268C866.274 381.592 894.957 350.553 927.99 322.615C963.138 292.888 998.251 270.828 1035.33 255.173C1058.12 245.564 1082.2 238.795 1106.91 235.054C1129.8 231.588 1153.99 230.609 1178.8 232.142C1221.67 234.793 1267.75 244.842 1319.7 262.866C1370.35 280.412 1411.98 296.928 1450.72 314.844C1505.6 340.249 1557.88 369.521 1601.78 394.803C1703.84 453.749 1803.98 520.682 1899.42 593.746L1899.21 593.93C1803.78 520.876 1703.65 453.948 1601.6 395.009C1557.71 369.73 1505.44 340.463 1450.57 315.066C1411.84 297.155 1370.22 280.644 1319.58 263.103C1206.42 223.837 1116.14 221.388 1035.48 255.4C951.755 290.738 892.134 352.914 842.822 408.419C837.535 414.367 832.363 420.266 827.997 425.252C826.009 427.521 824.021 429.794 822.033 432.069C773.727 487.295 723.776 544.403 654.251 581.393C637.012 590.526 618.668 597.781 599.726 602.954C582.094 607.765 564.714 610.547 547.95 611.246Z" fill="#FFE492"/>
<path d="M548.152 597.645C545.719 597.645 543.302 597.603 540.903 597.514C520.696 596.782 501.997 592.978 485.325 586.204C467.092 578.796 451.294 567.822 438.375 553.587C437.228 552.318 436.083 551.007 434.979 549.687C415.248 526.13 404.271 498.402 393.658 471.589C391.446 466.001 389.158 460.221 386.838 454.612C373.339 421.897 357.44 393.197 338.228 366.87C335.851 363.615 333.39 360.35 330.908 357.168C285.578 299.038 222.643 249.836 148.912 214.883C63.1207 174.278 -28.3251 155.066 -108.579 160.793C-153.765 164.068 -215.84 185.586 -245.355 225.088C-262.407 247.911 -264.889 273.283 -252.534 298.461L-252.819 298.555C-259.293 285.364 -261.763 272.155 -260.167 259.297C-258.701 247.47 -253.804 235.918 -245.615 224.958C-232.699 207.671 -211.962 192.265 -185.645 180.401C-161.315 169.432 -133.954 162.381 -108.606 160.544C-66.5589 157.546 -21.6337 161.311 24.9176 171.738C67.057 181.178 108.825 195.62 149.066 214.667C222.84 249.643 285.808 298.872 331.166 357.035C333.648 360.219 336.111 363.484 338.489 366.744C357.71 393.086 373.618 421.804 387.124 454.537C389.443 460.148 391.732 465.928 393.944 471.516C404.553 498.313 415.521 526.022 435.227 549.551C436.332 550.871 437.47 552.18 438.617 553.443C491.115 611.287 584.15 605.077 653.061 573.265C725.436 539.56 779.221 483.542 831.237 429.368L831.771 428.812C836.808 423.561 842.018 418.134 847.203 412.774C901.915 356.235 962.052 298.129 1042.34 263.428C1064.88 253.706 1088.63 246.566 1112.93 242.209C1135.52 238.156 1159.34 236.376 1183.73 236.92C1226.25 237.866 1271.81 245.716 1323 260.915C1376.8 276.832 1417.29 291.463 1454.27 308.357C1506.97 332.476 1558.02 362.953 1603.06 389.844C1703.34 450.036 1801.96 517.843 1896.17 591.377L1895.96 591.558C1801.75 518.032 1703.15 450.232 1602.88 390.045C1557.85 363.16 1506.81 332.687 1454.12 308.576C1417.15 291.687 1376.68 277.062 1322.9 261.149C1211.93 228.202 1122.83 228.995 1042.48 263.647C962.245 298.326 902.133 356.406 847.442 412.925C842.257 418.285 837.048 423.714 832.01 428.963L831.476 429.519C805.554 456.515 778.752 484.43 749.808 509.365C717.281 537.385 685.683 558.357 653.208 573.479C619.233 589.162 582.223 597.645 548.152 597.645Z" fill="#FFE492"/>
<path d="M1892.71 589.185C1799.73 515.185 1702.64 446.514 1604.16 385.081C1599.99 382.498 1595.81 379.903 1591.62 377.3C1548.96 350.812 1504.85 323.424 1457.68 302.087C1411.92 281.445 1365.55 268.823 1326.21 259.199C1217.65 232.47 1129.72 236.505 1049.5 271.894C967.15 308.33 903.341 368.824 852.071 417.434C848.994 420.352 845.923 423.274 842.846 426.199C840.575 428.359 838.302 430.519 836.029 432.677C806.836 460.382 780.282 485.153 750.943 507.756C717.424 533.577 685.118 552.487 652.171 565.57C621.294 577.832 588.309 584.319 557.629 584.321C552.039 584.321 546.532 584.107 541.12 583.672C521.362 582.083 503.07 577.62 486.754 570.406C468.951 562.534 453.466 551.352 440.725 537.169C439.586 535.898 438.451 534.584 437.353 533.262C417.856 509.828 406.452 482.49 395.425 456.053C393.051 450.358 390.593 444.468 388.108 438.751C373.964 406.139 357.655 377.668 338.252 351.709C335.838 348.479 333.337 345.244 330.822 342.09C284.841 284.47 221.406 235.908 147.378 201.652C60.979 161.765 -30.7215 143.421 -110.834 149.996C-165.601 154.58 -221.605 181.229 -247.027 214.798C-264.346 237.668 -267.417 263.121 -255.915 288.405L-256.203 288.493C-262.226 275.254 -264.325 262.006 -262.441 249.114C-260.707 237.245 -255.608 225.655 -247.288 214.664C-234.236 197.428 -213.567 182.022 -187.513 170.115C-163.417 159.102 -136.197 151.867 -110.865 149.747C-68.8663 146.298 -23.8951 149.619 22.8004 159.613C65.041 168.655 107.009 182.724 147.531 201.431C221.606 235.707 285.074 284.297 331.082 341.951C333.601 345.108 336.102 348.345 338.516 351.575C357.931 377.549 374.247 406.036 388.399 438.663C390.884 444.382 393.342 450.27 395.717 455.967C406.737 482.389 418.135 509.71 437.608 533.116C438.706 534.435 439.838 535.747 440.973 537.016C495.777 598.021 588.926 590.401 652.039 565.341C727.337 535.44 784.958 480.758 835.798 432.51C838.072 430.351 840.342 428.191 842.616 426.033C845.69 423.108 848.764 420.186 851.841 417.268C881.107 389.522 910.008 362.558 941.78 337.712C978.318 309.138 1013.51 287.537 1049.36 271.672C1071.66 261.832 1095.07 254.323 1118.95 249.356C1141.26 244.711 1164.72 242.134 1188.67 241.691C1230.92 240.91 1275.94 246.559 1326.31 258.957C1365.65 268.586 1412.05 281.213 1457.83 301.868C1505.02 323.212 1549.14 350.609 1591.81 377.101C1596 379.704 1600.18 382.299 1604.35 384.882C1702.84 446.321 1799.93 514.999 1892.93 589.006L1892.71 589.185Z" fill="#FFE492"/>
<path d="M1889.46 586.813C1795.95 510.925 1700.39 441.381 1605.44 380.116C1599.76 376.451 1593.95 372.673 1588.33 369.02C1548.07 342.86 1506.45 315.808 1461.24 295.597C1416.09 275.486 1369.33 264.923 1329.53 257.245C1223.6 236.61 1136.85 243.885 1056.51 280.14C979.885 314.847 919.853 367.036 861.797 417.507L855.421 423.047C850.387 427.425 845.18 431.949 840.047 436.387C781.933 486.567 723.757 533.599 651.133 557.655C633.51 563.492 615.415 567.538 597.344 569.685C577.939 571.988 559.089 572.021 541.316 569.781C522.012 567.347 504.135 562.234 488.181 554.584C470.819 546.259 455.644 534.873 443.084 520.745C441.952 519.467 440.826 518.15 439.736 516.831C420.478 493.535 408.663 466.6 397.238 440.55C394.689 434.738 392.05 428.726 389.387 422.889C374.587 390.377 357.872 362.135 338.286 336.549C335.838 333.352 333.3 330.142 330.745 327.013C284.117 269.905 220.182 221.982 145.85 188.423C58.8402 149.258 -33.1179 131.778 -113.092 139.207C-167.36 144.354 -223.109 171.189 -248.66 204.466C-266.267 227.394 -269.945 252.945 -259.299 278.358L-259.591 278.441C-265.162 265.144 -266.884 251.845 -264.708 238.916C-262.702 226.996 -257.391 215.361 -248.923 204.335C-235.731 187.157 -215.135 171.766 -189.357 159.824C-165.5 148.77 -138.428 141.361 -113.129 138.96C-71.1799 135.063 -26.1627 137.935 20.68 147.496C63.025 156.141 105.186 169.835 145.994 188.204C220.369 221.78 284.341 269.733 330.996 326.875C333.552 330.006 336.092 333.218 338.54 336.415C358.139 362.014 374.863 390.271 389.669 422.801C392.332 428.638 394.971 434.652 397.52 440.465C408.94 466.499 420.748 493.422 439.985 516.69C441.071 518.004 442.197 519.318 443.326 520.597C496.811 580.754 585.68 579.065 651.014 557.423C723.579 533.388 781.73 486.374 839.82 436.216C844.953 431.777 850.16 427.254 855.194 422.876L861.57 417.335C890.069 392.562 919.534 366.943 951.537 343.111C987.782 316.12 1022.07 295.451 1056.36 279.919C1078.44 269.955 1101.52 262.076 1124.96 256.502C1146.99 251.261 1170.09 247.883 1193.6 246.461C1235.66 243.916 1280.14 247.364 1329.6 256.998C1369.41 264.681 1416.2 275.246 1461.38 295.375C1506.61 315.594 1548.25 342.653 1588.52 368.821C1594.14 372.474 1599.95 376.25 1605.63 379.918C1700.59 441.187 1796.15 510.736 1889.67 586.632L1889.46 586.813Z" fill="#FFE492"/>
<path d="M1886.21 584.442C1793.5 507.711 1699.47 437.296 1606.72 375.155C1599.75 370.486 1592.61 365.63 1585.7 360.935C1547.61 335.057 1508.23 308.297 1464.79 289.113C1419.86 269.346 1372.88 260.926 1332.85 255.297C1229.86 240.593 1144.28 251.111 1063.52 288.393C993.051 321.065 935.191 367.369 879.233 412.148C873.346 416.86 867.256 421.731 861.322 426.451C854.355 431.995 849.032 436.206 844.065 440.103C817.462 460.962 785.787 484.98 752.548 504.957C717.324 526.126 683.812 540.777 650.094 549.748C632.364 554.466 614.345 557.441 596.536 558.589C577.413 559.823 558.897 558.917 541.507 555.893C522.666 552.618 505.206 546.856 489.605 538.768C472.688 529.997 457.83 518.407 445.441 504.325C444.324 503.049 443.204 501.73 442.118 500.406C423.115 477.266 410.904 450.746 399.092 425.1C396.352 419.151 393.521 413.001 390.664 407.027C375.198 374.607 358.076 346.596 338.314 321.39C335.829 318.221 333.255 315.041 330.663 311.937C283.387 255.34 218.95 208.057 144.317 175.195C56.7027 136.75 -35.5132 120.138 -115.346 128.415C-160.772 133.229 -220.101 155.401 -250.248 194.083C-268.171 217.081 -272.473 242.748 -262.683 268.307L-262.974 268.382C-268.095 255.018 -269.432 241.661 -266.953 228.681C-264.665 216.701 -259.133 205.016 -250.506 193.947C-237.172 176.839 -216.653 161.473 -191.161 149.506C-167.543 138.419 -140.633 130.842 -115.383 128.166C-73.4832 123.821 -28.4168 126.245 18.567 135.373C61.0133 143.62 103.371 156.942 144.461 174.974C219.137 207.853 283.611 255.164 330.914 311.794C333.507 314.898 336.084 318.082 338.569 321.254C358.34 346.473 375.471 374.498 390.947 406.934C393.806 412.911 396.638 419.06 399.378 425.009C411.18 450.643 423.388 477.148 442.37 500.262C443.456 501.584 444.573 502.901 445.69 504.174C490.185 554.758 566.564 571.705 649.999 549.504C725.559 529.401 787.195 484.343 843.853 439.917C848.82 436.02 854.14 431.808 861.108 426.265C867.041 421.545 873.131 416.674 879.019 411.961C906.566 389.917 935.05 367.123 965.433 345.778C999.789 321.639 1031.83 302.794 1063.38 288.169C1085.24 278.074 1107.99 269.825 1130.98 263.652C1152.76 257.804 1175.49 253.628 1198.53 251.234C1240.49 246.879 1284.44 248.125 1332.9 255.043C1372.95 260.677 1419.97 269.1 1464.94 288.883C1508.4 308.081 1547.79 334.848 1585.89 360.734C1592.8 365.428 1599.95 370.284 1606.92 374.954C1699.67 437.102 1793.71 507.522 1886.42 584.259L1886.21 584.442Z" fill="#FFE492"/>
<path d="M1882.95 582.07C1791.05 504.491 1698.54 433.202 1608 370.19C1600.29 364.831 1592.38 359.205 1584.73 353.765C1548.28 327.851 1510.6 301.057 1468.34 282.622C1423.38 263.092 1376.29 256.862 1336.16 253.343C1237.84 244.489 1150.95 258.652 1070.53 296.639C1006.5 327.023 951.609 367.671 898.526 406.981C887.803 414.921 876.719 423.133 865.941 430.959C859.347 435.75 853.506 439.956 848.075 443.818C822.822 461.756 789.231 484.757 753.335 503.554C717.267 522.439 683.153 534.963 649.046 541.838C611.846 549.337 574.72 549.393 541.683 542.002C523.315 537.891 506.269 531.482 491.018 522.95C474.552 513.739 460.009 501.948 447.789 487.909C446.681 486.63 445.571 485.309 444.491 483.984C425.757 461.021 413.166 434.936 400.992 409.713C398.047 403.611 395.004 397.302 391.932 391.172C375.788 358.837 358.258 331.053 338.337 306.237C335.815 303.096 333.204 299.944 330.575 296.868C282.652 240.781 217.714 194.135 142.78 161.976C54.5623 124.253 -37.9113 108.507 -117.607 117.633C-171.616 123.951 -225.543 150.484 -251.793 183.653C-270.06 206.734 -274.997 232.534 -266.069 258.264L-266.363 258.332C-271.03 244.887 -271.981 231.459 -269.192 218.425C-266.615 206.377 -260.847 194.631 -252.051 183.514C-238.576 166.487 -218.137 151.156 -192.942 139.179C-169.573 128.07 -142.832 120.326 -117.65 117.381C-75.7985 112.588 -30.683 114.567 16.445 123.259C58.9956 131.108 101.549 144.057 142.922 161.749C217.898 193.928 282.873 240.6 330.826 296.722C333.456 299.798 336.067 302.952 338.592 306.096C358.522 330.927 376.061 358.724 392.215 391.074C395.286 397.204 398.329 403.515 401.275 409.617C413.442 434.828 426.027 460.9 444.742 483.841C445.822 485.165 446.93 486.482 448.038 487.76C491.769 538.017 566.884 558.14 648.972 541.594C723.808 526.507 788.795 485.593 847.873 443.629C853.3 439.767 859.145 435.563 865.735 430.773C876.51 422.946 887.598 414.737 898.317 406.798C951.413 367.479 1006.31 326.822 1070.38 296.425C1092.05 286.187 1114.46 277.57 1136.99 270.808C1158.54 264.344 1180.9 259.367 1203.45 256.016C1245.4 249.786 1288.82 248.832 1336.19 253.096C1376.35 256.618 1423.47 262.851 1468.48 282.403C1510.77 300.85 1548.47 327.655 1584.93 353.578C1592.58 359.018 1600.49 364.642 1608.2 370.002C1698.75 433.018 1791.26 504.312 1883.17 581.897L1882.95 582.07Z" fill="#FFE492"/>
<path d="M1879.7 579.7C1788.61 501.264 1697.63 429.107 1609.28 365.229C1601.16 359.359 1592.8 353.144 1584.73 347.132C1549.61 321 1513.3 293.976 1471.9 276.135C1426.74 256.772 1379.62 252.762 1339.48 251.392C1244.87 247.929 1159.19 265.427 1077.54 304.889C1020.29 332.695 969.242 367.888 919.878 401.92C902.905 413.623 886.872 424.676 870.565 435.468C863.932 439.861 857.891 443.808 852.092 447.531C814.678 471.534 783.55 488.889 754.127 502.145C717.216 518.777 682.504 529.174 648.007 533.927C634.624 535.769 621.29 536.688 608.199 536.688C584.992 536.688 562.538 533.808 541.865 528.104C504.453 517.78 473.595 498.732 450.146 471.487C449.042 470.195 447.94 468.873 446.873 467.554C428.425 444.79 415.48 419.169 402.963 394.388C399.791 388.11 396.514 381.62 393.21 375.309C376.375 343.049 358.433 315.497 338.368 291.076C335.81 287.962 333.162 284.838 330.496 281.789C281.926 226.214 216.485 180.207 141.25 148.745C52.4278 111.748 -40.3005 96.8653 -119.858 106.839C-174.091 113.779 -226.463 139.809 -253.274 173.153C-271.913 196.331 -277.502 222.284 -269.446 248.211L-269.743 248.273C-273.95 234.735 -274.508 221.227 -271.4 208.124C-268.522 195.996 -262.512 184.184 -253.529 173.015C-239.913 156.081 -219.563 140.801 -194.675 128.823C-171.557 117.696 -145.003 109.802 -119.904 106.59C-78.1017 101.349 -32.9372 102.879 14.332 111.139C56.9868 118.592 99.7338 131.169 141.392 148.519C216.669 180.001 282.147 226.033 330.748 281.641C333.414 284.692 336.061 287.816 338.623 290.932C358.7 315.366 376.651 342.933 393.492 375.206C396.796 381.517 400.076 388.009 403.245 394.287C415.757 419.055 428.694 444.667 447.127 467.411C448.195 468.728 449.293 470.049 450.398 471.338C494.185 522.219 566.192 544.94 647.955 533.675C725.788 522.951 794.726 484.01 851.902 447.33C857.698 443.607 863.739 439.662 870.372 435.269C886.675 424.478 902.709 413.426 919.681 401.723C969.052 367.684 1020.11 332.486 1077.39 304.67C1098.9 294.273 1120.97 285.286 1143.01 277.956C1164.35 270.857 1186.35 265.079 1208.39 260.787C1250.42 252.603 1293.31 249.447 1339.49 251.138C1379.67 252.508 1426.83 256.523 1472.04 275.909C1513.48 293.762 1549.8 320.798 1584.93 346.941C1593.01 352.952 1601.36 359.168 1609.48 365.036C1697.84 428.918 1788.82 501.083 1879.91 579.523L1879.7 579.7Z" fill="#FFE492"/>
<path d="M1876.45 577.328C1784.91 496.914 1697.94 425.912 1610.56 360.265C1602.22 354.001 1594.01 347.605 1585.32 340.833C1551.35 314.361 1516.22 286.99 1475.45 269.648C1429.73 250.292 1380.54 248.681 1342.79 249.441C1252.5 251.022 1168.02 271.858 1084.55 313.14C1034.48 338.029 988.237 367.917 943.52 396.824C920.019 412.016 897.822 426.362 875.186 439.979C868.467 444.024 862.224 447.71 856.106 451.246C818.182 473.137 786.029 488.861 754.913 500.732C717.146 515.142 681.836 523.411 646.964 526.014C629.047 527.351 611.252 527.099 594.075 525.266C575.887 523.326 558.381 519.602 542.044 514.203C505.832 502.233 475.707 482.338 452.503 455.068C451.408 453.774 450.316 452.45 449.254 451.131C431.116 428.6 417.847 403.467 405.013 379.162C401.589 372.678 398.049 365.971 394.487 359.451C376.947 327.262 358.6 299.939 338.397 275.921C335.798 272.835 333.114 269.738 330.417 266.717C281.2 211.653 215.258 166.285 139.723 135.521C70.0054 107.244 -1.89093 92.4895 -67.8199 92.4895C-86.4582 92.4895 -104.606 93.6676 -122.109 96.0516C-175.689 103.493 -227.732 129.615 -254.7 162.603C-273.734 185.888 -280.002 212.018 -272.826 238.166L-273.127 238.221C-276.873 224.577 -277.029 210.976 -273.593 197.798C-270.408 185.581 -264.137 173.692 -254.958 162.462C-241.201 145.633 -220.945 130.416 -196.377 118.451C-173.185 107.156 -147.521 99.3241 -122.164 95.8049C-80.4111 90.1157 -35.1975 91.2006 12.2159 99.0246C54.972 106.078 97.9183 118.28 139.858 135.292C215.436 166.074 281.417 211.467 330.665 266.564C333.365 269.585 336.053 272.684 338.652 275.772C358.864 299.803 377.22 327.139 394.769 359.343C398.331 365.863 401.875 372.569 405.298 379.056C418.126 403.351 431.389 428.475 449.512 450.987C450.573 452.304 451.666 453.628 452.758 454.919C496.149 505.913 566.923 531.731 646.94 525.76C727.908 519.716 801.161 482.65 855.934 451.035C862.052 447.498 868.292 443.813 875.011 439.77C897.644 426.159 919.838 411.81 943.337 396.62C988.059 367.711 1034.3 337.815 1084.4 312.918C1127.38 291.664 1169.55 276.175 1213.33 265.562C1255.55 255.327 1297.9 249.97 1342.79 249.184C1368.41 248.668 1389.3 249.564 1408.56 252.001C1433.42 255.148 1455.35 260.845 1475.6 269.419C1516.4 286.776 1551.55 314.162 1585.54 340.647C1594.23 347.419 1602.44 353.813 1610.77 360.076C1698.15 425.726 1785.13 496.732 1876.67 577.151L1876.45 577.328Z" fill="#FFE492"/>
<path d="M1873.19 574.957C1782.49 493.662 1697 421.814 1611.83 355.301C1603.41 348.721 1595.1 341.941 1586.3 334.764C1553.35 307.874 1519.27 280.065 1479 263.159C1432.91 243.893 1383.77 244.664 1346.11 247.486C1260.9 253.651 1177.63 277.825 1091.57 321.385C1049.16 342.951 1008.78 367.631 969.737 391.5C938.87 410.368 909.717 428.191 879.81 444.48C873.051 448.166 866.424 451.69 860.119 454.953C822.122 474.598 787.965 489.105 755.699 499.306C717.063 511.52 681.155 517.667 645.922 518.095C627.995 518.312 610.271 516.982 593.253 514.14C575.412 511.16 558.243 506.5 542.222 500.287C507.253 486.726 477.858 465.986 454.857 438.64C453.777 437.349 452.691 436.022 451.632 434.695C433.835 412.44 420.277 387.838 407.164 364.046C403.455 357.315 399.617 350.352 395.76 343.583C377.502 311.454 358.747 284.362 338.425 260.754C335.789 257.696 333.068 254.627 330.334 251.634C280.47 197.081 214.025 152.353 138.19 122.285C48.1613 86.7405 -45.0855 73.5899 -124.367 85.2552C-177.253 93.1723 -228.95 119.363 -256.068 151.975C-275.532 175.384 -282.496 201.71 -276.213 228.112L-276.513 228.16C-279.79 214.398 -279.538 200.691 -275.762 187.422C-272.255 175.104 -265.717 163.129 -256.323 151.831C-242.431 135.124 -222.277 119.982 -198.039 108.042C-175.115 96.7494 -149.659 88.7846 -124.422 85.006C-82.7149 78.8712 -37.4553 79.5056 10.0992 86.8965C52.9597 93.5574 96.0993 105.386 138.322 122.056C214.203 152.139 280.684 196.894 330.577 251.481C333.314 254.474 336.038 257.545 338.673 260.606C359.008 284.226 377.769 311.33 396.036 343.472C399.896 350.241 403.731 357.204 407.443 363.938C420.55 387.719 434.101 412.311 451.887 434.552C452.945 435.876 454.031 437.203 455.108 438.492C498.957 490.621 566.72 518.805 645.915 517.838C710.175 517.058 778.187 497.005 859.954 454.734C866.255 451.471 872.879 447.949 879.638 444.264C909.536 427.977 938.689 410.159 969.55 391.291C1008.6 367.419 1048.98 342.734 1091.4 321.163C1134.8 299.199 1176.29 282.575 1218.25 270.333C1260.76 257.933 1302.58 250.373 1346.08 247.226C1383.78 244.399 1432.98 243.632 1479.14 262.927C1519.46 279.854 1553.55 307.675 1586.52 334.578C1595.32 341.755 1603.62 348.532 1612.05 355.11C1697.22 421.625 1782.71 493.478 1873.41 574.778L1873.19 574.957Z" fill="#FFE492"/>
<path d="M1869.94 572.585C1780.09 490.406 1696.08 417.708 1613.11 350.339C1604.69 343.499 1596.37 336.393 1587.57 328.868C1555.55 301.497 1522.43 273.195 1482.56 256.671C1436.03 237.476 1386.97 240.635 1349.43 245.532C1269.25 255.79 1189.54 282.514 1098.58 329.634C1064.46 347.386 1031.12 366.86 998.878 385.692C959.718 408.565 922.73 430.171 884.431 448.988C877.531 452.382 870.702 455.639 864.133 458.665C825.455 476.473 790.243 489.301 756.485 497.88C737.577 502.686 718.911 506.167 701.006 508.229C681.907 510.427 663.024 511.084 644.879 510.183C608.066 508.352 573.587 500.342 542.404 486.376C508.726 471.292 480.065 449.708 457.217 422.219C456.143 420.918 455.066 419.588 454.014 418.269C436.597 396.341 422.797 372.323 409.454 349.098C405.413 342.067 401.238 334.797 397.037 327.723C378.043 295.647 358.88 268.784 338.453 245.597C335.781 242.564 333.02 239.523 330.253 236.56C279.74 182.515 212.796 138.426 136.66 109.061C46.0299 74.2439 -47.4715 61.9593 -126.621 74.4679C-211.369 88.0692 -293.951 146.837 -279.593 218.065L-279.896 218.105C-283.489 200.287 -281.384 182.734 -273.644 165.928C-266.575 150.58 -254.975 136.135 -239.165 123C-224.466 110.786 -206.831 100.241 -186.754 91.6564C-167.659 83.4926 -146.885 77.4611 -126.682 74.2187C-85.0242 67.6359 -39.7155 67.8247 7.98322 74.7826C50.948 81.0483 94.2839 92.5047 136.788 108.835C212.968 138.22 279.952 182.334 330.495 236.409C333.265 239.374 336.027 242.415 338.702 245.451C359.138 268.648 378.31 295.526 397.314 327.615C401.514 334.688 405.689 341.958 409.73 348.992C423.07 372.209 436.864 396.217 454.272 418.133C455.321 419.452 456.395 420.782 457.469 422.081C501.381 474.91 567.945 506.107 644.898 509.933C710.044 513.168 781.708 496.33 863.983 458.449C870.549 455.423 877.375 452.168 884.275 448.775C922.564 429.962 959.546 408.359 998.7 385.488C1030.95 366.654 1064.29 347.177 1098.41 329.422C1189.42 282.282 1269.16 255.548 1349.38 245.282C1374.6 241.992 1395.49 240.94 1415.11 241.975C1440.19 243.296 1462.3 248.029 1482.69 256.444C1522.61 272.986 1555.75 301.306 1587.79 328.692C1596.59 336.214 1604.91 343.32 1613.33 350.157C1696.3 417.532 1780.31 490.233 1870.16 572.416L1869.94 572.585Z" fill="#FFE492"/>
<path d="M1866.69 570.214C1777.69 487.139 1695.16 413.595 1614.4 345.375C1606.04 338.316 1597.78 330.923 1589.03 323.091C1557.88 295.196 1525.66 266.35 1486.11 250.181C1438.57 230.825 1387.23 237.141 1352.75 243.576C1259.16 260.825 1175.29 300.926 1105.59 337.883C1080.54 351.22 1055.56 365.347 1031.39 379.009C982.911 406.415 937.123 432.301 889.06 453.497C881.991 456.616 874.959 459.604 868.154 462.381C828.721 478.439 792.453 489.586 757.282 496.453C717.409 504.239 679.246 506.198 643.844 502.271C607.476 498.235 573.408 488.206 542.593 472.46C510.271 455.946 482.343 433.519 459.578 405.801C458.516 404.499 457.446 403.168 456.399 401.844C439.415 380.318 425.443 356.959 411.928 334.369C407.501 326.965 402.921 319.312 398.319 311.864C378.3 279.385 359.287 253.514 338.489 230.44C335.78 227.434 332.985 224.424 330.177 221.486C279.012 167.955 211.564 124.505 135.127 95.8352C43.8962 61.7478 -49.8629 50.3266 -128.877 63.6786C-213.929 78.2415 -294.824 136.211 -282.975 208.018L-283.279 208.051C-286.218 190.236 -283.675 172.7 -275.722 155.932C-268.433 140.568 -256.765 126.109 -241.038 112.958C-226.373 100.694 -208.83 90.0705 -188.894 81.3781C-169.912 73.101 -149.178 66.8958 -128.938 63.4294C-87.3267 56.3985 -41.972 56.1417 5.86789 62.6641C48.937 68.5346 92.4693 79.6185 135.256 95.6061C211.739 124.291 279.224 167.766 330.414 221.33C333.221 224.27 336.019 227.283 338.731 230.289C359.542 253.373 378.56 279.259 398.588 311.75C403.191 319.199 407.771 326.854 412.198 334.258C425.71 356.841 439.679 380.192 456.651 401.708C457.697 403.032 458.765 404.361 459.826 405.663C504.08 459.544 569.444 493.765 643.881 502.021C710.641 509.427 783.955 496.385 868.016 462.154C874.818 459.38 881.85 456.395 888.912 453.276C936.964 432.085 982.745 406.204 1031.21 378.8C1055.38 365.138 1080.37 351.008 1105.42 337.669C1152.29 312.82 1191.28 294.461 1228.11 279.893C1271.48 262.745 1312.22 250.785 1352.68 243.329C1377.34 238.727 1398.83 236.643 1418.39 236.96C1443.57 237.368 1465.77 241.617 1486.25 249.955C1525.85 266.144 1558.08 295.008 1589.26 322.92C1598 330.749 1606.26 338.142 1614.61 345.196C1695.39 413.418 1777.91 486.968 1866.92 570.045L1866.69 570.214Z" fill="#FFE492"/>
<path d="M1863.43 567.84C1775.29 483.866 1694.25 409.473 1615.67 340.408C1607.43 333.165 1599.28 325.515 1590.64 317.414C1560.31 288.958 1528.95 259.533 1489.67 243.691C1441.6 224.381 1390.4 233.259 1356.07 241.619C1271.27 262.088 1195.64 301.061 1112.61 346.129C1097.63 354.288 1082.48 362.709 1067.83 370.855C1011.49 402.181 953.236 434.571 893.683 458.003C886.448 460.852 879.208 463.574 872.166 466.091C832.466 480.269 794.079 490.001 758.069 495.018C717.277 500.702 678.497 500.478 642.797 494.356C606.938 488.206 573.285 476.155 542.77 458.539C511.89 440.711 484.689 417.443 461.924 389.383C460.872 388.079 459.811 386.744 458.771 385.42C442.298 364.398 428.237 341.8 414.64 319.947C409.74 312.072 404.675 303.931 399.585 296.009C378.784 263.563 359.375 237.914 338.507 215.288C335.767 212.318 332.932 209.332 330.085 206.417C278.281 153.389 210.337 110.579 133.593 82.6088C41.7634 49.2515 -52.2503 38.6962 -131.136 52.889C-213.488 67.8672 -295.877 123.803 -286.363 197.969L-286.666 197.994C-288.952 180.179 -285.97 162.663 -277.806 145.933C-270.299 130.552 -258.56 116.079 -242.919 102.914C-214.061 78.6264 -173.343 60.3026 -131.203 52.6398C-89.6404 45.1633 -44.2366 44.4584 3.74741 50.5454C46.9208 56.0231 90.6464 66.7319 133.715 82.3772C210.502 110.363 278.487 153.2 330.324 206.253C333.174 209.171 336.009 212.156 338.752 215.129C359.63 237.768 379.048 263.427 399.855 295.886C404.945 303.81 410.013 311.951 414.913 319.826C428.507 341.674 442.565 364.267 459.028 385.279C460.065 386.603 461.127 387.935 462.179 389.239C507.724 445.381 570.202 481.643 642.856 494.107C710.131 505.646 787.237 496.143 872.038 465.859C879.076 463.342 886.31 460.623 893.541 457.776C953.074 434.352 1011.32 401.967 1067.65 370.646C1082.3 362.5 1097.45 354.079 1112.43 345.921C1148.77 326.192 1191.07 303.564 1233.04 284.671C1276.95 264.91 1317.16 250.75 1355.97 241.38C1380.4 235.432 1401.9 232.345 1421.67 231.948C1446.6 231.444 1469.52 235.321 1489.8 243.467C1507.39 250.564 1525.1 261.154 1543.93 275.845C1560.57 288.817 1575.97 303.272 1590.87 317.248C1599.5 325.346 1607.65 332.996 1615.89 340.236C1694.47 409.305 1775.52 483.7 1863.66 567.676L1863.43 567.84Z" fill="#FFE492"/>
<path d="M1860.18 565.468C1772.9 480.589 1693.34 405.348 1616.95 335.446C1608.86 328.045 1600.85 320.163 1592.36 311.821C1562.82 282.773 1532.28 252.736 1493.22 237.207C1456.73 222.739 1412.95 223.545 1359.38 239.669C1284.48 262.086 1217.53 299.581 1146.65 339.282C1137.82 344.226 1128.7 349.337 1119.62 354.384C1116.06 356.365 1112.5 358.351 1108.94 360.335C1041.4 398.017 971.567 436.983 898.306 462.514C890.9 465.097 883.457 467.551 876.182 469.807C835.611 482.376 796.14 490.376 758.87 493.583C717.135 497.173 677.733 494.771 641.763 486.444C606.462 478.27 573.223 464.198 542.969 444.618C513.645 425.64 487.174 401.534 464.29 372.965C463.246 371.658 462.194 370.321 461.16 368.995C445.314 348.632 431.299 326.945 417.741 305.973C412.253 297.479 406.574 288.696 400.87 280.147C379.265 247.724 359.464 222.296 338.546 200.129C335.766 197.183 332.898 194.228 330.014 191.341C277.554 138.826 209.106 96.6531 132.061 69.3827C39.6368 36.7579 -54.6377 27.0662 -133.391 42.0997C-214.231 57.6595 -296.503 114.053 -289.744 187.922L-290.051 187.942C-291.68 170.124 -288.262 152.629 -279.887 135.941C-272.158 120.543 -260.352 106.053 -244.794 92.8771C-216.059 68.5394 -175.481 49.9438 -133.462 41.8556C-91.945 33.931 -46.4952 32.778 1.63 38.432C44.9077 43.512 88.8327 53.8482 132.184 69.1511C209.271 96.4392 277.762 138.635 330.244 191.177C333.128 194.064 336.003 197.025 338.782 199.97C359.709 222.15 379.523 247.586 401.134 280.022C406.841 288.57 412.516 297.356 418.008 305.85C431.56 326.817 445.575 348.498 461.415 368.854C462.449 370.18 463.498 371.514 464.541 372.821C511.074 430.911 572.382 470.114 641.843 486.195C710.41 502.069 789.216 496.473 876.072 469.565C883.34 467.31 890.78 464.858 898.183 462.277C971.42 436.757 1041.25 397.798 1108.77 360.121C1112.33 358.135 1115.88 356.151 1119.44 354.17C1128.52 349.123 1137.65 344.013 1146.47 339.071C1217.37 299.362 1284.34 261.856 1359.27 239.429C1383.47 232.144 1404.96 228.059 1424.95 226.933C1449.98 225.526 1472.99 228.907 1493.35 236.978C1510.84 243.933 1528.33 254.571 1546.82 269.502C1563.12 282.675 1578.11 297.409 1592.6 311.657C1601.08 319.997 1609.09 327.876 1617.18 335.275C1693.58 405.179 1773.14 480.422 1860.41 565.305L1860.18 565.468Z" fill="#FFE492"/>
<path d="M1856.93 563.097C1777.27 484.002 1696.96 405.738 1618.23 330.482C1610.21 322.865 1602.27 314.681 1593.86 306.019C1566.51 277.839 1535.51 245.902 1496.78 230.72C1459.85 216.278 1416 218.566 1362.69 237.713C1299.31 260.404 1243.23 293.769 1183.85 329.093C1165.25 340.154 1146.02 351.595 1126.62 362.631C1092.77 381.937 1056.14 402.365 1017.75 420.971C976.639 440.898 939.078 455.959 902.921 467.02C895.324 469.344 887.679 471.532 880.19 473.518C838.759 484.501 798.215 490.751 759.683 492.096C717.029 493.581 677.003 489.02 640.714 478.527C573.702 458.912 515.134 417.872 466.637 356.544C465.603 355.235 464.56 353.896 463.532 352.569C448.49 333.105 434.72 312.571 421.405 292.712C415.137 283.365 408.657 273.698 402.138 264.291C379.711 231.875 359.511 206.672 338.568 184.975C335.749 182.054 332.843 179.127 329.926 176.27C276.827 124.261 207.876 82.73 130.531 56.1569C37.5082 24.2622 -57.021 15.4389 -135.646 31.3107C-216.976 47.822 -297.187 103.468 -293.128 177.876L-293.434 177.886C-294.407 160.063 -290.547 142.587 -281.966 125.943C-274.014 110.524 -262.141 96.0191 -246.672 82.8332C-232.098 70.4101 -214.825 59.5478 -195.334 50.5458C-176.41 41.8081 -156.355 35.2529 -135.722 31.064C-94.2516 22.6939 -48.7527 21.0928 -0.486328 26.3113C42.8957 31.0011 87.014 40.9622 130.648 55.9228C208.039 82.511 277.03 124.067 330.159 176.101C333.076 178.961 335.988 181.891 338.807 184.811C359.759 206.52 379.968 231.734 402.405 264.16C408.924 273.57 415.404 283.237 421.672 292.586C434.987 312.443 448.754 332.974 463.79 352.431C464.815 353.76 465.861 355.097 466.892 356.406C515.351 417.686 573.868 458.693 640.816 478.288C709.776 498.225 792.517 496.493 880.095 473.276C887.577 471.29 895.223 469.105 902.813 466.784C983.653 442.056 1057.62 401.67 1126.45 362.422C1145.84 351.386 1165.07 339.947 1183.66 328.886C1243.06 293.555 1299.16 260.183 1362.57 237.481C1415.95 218.304 1459.9 216.016 1496.9 230.491C1514.25 237.29 1531.48 247.948 1549.56 263.07C1565.51 276.405 1580.04 291.38 1594.1 305.86C1602.51 314.522 1610.45 322.704 1618.46 330.316C1697.2 405.575 1777.51 483.839 1857.16 562.936L1856.93 563.097Z" fill="#FFE492"/>
<path d="M1853.67 560.726C1775.24 481.193 1696.45 402.058 1619.51 325.518C1611.74 317.818 1604.04 309.49 1595.88 300.674C1569.2 271.838 1538.96 239.153 1500.33 224.228C1462.97 209.811 1419.03 213.582 1366.01 235.752C1310.45 258.947 1259.41 291.698 1210.06 323.373C1185.31 339.255 1159.71 355.678 1133.63 370.876C1092.47 394.886 1057.84 413.202 1024.64 428.52C983.705 447.408 945.401 461.475 907.544 471.524C899.773 473.588 891.919 475.507 884.203 477.226C843.999 486.18 804.52 490.711 766.752 490.714C764.653 490.714 762.567 490.699 760.481 490.671C716.817 490.087 676.171 483.335 639.674 470.608C622.057 464.43 604.806 456.589 588.401 447.3C572.981 438.57 557.828 428.286 543.362 416.737C517.336 395.958 493.007 370.896 468.99 340.121C467.959 338.797 466.931 337.47 465.91 336.139C451.975 317.981 438.792 299 426.044 280.644C418.684 270.048 411.075 259.09 403.411 248.424C379.815 215.563 359.826 191.316 338.593 169.81C335.736 166.918 332.794 164.018 329.839 161.188C276.097 109.696 206.646 68.8043 129 42.9285C35.3819 11.7663 -59.405 3.80899 -137.901 20.5191C-217.706 37.5565 -297.813 93.6253 -296.509 167.824L-296.816 167.827C-297.423 133.266 -280.73 100.402 -248.543 72.7893C-233.994 60.3083 -216.813 49.3679 -197.473 40.2652C-178.653 31.4092 -158.637 24.6828 -137.977 20.2724C-96.5558 11.4542 -51.0078 9.40756 -2.60034 14.1905C40.886 18.4876 85.2007 28.0762 129.113 42.6919C206.808 68.5853 276.299 109.502 330.076 161.025C333.03 163.857 335.979 166.759 338.835 169.652C360.078 191.17 380.076 215.425 403.678 248.299C411.342 258.967 418.954 269.925 426.311 280.521C439.058 298.875 452.239 317.853 466.171 336.005C467.192 337.337 468.217 338.664 469.248 339.985C520.282 405.381 576.068 448.032 639.794 470.376C728.058 501.158 821.378 490.96 884.123 476.984C891.833 475.265 899.681 473.349 907.449 471.285C994.517 448.171 1073.97 405.373 1133.46 370.672C1159.53 355.48 1185.12 339.056 1209.87 323.177C1259.24 291.496 1310.29 258.735 1365.87 235.531C1389.59 225.61 1411.07 219.518 1431.51 216.91C1456.73 213.693 1479.92 216.079 1500.46 224.004C1517.76 230.687 1534.82 241.431 1552.61 256.847C1568.28 270.431 1582.44 285.729 1596.13 300.526C1604.28 309.339 1611.98 317.664 1619.75 325.359C1696.69 401.899 1775.47 481.035 1853.91 560.568L1853.67 560.726Z" fill="#FFE492"/>
<path d="M1850.42 558.354L1620.79 320.556C1613.29 312.79 1605.84 304.339 1597.96 295.395C1571.94 265.877 1542.44 232.421 1503.88 217.743C1466.59 203.55 1421.32 208.952 1369.32 233.801C1319.33 257.688 1273.74 289.454 1229.64 320.176C1200.9 340.201 1171.18 360.907 1140.65 379.13C1048.87 433.902 968.656 466.252 888.221 480.941C854.853 487.033 821.937 490.099 790.014 490.099C780.337 490.099 770.759 489.817 761.282 489.253C716.586 486.595 675.321 477.659 638.637 462.695C604.637 448.825 573.533 429.245 543.559 402.833C519.622 381.743 496.676 356.599 471.349 323.705C457.982 306.346 445.038 288.309 432.52 270.866C404.19 231.394 374.896 190.578 338.629 154.655C283 99.5583 209.98 56.3506 127.466 29.702C33.2556 -0.725183 -61.789 -7.81906 -140.156 9.72935C-216.028 26.7189 -298.377 80.2931 -299.893 157.777L-300.2 157.772C-299.522 123.138 -282.307 90.2794 -250.418 62.7472C-221.584 37.8531 -182.455 18.9378 -140.236 9.48517C-98.8601 0.22134 -53.263 -2.27335 -4.71747 2.07411C38.8731 5.97599 83.3842 15.1945 127.579 29.4679C168.409 42.6537 207.185 60.0108 242.836 81.0583C278.784 102.282 311.094 126.987 338.862 154.489C375.145 190.424 404.448 231.251 432.784 270.733C445.302 288.173 458.246 306.207 471.61 323.564C508.561 371.56 560.957 430.72 638.775 462.464C728.018 498.867 823.645 492.468 888.154 480.689C968.549 466.011 1048.72 433.673 1140.47 378.921C1170.99 360.705 1200.71 340 1229.45 319.98C1273.55 289.253 1319.15 257.479 1369.17 233.579C1421.26 208.688 1466.63 203.28 1504.01 217.511C1521.28 224.084 1538.18 234.921 1555.68 250.647C1571.09 264.49 1584.88 280.125 1598.2 295.244C1606.09 304.188 1613.54 312.634 1621.03 320.397L1850.66 558.196L1850.42 558.354Z" fill="#FFE492"/>
<path d="M1848.57 540.073C1790.1 473.862 1739.93 420.134 1690.68 370.993C1666.78 347.121 1642.37 323.624 1618.12 301.154C1610.79 294.357 1603.53 287.128 1595.84 279.472C1576.51 260.232 1556.52 240.338 1533.52 225.574C1521.17 217.631 1509.28 211.945 1497.17 208.189C1460.01 196.546 1416.41 204.244 1367.58 231.071C1342.31 244.934 1319.3 260.711 1300.12 274.314C1279.82 288.716 1259.8 304.598 1240.43 319.956C1212.59 342.033 1183.81 364.861 1152.86 384.466C1134.03 396.431 1114.95 407.122 1096.13 416.245C1058.49 434.495 1018.08 449.534 976.037 460.943C950.06 467.913 923.957 473.182 898.459 476.601C876.483 479.536 854.466 481.23 833.018 481.635C800.917 482.245 769.641 479.921 740.059 474.723C708.606 469.195 678.84 460.371 651.59 448.494C627.291 437.904 604.339 424.57 581.424 407.726C538.723 376.365 504.665 340.103 479.764 312.014C467.532 298.151 455.588 284.014 444.037 270.342C410.777 230.968 379.36 193.779 340.046 160.654C307.982 133.814 271.399 110.652 231.303 91.8068C200.49 77.3246 166.978 65.4805 131.699 56.6018C123.296 54.4897 114.733 52.5212 106.256 50.7565C69.7585 43.1717 28.6714 38.2327 -15.8611 36.0753C-60.7587 33.85 -99.6031 35.7758 -134.606 41.9685C-154.395 45.4424 -173.567 50.8924 -191.598 58.1651C-255.254 83.842 -296.129 126.946 -300.94 173.472L-301.323 173.444C-300.041 161.041 -296.276 148.825 -290.137 137.129C-284.305 126.02 -276.294 115.306 -266.329 105.285C-247.501 86.3543 -221.717 69.9613 -191.767 57.8806C-173.708 50.5954 -154.506 45.1378 -134.686 41.6588C-99.6461 35.4611 -60.771 33.5328 -15.8366 35.7607C28.7205 37.918 69.829 42.8621 106.351 50.4519C114.837 52.2191 123.403 54.1876 131.813 56.3022C167.119 65.1859 200.659 77.0401 231.496 91.535C271.62 110.392 308.234 133.575 340.313 160.432C379.651 193.578 411.074 230.777 444.347 270.161C455.895 283.832 467.839 297.967 480.068 311.828C504.956 339.904 538.999 376.148 581.675 407.489C604.566 424.315 627.493 437.637 651.764 448.215C705.096 471.458 766.073 482.597 833.005 481.321C854.436 480.915 876.437 479.221 898.395 476.288C923.875 472.87 949.959 467.606 975.915 460.641C1017.93 449.24 1058.32 434.211 1095.94 415.97C1114.74 406.855 1133.81 396.169 1152.63 384.214C1183.55 364.619 1212.33 341.797 1240.16 319.727C1259.53 304.366 1279.56 288.479 1299.87 274.073C1319.05 260.461 1342.08 244.68 1367.36 230.807C1389.11 218.862 1410.15 210.61 1429.93 206.278C1454.23 200.956 1476.9 201.5 1497.31 207.894C1509.45 211.663 1521.37 217.364 1533.75 225.324C1556.79 240.111 1576.79 260.018 1596.13 279.271C1603.82 286.924 1611.09 294.154 1618.41 300.945C1642.66 323.418 1667.08 346.917 1690.98 370.794C1740.23 419.94 1790.4 473.673 1848.88 539.889L1848.57 540.073Z" fill="#FFE492"/>
<path d="M1846.72 521.788C1792.51 454.456 1741.62 398.113 1691.16 349.541C1666.55 325.815 1641.09 303.008 1615.47 281.754C1608.67 276.115 1601.96 270.255 1594.85 264.052C1573.57 245.476 1551.57 226.269 1526.92 212.98C1514.48 206.241 1502.56 201.549 1490.46 198.634C1444.17 187.467 1397.14 208.622 1365.84 228.336C1343.66 242.262 1323.4 258.008 1302.89 274.262C1284.93 288.49 1268.04 303.796 1250.15 319.997C1223.6 344.048 1196.15 368.917 1165.08 389.798C1146.65 402.257 1127.41 413.028 1107.9 421.814C1071.56 438.182 1031.76 450.892 986.236 460.674C960.759 466.147 934.669 470.046 908.689 472.259C886.767 474.104 864.886 474.764 843.649 474.212C812.055 473.402 781.172 469.757 751.854 463.38C721.063 456.682 691.684 446.894 664.534 434.29C640.748 423.249 617.781 409.549 594.319 392.411C551.711 361.33 515.21 326.872 488.175 300.324C478.167 290.497 468.318 280.608 458.792 271.043C420.856 232.95 385.024 196.967 341.464 166.653C308.909 143.997 272.36 124.84 232.838 109.716C202.933 98.2721 171.238 89.698 135.943 83.5028C127.797 82.0755 119.511 80.7891 111.316 79.679C75.3217 74.828 36.9068 72.9929 -9.57086 71.0948C-43.0738 69.6574 -86.9313 68.7109 -129.065 74.2037C-149.019 76.7563 -168.308 81.1894 -186.4 87.3745C-250.099 109.157 -293.309 147.209 -301.991 189.168L-302.445 189.105C-300.144 177.979 -295.481 167.066 -288.593 156.667C-282.028 146.759 -273.4 137.258 -262.954 128.422C-243.1 111.637 -216.691 97.3205 -186.578 87.0246C-168.452 80.8269 -149.127 76.3863 -129.138 73.8287C-86.9651 68.3283 -43.0738 69.2773 -9.54938 70.7147C36.9436 72.6128 75.3707 74.4479 111.389 79.3014C119.59 80.414 127.883 81.7004 136.038 83.1277C171.366 89.3305 203.093 97.9121 233.031 109.369C272.593 124.508 309.173 143.68 341.762 166.359C385.353 196.695 421.2 232.688 459.148 270.796C468.671 280.359 478.52 290.247 488.527 300.073C515.557 326.61 552.042 361.055 594.626 392.122C618.06 409.242 641.003 422.927 664.761 433.955C718.145 458.738 778.34 472.153 843.665 473.83C864.883 474.379 886.743 473.722 908.643 471.876C934.598 469.666 960.667 465.772 986.12 460.302C1031.61 450.529 1071.37 437.829 1107.68 421.477C1127.16 412.701 1146.38 401.944 1164.79 389.499C1195.83 368.635 1223.27 343.776 1249.81 319.738C1267.7 303.529 1284.6 288.221 1302.57 273.985C1323.1 257.721 1343.36 241.97 1365.56 228.029C1385.85 215.248 1405.87 206.055 1425.05 200.698C1448.32 194.203 1470.37 193.385 1490.6 198.264C1502.73 201.191 1514.7 205.899 1527.18 212.658C1551.87 225.972 1573.89 245.197 1595.19 263.788C1602.29 269.988 1609 275.846 1615.8 281.482C1641.43 302.743 1666.9 325.558 1691.52 349.292C1741.99 397.876 1792.88 454.23 1847.11 521.576L1846.72 521.788Z" fill="#FFE492"/>
<path d="M1844.87 503.502C1794.13 434.137 1744.01 376.759 1691.64 328.091C1666.32 304.511 1639.8 282.396 1612.81 262.356C1607.04 258.071 1601.1 253.525 1595.35 249.13C1571.64 230.97 1547.11 212.193 1520.33 200.389C1507.76 194.81 1495.8 191.11 1483.76 189.078C1437.57 181.277 1393.19 204.633 1364.1 225.598C1344.38 239.75 1326.36 255.791 1308.92 271.305L1305.66 274.21C1289.83 288.284 1274.98 303.721 1259.26 320.066C1234.23 346.093 1208.35 373.003 1177.3 395.131C1159.23 408.1 1139.84 418.952 1119.66 427.385C1084.47 442.089 1045.31 452.582 996.425 460.405C971.148 464.451 945.069 466.978 918.911 467.915C897.046 468.667 875.299 468.29 854.271 466.787C790.609 462.258 731.126 446.545 677.473 420.085C654.278 408.646 631.296 394.587 607.215 377.096C566.462 347.56 530.216 317.201 496.587 288.637C492.077 284.808 487.617 281.004 483.189 277.231C437.258 238.089 393.876 201.116 342.891 172.66C309.606 154.082 273.093 138.933 234.372 127.63C205.943 119.333 175.134 113.699 140.189 110.406C132.314 109.669 124.303 109.062 116.378 108.604C96.4423 107.471 75.2974 107.287 52.9099 107.094C34.9282 106.937 16.3359 106.776 -3.28415 106.119C-41.1774 104.742 -84.1238 103.184 -123.53 106.447C-143.861 108.131 -163.267 111.544 -181.209 116.594C-244.883 134.517 -290.431 167.522 -303.049 204.882L-303.568 204.764C-300.242 194.914 -294.683 185.305 -287.047 176.205C-279.745 167.502 -270.504 159.21 -259.582 151.56C-238.691 136.929 -211.65 124.695 -181.387 116.176C-163.405 111.114 -143.96 107.693 -123.588 106.006C-84.1422 102.741 -41.1744 104.302 -3.26575 105.679C16.342 106.333 34.9344 106.497 52.9099 106.653C75.3066 106.847 96.4576 107.031 116.412 108.166C124.343 108.627 132.363 109.233 140.245 109.971C175.232 113.266 206.078 118.907 234.547 127.217C273.314 138.533 309.867 153.7 343.189 172.298C394.219 200.779 437.623 237.769 483.573 276.929C488 280.702 492.464 284.503 496.971 288.335C530.594 316.894 566.827 347.246 607.567 376.772C631.624 394.242 654.582 408.289 677.749 419.713C731.332 446.14 790.738 461.83 854.317 466.354C875.321 467.854 897.045 468.232 918.887 467.479C945.017 466.543 971.071 464.018 996.321 459.978C1045.15 452.161 1084.27 441.681 1119.41 426.998C1139.55 418.582 1158.91 407.75 1176.94 394.803C1207.95 372.704 1233.82 345.808 1258.84 319.797C1274.56 303.444 1289.42 288 1305.26 273.915L1308.52 271.01C1325.97 255.489 1344 239.438 1363.74 225.27C1392.92 204.238 1437.46 180.814 1483.87 188.65C1495.96 190.692 1507.97 194.405 1520.58 200.006C1547.42 211.835 1571.97 230.632 1595.72 248.812C1601.46 253.208 1607.4 257.754 1613.16 262.036C1640.17 282.087 1666.7 304.214 1692.04 327.807C1744.43 376.495 1794.56 433.893 1845.32 503.281L1844.87 503.502Z" fill="#FFE492"/>
<path d="M1843.01 485.214C1796.43 414.801 1745.66 354.719 1692.12 306.643C1666.09 283.212 1638.52 261.787 1610.15 242.962C1606.06 240.243 1601.86 237.421 1597.81 234.692C1571 216.666 1543.28 198.022 1513.76 187.802C1501.08 183.369 1489.09 180.663 1477.08 179.525C1431.01 175.165 1389.27 200.683 1362.36 222.858C1345.66 236.558 1330.58 251.793 1316 266.527C1313.48 269.077 1310.95 271.622 1308.43 274.157C1294.56 288.083 1281.59 303.64 1267.86 320.108C1244.52 348.106 1220.38 377.056 1189.52 400.467C1171.39 414.214 1152.39 424.843 1131.42 432.964C1087.55 449.948 1043.71 456.234 1006.61 460.146C981.523 462.789 955.457 463.947 929.134 463.579C907.335 463.24 885.721 461.822 864.895 459.37C803.145 452.118 744.441 434.124 690.416 405.887C667.937 394.141 644.942 379.717 620.112 361.791C595.031 343.726 571.659 326.344 549.053 309.533C533.692 298.107 519.18 287.315 505.009 276.961C451.441 237.821 402.374 203.409 344.33 178.674C310.33 164.187 273.854 153.04 235.915 145.546C208.723 140.174 179.656 137.558 144.444 137.309C136.848 137.264 129.11 137.337 121.449 137.528C109.812 137.838 97.7733 138.484 85.0317 139.172C60.5795 140.488 32.8598 141.981 3.00171 141.145C-8.36841 140.826 -19.9687 140.375 -31.1884 139.937C-60.0464 138.812 -89.8861 137.649 -117.998 138.688C-138.643 139.454 -158.168 141.85 -176.024 145.812C-239.591 159.922 -287.474 187.882 -304.115 220.605L-304.682 220.411C-300.326 211.842 -293.87 203.54 -285.498 195.734C-277.456 188.237 -267.602 181.156 -256.213 174.689C-234.268 162.228 -206.597 152.076 -176.19 145.327C-158.291 141.354 -138.723 138.95 -118.032 138.185C-89.8891 137.143 -60.0372 138.308 -31.1639 139.434C-19.9472 139.872 -8.34695 140.322 3.02011 140.642C32.8506 141.478 60.5488 139.987 84.9888 138.671C97.7365 137.984 109.778 137.337 121.428 137.027C129.098 136.836 136.842 136.763 144.447 136.808C179.708 137.055 208.818 139.678 236.056 145.057C274.041 152.561 310.566 163.721 344.609 178.228C370.828 189.4 397.397 203.555 425.835 221.499C451.294 237.562 476.059 255.138 505.414 276.586C519.585 286.942 534.097 297.734 549.461 309.16C572.064 325.969 595.436 343.351 620.511 361.413C645.316 379.321 668.286 393.731 690.738 405.464C744.69 433.663 803.311 451.632 864.975 458.875C885.776 461.324 907.363 462.739 929.137 463.079C955.43 463.446 981.468 462.291 1006.53 459.647C1043.58 455.743 1087.36 449.465 1131.15 432.51C1152.06 424.412 1171.02 413.812 1189.09 400.1C1219.91 376.729 1244.02 347.802 1267.35 319.826C1281.09 303.348 1294.06 287.783 1307.95 273.842C1310.47 271.307 1312.99 268.762 1315.51 266.215C1330.1 251.47 1345.19 236.225 1361.92 222.508C1379.42 208.082 1397.38 196.983 1415.29 189.521C1436.51 180.683 1457.31 177.153 1477.13 179.031C1489.2 180.174 1501.26 182.893 1513.98 187.344C1543.59 197.592 1571.34 216.258 1598.18 234.307C1602.24 237.036 1606.43 239.858 1610.53 242.574C1638.91 261.414 1666.51 282.859 1692.56 306.308C1720.99 331.837 1748.83 360.922 1775.31 392.757C1798.71 420.893 1821.66 451.922 1843.54 484.977L1843.01 485.214Z" fill="#FFE492"/>
<path d="M1841.16 466.92C1798.05 394.488 1748.07 333.347 1692.61 285.193C1665.86 261.91 1637.23 241.177 1607.51 223.565C1606.09 222.727 1604.68 221.889 1603.26 221.048C1572.35 202.712 1540.39 183.751 1507.19 175.215C1494.33 171.907 1482.29 170.193 1470.4 169.971C1424.51 169.12 1385.38 196.771 1360.64 220.114C1346.08 233.771 1333.15 248.739 1320.66 263.214C1317.57 266.793 1314.37 270.494 1311.21 274.099C1299.2 287.828 1288.03 303.438 1276.2 319.967C1254.69 350.032 1232.45 381.119 1201.75 405.799C1183.98 420.077 1164.83 430.786 1143.18 438.539C1100.54 453.812 1057.24 457.822 1016.8 459.881C991.869 461.15 965.813 460.934 939.357 459.239C917.629 457.804 896.153 455.35 875.52 451.947C815.872 442.129 757.947 421.854 703.364 391.684C681.504 379.603 659.15 365.239 633.02 346.48C583.358 310.925 546.48 285.882 513.45 265.283C447.754 224.313 397.613 200.21 345.797 184.688C311.107 174.296 274.668 167.154 237.486 163.459C211.69 160.896 184.314 161.125 148.725 164.209C141.432 164.848 133.971 165.601 126.546 166.449C119.533 167.263 112.409 168.194 104.864 169.178C77.0096 172.816 45.4364 176.939 9.30115 176.169C-9.74521 175.764 -29.1996 174.653 -48.0128 173.581C-69.3939 172.363 -91.5022 171.101 -112.463 170.93C-133.479 170.759 -153.124 172.139 -170.835 175.034C-234.19 185.382 -284.414 208.303 -305.181 236.344L-305.771 236.049C-300.377 228.764 -293.026 221.768 -283.923 215.256C-275.136 208.967 -264.674 203.099 -252.825 197.811C-229.809 187.535 -201.503 179.464 -170.97 174.477C-153.21 171.577 -133.522 170.193 -112.457 170.364C-91.4776 170.535 -69.3571 171.796 -47.9668 173.017C-29.1597 174.09 -9.71454 175.2 9.31647 175.605C45.3873 176.373 76.9267 172.254 104.751 168.622C112.298 167.635 119.428 166.706 126.445 165.891C133.879 165.042 141.346 164.29 148.645 163.648C184.289 160.561 211.712 160.33 237.563 162.9C274.796 166.6 311.288 173.752 346.027 184.159C397.914 199.701 448.107 223.83 513.861 264.835C546.903 285.442 583.793 310.492 633.468 346.057C659.58 364.801 681.909 379.15 703.744 391.218C758.254 421.346 816.093 441.593 875.652 451.395C896.257 454.794 917.709 457.243 939.406 458.678C965.831 460.37 991.854 460.586 1016.76 459.32C1057.13 457.263 1100.36 453.263 1142.9 438.026C1164.47 430.302 1183.56 419.629 1201.26 405.401C1231.9 380.774 1254.12 349.72 1275.6 319.688C1287.43 303.149 1298.61 287.526 1310.65 273.776C1313.8 270.174 1317 266.474 1320.09 262.894C1332.6 248.407 1345.53 233.428 1360.12 219.749C1376.26 204.514 1393.19 192.464 1410.43 183.93C1430.63 173.933 1450.81 169.052 1470.41 169.412C1482.37 169.634 1494.47 171.358 1507.39 174.681C1540.7 183.248 1572.71 202.233 1603.66 220.598C1605.08 221.438 1606.5 222.279 1607.91 223.115C1637.67 240.746 1666.33 261.504 1693.11 284.812C1748.61 333.01 1798.63 394.199 1841.78 466.681L1841.16 466.92Z" fill="#FFE492"/>
<path d="M1032.07 459.62C1030.35 459.62 1028.65 459.617 1026.98 459.61C1002.18 459.524 976.13 457.938 949.57 454.892C927.922 452.362 906.581 448.871 886.139 444.518C856.931 438.311 827.619 429.389 799.009 418.003C771.382 407.007 743.558 393.373 716.308 377.476C689.606 361.902 664.666 344.547 645.921 331.167C602.06 299.947 560.329 273.852 521.886 253.605C459.624 220.814 404.138 200.824 347.266 190.697C312.956 184.587 276.146 181.365 240.704 181.365C240.155 181.365 239.609 181.365 239.06 181.368C208.613 181.453 179.706 186.095 153.008 191.1C146.058 192.411 138.87 193.844 131.642 195.362C127.681 196.202 123.714 197.068 119.517 197.985C89.9134 204.457 56.3583 211.79 15.5934 211.188C-9.23312 210.821 -34.5905 208.711 -59.1132 206.669C-74.9473 205.35 -91.3184 203.989 -106.935 203.165C-128.402 202.035 -148.157 202.398 -165.657 204.248C-228.674 210.904 -281.239 228.787 -306.271 252.087L-306.848 251.672C-294.008 239.722 -274.695 229.376 -249.445 220.918C-225.33 212.842 -196.389 206.861 -165.755 203.626C-148.209 201.773 -128.402 201.406 -106.886 202.541C-91.2539 203.364 -74.8737 204.729 -59.0335 206.048C-34.526 208.089 -9.18405 210.199 15.6087 210.564C56.2693 211.165 89.7661 203.843 119.32 197.383C123.521 196.464 127.488 195.598 131.452 194.757C138.686 193.239 145.88 191.805 152.836 190.493C179.58 185.481 208.536 180.831 239.057 180.743C275.063 180.64 312.533 183.872 347.429 190.088C376.781 195.316 405.237 203.012 434.417 213.615C462.52 223.828 491.267 236.737 522.297 253.082C560.771 273.344 602.533 299.459 646.421 330.699C665.151 344.071 690.073 361.413 716.746 376.97C772.041 409.228 829.098 431.75 886.329 443.917C906.743 448.264 928.057 451.751 949.674 454.278C976.201 457.319 1002.21 458.905 1026.98 458.988C1065.74 459.119 1110.75 458.047 1154.65 443.534C1176.87 436.188 1196.09 425.447 1213.41 410.698C1243.84 384.794 1264.01 351.548 1283.52 319.394C1293.55 302.855 1303.03 287.232 1313.34 273.709C1316.64 269.377 1319.97 264.913 1323.19 260.596C1334.08 246.011 1345.33 230.932 1358.3 216.993C1373.12 200.958 1389.02 187.95 1405.56 178.334C1424.73 167.185 1444.28 160.947 1463.66 159.794C1475.63 159.082 1487.77 159.809 1500.78 162.019C1535.58 167.925 1570.06 185.083 1605.27 203.654C1635.97 219.845 1666.53 240.475 1693.63 263.315C1723.74 288.612 1752.03 318.289 1777.71 351.52C1800.59 381.127 1821.55 413.716 1840.01 448.385L1839.3 448.637C1799.67 374.184 1750.48 311.98 1693.08 263.755C1666.02 240.948 1635.51 220.349 1604.86 204.185C1569.71 185.647 1535.29 168.522 1500.63 162.636C1487.68 160.438 1475.61 159.716 1463.72 160.423C1428.11 162.545 1390.89 182.77 1358.91 217.376C1345.97 231.289 1334.72 246.355 1323.85 260.926C1320.62 265.246 1317.29 269.711 1313.99 274.044C1303.7 287.542 1294.23 303.152 1284.21 319.676C1274.63 335.452 1264.74 351.767 1253.38 367.45C1240.5 385.23 1227.61 399.518 1213.97 411.136C1196.57 425.95 1177.26 436.74 1154.94 444.121C1135.25 450.63 1114.09 454.933 1090.25 457.279C1070.06 459.255 1049.78 459.62 1032.07 459.62Z" fill="#FFE492"/>
<path d="M1081.27 460.88C1065.62 460.88 1050.6 460.115 1037.15 459.339C1012.43 457.915 986.399 454.957 959.774 450.546C938.218 446.924 917.012 442.398 896.745 437.089C841.247 422.581 786.455 398.432 729.239 363.268C704.287 347.934 680.764 331.436 658.816 315.853C615.483 285.179 572.254 260.308 530.323 241.926C468.656 214.893 410.959 200.521 348.745 196.7C313.297 194.522 275.916 195.411 240.64 199.268C211.113 202.495 183.277 210.283 157.29 217.981C150.789 219.917 143.874 222.032 136.741 224.265C134.958 224.826 133.16 225.398 131.338 225.974C101.409 235.469 67.5444 246.213 24.0826 246.213C23.3494 246.213 22.6192 246.211 21.8798 246.203C-7.52423 245.959 -37.545 242.515 -66.5808 239.183C-78.0921 237.861 -89.996 236.497 -101.418 235.391C-123.729 233.237 -143.052 232.6 -160.493 233.451C-223.931 236.547 -277.477 249.073 -307.397 267.825L-307.909 267.274C-293.118 258.005 -271.731 249.957 -246.067 244.001C-220.823 238.143 -191.25 234.256 -160.545 232.758C-143.055 231.905 -123.683 232.542 -101.323 234.702C-89.8886 235.807 -77.9816 237.174 -66.4673 238.493C-37.459 241.821 -7.46594 245.262 21.8829 245.506C66.2497 245.879 100.667 234.956 131.028 225.322C132.847 224.746 134.648 224.174 136.431 223.61C143.57 221.375 150.489 219.26 156.996 217.324C183.025 209.611 210.914 201.813 240.52 198.575C275.852 194.714 313.294 193.822 348.8 196.002C379.631 197.896 409.026 202.366 438.663 209.667C469.187 217.186 499.296 227.535 530.713 241.31C572.696 259.717 615.98 284.618 659.359 315.322C681.298 330.899 704.806 347.388 729.736 362.706C786.875 397.823 841.585 421.937 896.993 436.422C917.23 441.721 938.408 446.242 959.934 449.859C986.521 454.264 1012.52 457.22 1037.2 458.64C1078.74 461.031 1122.92 462.26 1166.39 449.026C1189.26 442.06 1208.62 431.251 1225.56 415.978C1255.74 388.773 1274.53 351.665 1291.11 318.924C1299.45 302.451 1307.32 286.891 1316.02 273.627C1319.15 268.842 1322.31 263.895 1325.36 259.112C1334.91 244.147 1344.78 228.673 1356.47 214.221C1369.99 197.385 1384.86 183.421 1400.68 172.717C1418.84 160.425 1437.76 152.833 1456.91 150.157C1468.87 148.483 1481.06 148.216 1494.15 149.333C1530.74 152.462 1567.91 167.924 1602.63 184.168C1634.69 199.167 1666.33 219.094 1694.15 241.796C1725.1 266.974 1753.62 296.948 1778.9 330.879C1801.51 361.223 1821.47 394.593 1838.23 430.068L1837.44 430.317C1801.83 354.912 1752.08 289.892 1693.56 242.284C1665.8 219.625 1634.21 199.736 1602.21 184.768C1567.58 168.561 1530.51 153.137 1494.07 150.021C1481.05 148.908 1468.95 149.175 1457.05 150.836C1421.7 155.778 1386.23 178.421 1357.18 214.598C1345.51 229.02 1335.65 244.479 1326.11 259.43C1323.06 264.215 1319.9 269.162 1316.76 273.952C1308.09 287.186 1300.22 302.73 1291.89 319.186C1275.28 351.977 1256.47 389.146 1226.19 416.441C1209.15 431.797 1189.69 442.667 1166.69 449.673C1146.73 455.75 1125.19 459.269 1100.85 460.424C1094.27 460.752 1087.72 460.88 1081.27 460.88Z" fill="#FFE492"/>
<path d="M1112.15 463.608C1111.92 463.608 1111.7 463.608 1111.48 463.608C1089.37 463.562 1067.66 461.342 1047.32 459.071C1022.64 456.317 996.621 451.985 969.982 446.2C948.524 441.49 927.453 435.924 907.357 429.661C854.077 413.079 801.593 387.47 742.18 349.063C720.784 335.236 699.728 320.345 679.362 305.949C676.816 304.146 674.266 302.346 671.717 300.547C628.16 269.88 583.431 246.23 538.776 230.255C477.627 208.381 415.956 199.369 350.239 202.705C314.205 204.535 276.858 209.537 242.235 217.17C214.917 223.194 190.575 232.858 161.589 244.865C155.713 247.31 149.439 249.948 141.849 253.17L141.425 253.351C126.782 259.609 110.184 266.701 91.5668 272.093C70.1857 278.286 49.4427 281.266 28.172 281.231C-4.99649 281.163 -38.8461 276.098 -71.579 271.197C-79.5988 269.996 -87.8948 268.755 -95.9023 267.632C-118.867 264.418 -138.306 262.794 -155.33 262.671C-218.016 262.217 -273.861 269.84 -308.542 283.58L-308.94 282.9C-291.953 276.169 -269.038 270.706 -242.674 267.101C-216.261 263.489 -186.053 261.696 -155.321 261.918C-138.247 262.041 -118.759 263.667 -95.7459 266.89C-87.7321 268.012 -79.4362 269.253 -71.4133 270.454C-38.7203 275.348 -4.91364 280.408 28.1751 280.476C28.3224 280.476 28.4727 280.476 28.62 280.476C75.9505 280.476 112.009 265.07 141.002 252.682L141.428 252.5C149.022 249.276 155.296 246.638 161.174 244.193C190.21 232.165 214.595 222.484 241.999 216.442C276.68 208.794 314.088 203.785 350.184 201.952C382.343 200.321 412.676 201.565 442.924 205.758C475.519 210.277 506.994 218.063 539.144 229.565C583.885 245.57 628.691 269.258 672.318 299.975C674.868 301.775 677.417 303.577 679.964 305.38C700.32 319.771 721.37 334.657 742.748 348.474C802.084 386.834 854.492 412.407 907.682 428.961C927.75 435.217 948.791 440.773 970.218 445.478C996.821 451.255 1022.8 455.58 1047.45 458.329C1091.59 463.258 1134.8 466.676 1178.15 454.553C1201.68 447.972 1221.16 437.095 1237.72 421.296C1267.64 392.757 1283.98 353.212 1298.4 318.319C1305.15 301.984 1311.52 286.553 1318.71 273.586C1321.48 268.596 1324.26 263.436 1326.94 258.444C1335.34 242.836 1344.01 226.7 1354.66 211.485C1366.91 193.841 1380.75 178.918 1395.81 167.132C1412.97 153.7 1431.25 144.758 1450.16 140.559C1461.88 137.956 1473.84 136.687 1486.7 136.687C1486.98 136.687 1487.26 136.688 1487.54 136.69C1527.5 136.861 1568.63 151.759 1600 164.718C1633.41 178.526 1666.16 197.748 1694.69 220.309C1726.48 245.371 1755.22 275.64 1780.11 310.276C1802.44 341.358 1821.4 375.511 1836.47 411.791L1835.59 412.035C1813.18 358.053 1770.43 281.067 1694.05 220.855C1665.58 198.345 1632.92 179.168 1599.58 165.393C1568.31 152.469 1527.31 137.614 1487.53 137.445C1474.44 137.382 1462.3 138.646 1450.4 141.289C1415.37 149.07 1381.65 174.133 1355.46 211.86C1344.84 227.04 1336.17 243.159 1327.78 258.749C1325.1 263.743 1322.32 268.906 1319.55 273.898C1312.38 286.832 1306.01 302.243 1299.27 318.561C1284.82 353.517 1268.45 393.137 1238.42 421.787C1221.75 437.692 1202.13 448.642 1178.45 455.265C1158.37 460.876 1136.68 463.608 1112.15 463.608Z" fill="#FFE492"/>
<path d="M1136.7 467.15C1131.94 467.15 1127.07 467.024 1122.09 466.773C1100.28 465.673 1079.09 462.372 1057.49 458.798C1032.45 454.654 1007.17 449.111 980.186 441.851C958.838 436.056 937.905 429.456 917.966 422.228C867.383 403.922 817.16 376.974 755.121 334.854C739.713 324.394 724.312 313.424 709.416 302.813C701.307 297.038 692.926 291.064 684.62 285.232C640.545 254.359 594.322 231.935 547.234 218.578C485.017 200.928 421.073 197.696 351.742 208.697C315.113 214.51 277.799 223.625 243.839 235.056C216.558 244.239 192.793 257.136 167.632 270.79L165.893 271.734C161.962 273.874 157.989 276.043 153.967 278.239C151.651 279.505 149.319 280.779 146.966 282.062C132.295 290.11 116.448 298.506 98.2762 304.968C77.1774 312.469 56.3086 316.16 34.4703 316.251C-1.88589 316.397 -38.9692 309.464 -74.8284 302.753C-79.9459 301.793 -85.2413 300.804 -90.3802 299.865C-114.474 295.46 -133.468 292.925 -150.164 291.883C-211.776 288.039 -269.922 290.747 -309.696 299.316L-309.95 298.526C-270.072 289.934 -211.807 287.215 -150.087 291.067C-133.345 292.112 -114.302 294.654 -90.1624 299.067C-85.0204 300.009 -79.725 300.998 -74.6044 301.957C-39.184 308.585 -2.57004 315.435 33.3045 315.435C33.691 315.435 34.0776 315.435 34.4673 315.432C80.8682 315.241 113.899 299.216 146.417 281.383C148.77 280.099 151.102 278.825 153.418 277.559C157.44 275.361 161.41 273.194 165.343 271.052L167.083 270.108C192.287 256.431 216.092 243.512 243.462 234.298C277.483 222.844 314.861 213.714 351.555 207.891C421.061 196.863 485.177 200.105 547.562 217.802C594.767 231.194 641.097 253.669 685.271 284.61C693.576 290.445 701.961 296.416 710.07 302.194C724.959 312.802 740.357 323.77 755.756 334.222C817.721 376.294 867.874 403.205 918.368 421.481C938.279 428.695 959.182 435.288 980.499 441.073C1007.44 448.323 1032.69 453.859 1057.69 457.995C1095.64 464.275 1142.87 472.094 1189.91 460.051C1214.09 453.861 1233.71 442.916 1249.88 426.588C1279.51 396.682 1293.24 354.62 1305.36 317.512C1310.63 301.391 1315.6 286.163 1321.41 273.526C1323.67 268.602 1325.93 263.51 1328.13 258.583C1335.48 242.062 1343.08 224.979 1352.84 208.732C1363.85 190.267 1376.67 174.386 1390.93 161.527C1407.09 146.957 1424.75 136.668 1443.4 130.946C1455.37 127.273 1467.64 125.01 1480.91 124.026C1498.68 122.707 1517.59 124.117 1538.73 128.326C1556.62 131.89 1575.8 137.423 1597.36 145.245C1632.13 157.859 1665.97 176.379 1695.22 198.801C1727.86 223.746 1756.82 254.314 1781.31 289.652C1803.36 321.474 1821.32 356.41 1834.7 393.493L1833.74 393.724C1805.5 315.435 1756.06 246.422 1694.54 199.4C1665.37 177.039 1631.62 158.572 1596.95 145.995C1550.5 129.144 1513.66 122.42 1481 124.842C1467.82 125.818 1455.64 128.066 1443.75 131.712C1399.37 145.323 1370.3 181.306 1353.73 209.092C1344 225.299 1336.4 242.361 1329.06 258.863C1326.87 263.792 1324.6 268.887 1322.34 273.813C1316.55 286.412 1311.59 301.622 1306.33 317.723C1294.18 354.912 1280.41 397.062 1250.65 427.104C1234.35 443.56 1214.58 454.594 1190.2 460.834C1173.68 465.063 1156.06 467.15 1136.7 467.15Z" fill="#FFE492"/>
<path d="M1157.98 471.214C1125.53 471.214 1094.34 464.375 1067.65 458.524C1042.55 453.021 1017.27 446.144 990.384 437.502C969.156 430.63 948.358 422.992 928.569 414.798C869.249 390.264 816.365 355.049 768.056 320.647C758.192 313.623 748.227 306.384 738.594 299.383C725.217 289.661 711.383 279.609 697.522 269.922C652.787 238.745 605.07 217.541 555.699 206.901C491.832 193.138 425.608 195.683 353.246 214.684C315.987 224.467 278.711 237.695 245.444 252.94C219.786 264.696 198.077 279.539 175.094 295.252C173.465 296.365 171.833 297.482 170.191 298.6L169.302 299.209C163.715 303.033 157.938 306.985 152.081 310.953C138.048 320.501 122.594 330.376 104.719 337.921C83.9704 346.679 63.0525 351.046 40.7632 351.273C1.63968 351.673 -38.2355 342.648 -76.7946 333.921C-79.4975 333.309 -82.1882 332.7 -84.8666 332.098C-110.294 326.374 -128.844 322.98 -145.006 321.092C-205.072 314.079 -265.525 311.874 -310.864 315.043L-310.956 314.165C-265.543 310.988 -205.002 313.196 -144.856 320.219C-128.647 322.112 -110.058 325.513 -84.5843 331.247C-81.9059 331.849 -79.2153 332.458 -76.5093 333.072C-38.0239 341.783 1.77469 350.785 40.7479 350.392C89.1523 349.898 123.241 329.425 151.393 310.273C157.25 306.306 163.027 302.353 168.614 298.532L169.504 297.923C171.145 296.803 172.778 295.687 174.407 294.575C197.429 278.834 219.176 263.966 244.919 252.17C278.247 236.897 315.595 223.646 352.917 213.846C387.224 204.839 419.448 199.638 451.426 197.946C487.098 196.061 522.27 198.787 555.969 206.05C605.496 216.723 653.354 237.987 698.215 269.25C712.086 278.942 725.923 288.996 739.302 298.721C748.936 305.722 758.895 312.959 768.755 319.98C817.016 354.344 869.835 389.521 929.048 414.01C948.809 422.191 969.577 429.819 990.774 436.681C1017.62 445.311 1042.86 452.178 1067.93 457.673C1106.42 466.112 1154.32 476.614 1201.65 465.563C1226.49 459.763 1246.24 448.75 1262.02 431.893C1291.34 400.58 1302.31 355.93 1311.99 316.534C1315.88 300.704 1319.56 285.754 1324.08 273.477C1325.76 268.936 1327.44 264.243 1329.07 259.704C1335.43 241.952 1342.01 223.593 1351.01 205.989C1360.8 186.689 1372.58 169.843 1386.03 155.924C1401.21 140.219 1418.23 128.584 1436.63 121.341C1448.57 116.639 1460.88 113.379 1474.26 111.372C1492.29 108.671 1512.3 108.762 1533.72 111.642C1552.48 114.164 1573 118.919 1594.7 125.779C1630.83 137.2 1665.77 155.016 1695.74 177.299C1729.22 202.128 1758.41 232.99 1782.5 269.034C1804.25 301.596 1821.22 337.317 1832.92 375.203L1831.88 375.419C1807.09 295.141 1758.49 225.013 1695.02 177.954C1665.14 155.743 1630.32 137.986 1594.31 126.602C1547.64 111.848 1508.43 107.148 1474.46 112.241C1461.17 114.232 1448.95 117.469 1437.09 122.137C1393.32 139.368 1366.66 177.43 1352 206.329C1343.02 223.888 1336.45 242.222 1330.1 259.951C1328.47 264.49 1326.79 269.185 1325.11 273.731C1320.6 285.968 1316.93 300.898 1313.05 316.707C1308.39 335.66 1303.11 357.141 1295.45 377.28C1286.67 400.354 1276.02 418.393 1262.88 432.43C1255.28 440.545 1246.55 447.453 1236.92 452.961C1226.57 458.884 1214.8 463.41 1201.95 466.411C1187.24 469.847 1172.48 471.214 1157.98 471.214Z" fill="#FFE492"/>
<path d="M1177.15 475.672C1166.42 475.672 1155.19 474.816 1143.32 473.106C1119.94 469.741 1097.56 463.634 1077.81 458.249C1052.93 451.46 1026.94 443.014 1000.58 433.149C979.489 425.209 958.826 416.534 939.172 407.361C882.76 381.062 834.159 346.094 780.99 306.436C776.265 302.911 771.467 299.317 766.828 295.838C748.558 282.146 729.668 267.988 710.422 254.611C664.945 223.069 615.737 203.088 564.163 195.224C499.108 185.303 428.648 193.862 354.748 220.667C316.827 234.422 279.584 251.761 247.048 270.815C222.55 285.161 202.383 302.076 181.033 319.984C178.864 321.804 176.686 323.629 174.495 325.462C169.043 330.028 163.171 334.929 157.197 339.836C144.671 350.159 129.404 361.923 111.165 370.867C90.7469 380.881 69.7769 385.928 47.0612 386.293C5.47705 386.965 -36.8526 375.668 -77.7894 364.742L-79.348 364.327C-99.3914 358.98 -120.595 353.578 -139.843 350.298C-198.517 340.301 -259.666 333.361 -312.022 330.756L-311.951 329.814C-259.54 332.422 -198.336 339.367 -139.61 349.374C-120.306 352.664 -99.0662 358.074 -78.9921 363.428L-77.4335 363.844C-36.5857 374.744 5.65805 386.014 47.0397 385.347C94.8305 384.576 127.836 362.696 156.384 339.164C162.358 334.26 168.224 329.358 173.676 324.795C175.866 322.964 178.045 321.137 180.214 319.319C201.601 301.381 221.804 284.436 246.382 270.042C278.98 250.951 316.293 233.579 354.285 219.799C388.957 207.224 423.076 198.56 455.69 194.049C492.954 188.896 529.522 188.976 564.378 194.29C616.148 202.185 665.537 222.235 711.168 253.886C730.429 267.276 749.328 281.438 767.607 295.138C772.246 298.614 777.045 302.209 781.769 305.733C834.886 345.354 883.435 380.284 939.746 406.538C959.372 415.696 980.004 424.358 1001.07 432.288C1027.39 442.138 1053.33 450.571 1078.18 457.35C1117.14 467.979 1165.62 481.202 1213.42 471.07C1238.92 465.665 1258.8 454.586 1274.19 437.197C1303.18 404.433 1311.57 355.051 1318.32 315.37C1320.94 299.913 1323.42 285.315 1326.78 273.433C1327.84 269.687 1328.91 265.828 1329.95 262.095C1335.32 242.701 1340.87 222.646 1349.2 203.252C1362.07 173.072 1386.5 132.699 1429.87 111.747C1441.84 105.962 1454.2 101.702 1467.64 98.727C1502.8 90.83 1544.66 93.3851 1592.06 106.317C1629.54 116.545 1665.58 133.655 1696.27 155.8C1730.6 180.51 1760.02 211.67 1783.7 248.421C1794.57 265.277 1804.17 283.281 1812.24 301.932C1819.96 319.747 1826.32 338.247 1831.16 356.918L1830.03 357.115C1808.72 274.843 1760.94 203.6 1695.51 156.508C1664.93 134.446 1629.03 117.401 1591.69 107.21C1544.52 94.3367 1502.88 91.7891 1467.94 99.6357C1454.6 102.589 1442.34 106.815 1430.45 112.557C1387.38 133.363 1363.09 173.53 1350.29 203.562C1341.98 222.905 1336.43 242.933 1331.07 262.301C1330.03 266.035 1328.97 269.896 1327.9 273.645C1324.55 285.486 1322.07 300.064 1319.45 315.498C1316.06 335.466 1312.22 358.096 1305.65 379.456C1298.09 404 1288.11 423.069 1275.12 437.75C1267.7 446.126 1259.03 453.189 1249.35 458.742C1238.92 464.726 1226.93 469.182 1213.71 471.981C1202.11 474.443 1189.99 475.672 1177.15 475.672Z" fill="#FFE492"/>
<path d="M1194.82 480.38C1181.97 480.38 1168.41 479.013 1153.93 476.272C1130.46 471.834 1107.89 464.468 1087.97 457.968C1062.9 449.787 1036.93 439.972 1010.78 428.792C989.825 419.793 969.299 410.081 949.775 399.923C896.047 371.993 849.965 335.995 801.177 297.888C798.763 296.002 796.348 294.114 793.928 292.226C771.24 274.524 747.781 256.218 723.326 239.301C677.057 207.359 626.358 188.6 572.637 183.545C505.158 177.193 432.357 191.696 356.251 226.644C318.183 244.125 279.971 266.159 248.652 288.687C225.004 305.696 206.037 324.836 185.957 345.1C183.579 347.499 181.195 349.906 178.793 352.318C173.995 357.143 168.285 362.865 162.309 368.718C151.239 379.586 136.157 393.396 117.607 403.785C97.5148 415.04 76.4988 420.777 53.3566 421.318C34.3348 421.708 13.3433 419.299 -10.8205 413.95C-31.5666 409.358 -51.6346 403.357 -73.841 396.56C-94.1115 390.279 -115.505 383.792 -134.698 379.508C-191.552 366.815 -251.606 355.701 -313.187 346.467L-312.967 345.478C-251.348 354.714 -191.261 365.838 -134.376 378.536C-115.131 382.833 -93.7065 389.33 -73.4115 395.616C-36.1901 407.012 10.1342 421.2 53.3229 420.311C102.7 419.153 134.432 394.518 161.367 368.069C167.34 362.221 173.047 356.501 177.842 351.678C180.244 349.267 182.628 346.86 185.003 344.464C205.117 324.166 224.117 304.994 247.842 287.929C279.225 265.356 317.511 243.279 355.653 225.766C431.989 190.712 505.042 176.171 572.778 182.545C598.749 184.99 624.259 190.666 648.595 199.417C674.707 208.804 700.116 221.967 724.118 238.534C748.601 255.468 772.074 273.784 794.774 291.499C797.195 293.389 799.613 295.275 802.027 297.16C850.769 335.235 896.811 371.198 950.434 399.075C969.931 409.217 990.426 418.917 1011.35 427.901C1037.46 439.063 1063.39 448.865 1088.43 457.034C1127.78 469.873 1176.75 485.85 1225.18 476.584C1251.41 471.564 1271.42 460.417 1286.33 442.509C1315.07 408.303 1320.19 356.051 1324.3 314.067C1325.78 299.051 1327.17 284.868 1329.47 273.399C1329.95 271.033 1330.42 268.654 1330.9 266.262C1335.2 244.661 1339.65 222.322 1347.38 200.522C1358.42 169.166 1380.52 126.648 1423.1 102.159C1434.98 95.3269 1447.38 90.0707 1461 86.0883C1479.93 80.5023 1501.03 77.8767 1523.71 78.2795C1544.41 78.647 1566.51 81.5344 1589.4 86.8586C1628.24 95.8883 1665.37 112.294 1696.79 134.3C1731.97 158.89 1761.62 190.352 1784.9 227.807C1795.58 244.993 1804.83 263.367 1812.39 282.419C1819.63 300.664 1825.35 319.58 1829.38 338.638L1828.17 338.81C1810.6 255.76 1762.43 181.498 1696 135.066C1664.71 113.155 1627.74 96.8172 1589.07 87.8227C1541.39 76.7313 1497.24 76.4594 1461.41 87.0323C1447.89 90.9845 1435.59 96.2004 1423.8 102.98C1381.51 127.3 1359.54 169.599 1348.56 200.799C1340.84 222.541 1336.4 244.847 1332.11 266.421C1331.63 268.812 1331.16 271.194 1330.68 273.56C1328.38 284.986 1327 299.151 1325.53 314.145C1321.4 356.25 1316.27 408.653 1287.34 443.078C1280.15 451.71 1271.55 458.935 1261.79 464.546C1251.28 470.582 1239.06 474.963 1225.46 477.566C1215.64 479.439 1205.47 480.38 1194.82 480.38Z" fill="#FFE492"/>
<path d="M1211.43 485.281C1196.78 485.281 1181.26 483.338 1164.54 479.436C1140.88 473.915 1118.16 465.293 1098.12 457.688C1072.8 448.077 1046.84 436.888 1020.97 424.437C1000.16 414.393 979.777 403.641 960.369 392.487C912.578 365.027 871.733 331.388 828.489 295.773C821.421 289.95 814.11 283.931 806.857 278.013C781.361 257.22 759.591 240.074 736.221 223.991C689.127 191.625 636.94 174.087 581.105 171.861C510.945 169.065 435.793 189.506 357.743 232.615C318.969 254.033 280.79 280.289 250.242 306.55C227.228 326.333 209.238 347.869 190.191 370.669C187.832 373.493 185.463 376.328 183.079 379.165C178.833 384.227 173.213 390.898 167.411 397.587C142.996 425.801 111.097 454.849 59.6433 456.334C58.0387 456.377 56.428 456.397 54.8203 456.397C14.6414 456.397 -26.3782 443.35 -68.3428 428.782L-70.9629 427.865C-91.7488 420.585 -111.384 413.71 -129.559 408.706C-198.053 389.846 -264.295 373.926 -314.353 362.165L-313.994 361.136C-263.924 372.902 -197.663 388.824 -129.145 407.691C-110.921 412.708 -91.2641 419.593 -70.4505 426.881L-67.8335 427.797C-24.3318 442.899 18.1512 456.369 59.5973 455.267C110.481 453.797 142.112 424.973 166.346 396.97C172.145 390.286 177.759 383.621 182.006 378.561C184.39 375.721 186.755 372.889 189.114 370.065C208.191 347.23 226.21 325.659 249.297 305.812C279.907 279.496 318.162 253.187 357.012 231.726C393.071 211.809 429.142 196.516 464.222 186.268C504.471 174.51 543.819 169.304 581.166 170.792C637.29 173.027 689.741 190.651 737.056 223.168C760.459 239.276 782.251 256.439 807.771 277.25C815.027 283.168 822.338 289.19 829.41 295.013C872.611 330.593 913.416 364.199 961.114 391.603C980.495 402.745 1000.85 413.479 1021.63 423.508C1047.46 435.944 1073.38 447.116 1098.67 456.712C1138.36 471.778 1187.76 490.527 1236.93 482.087C1263.81 477.472 1283.94 466.26 1298.48 447.81C1326.85 412.046 1328.56 356.854 1329.93 312.506C1330.38 298.036 1330.8 284.367 1332.15 273.353L1332.18 273.102C1335.22 248.439 1338.36 222.938 1345.55 197.778C1351.78 175.831 1360.46 156.1 1371.34 139.128C1383.62 119.994 1398.75 104.326 1416.32 92.5576C1428.08 84.6833 1440.52 78.4277 1454.34 73.4358C1491.7 59.8698 1537.48 57.7754 1586.74 67.3841C1606.56 71.2508 1626.11 77.1086 1644.86 84.7916C1663.71 92.5198 1681.36 101.942 1697.31 112.792C1733.34 137.263 1763.21 169.022 1786.09 207.187C1806.65 241.491 1821.01 280.623 1827.6 320.35L1826.31 320.493C1812.2 235.467 1764.87 160.063 1696.48 113.615C1664.49 91.8603 1626.44 76.2326 1586.44 68.4313C1537.47 58.878 1491.97 60.9498 1454.87 74.4226C1441.15 79.3767 1428.82 85.582 1417.15 93.3933C1384.34 115.367 1360.02 151.549 1346.82 198.027C1339.65 223.122 1336.52 248.588 1333.48 273.215L1333.45 273.467C1332.1 284.44 1331.68 298.089 1331.23 312.538C1329.86 357.022 1328.14 412.381 1299.57 448.397C1292.56 457.293 1284.02 464.674 1274.2 470.333C1263.6 476.435 1251.16 480.742 1237.2 483.141C1228.88 484.566 1220.31 485.281 1211.43 485.281Z" fill="#FFE492"/>
<path d="M60.5978 491.445C42.6314 491.445 23.0665 488.573 0.985901 482.708C-20.9536 476.88 -42.6508 468.834 -62.8323 461.01C-66.4863 459.586 -70.1127 458.163 -73.7146 456.751C-91.6442 449.72 -108.58 443.079 -124.408 437.906C-187.52 417.287 -247.678 398.754 -305.857 380.836L-315.497 377.865L-315.012 376.805L-305.373 379.776C-247.19 397.699 -187.023 416.232 -123.898 436.857C-108.027 442.042 -91.0704 448.691 -73.1194 455.732C-69.5206 457.144 -65.8942 458.566 -62.2432 459.988C-20.8156 476.049 23.1985 491.614 65.8871 490.227C118.363 488.434 149.81 454.893 171.342 425.876C176.858 418.455 182.172 411.059 186.185 405.445C188.4 402.351 190.6 399.26 192.793 396.176C210.987 370.613 228.171 346.466 250.77 323.699C280.6 293.652 318.819 263.107 358.39 237.694C395.102 214.117 432.149 195.488 468.505 182.328C510.206 167.231 550.937 159.397 589.567 159.042C647.694 158.332 701.682 174.74 750.009 207.806C776.8 226.157 800.819 246.009 820.786 263.009C831.65 272.26 842.514 281.743 853.022 290.913C890.216 323.38 928.676 356.948 971.81 384.138C991.077 396.287 1011.3 408.058 1031.92 419.122C1057.43 432.784 1083.33 445.325 1108.92 456.396C1148.92 473.7 1198.69 495.236 1248.69 487.594C1276.22 483.387 1296.48 472.109 1310.63 453.116C1338.63 415.731 1336.74 357.515 1335.22 310.738C1334.77 296.905 1334.34 283.837 1334.85 273.317C1336 249.601 1337.74 222.039 1343.74 195.043C1348.8 172.168 1356.44 151.473 1366.45 133.534C1377.77 113.242 1392.27 96.2295 1409.56 82.9682C1421.01 74.1801 1433.85 66.7212 1447.71 60.7954C1467.48 52.3119 1489.68 46.9777 1513.67 44.9437C1536.14 43.038 1559.83 44.0399 1584.09 47.9192C1604.54 51.1917 1624.7 56.5738 1644.01 63.9194C1663.43 71.3103 1681.55 80.5188 1697.84 91.288C1716.62 103.688 1733.89 118.332 1749.17 134.813C1763.64 150.428 1776.47 167.843 1787.3 186.572C1807.55 221.611 1820.88 261.551 1825.84 302.068L1824.46 302.181C1813.81 215.174 1767.34 138.629 1696.97 92.1716C1664.74 70.8698 1624.56 55.5492 1583.82 49.0318C1533.45 40.9738 1486.6 45.3892 1448.35 61.7998C1434.6 67.6778 1421.87 75.0788 1410.5 83.7964C1377.93 108.784 1355.92 146.279 1345.1 195.247C1339.11 222.17 1337.38 249.684 1336.23 273.363C1335.72 283.845 1336.15 296.892 1336.6 310.707C1337.34 333.784 1338.19 359.942 1335.35 385.228C1332.04 414.57 1324.34 436.97 1311.81 453.708C1304.98 462.866 1296.51 470.405 1286.62 476.115C1275.95 482.282 1263.27 486.519 1248.95 488.706C1241.72 489.811 1234.5 490.312 1227.33 490.312C1184.35 490.312 1142.71 472.293 1108.28 457.396C1082.65 446.307 1056.71 433.748 1031.16 420.066C1010.52 408.987 990.267 397.198 970.972 385.032C927.75 357.787 889.249 324.183 852.018 291.686C841.514 282.518 830.653 273.038 819.795 263.792C799.856 246.812 775.87 226.988 749.129 208.672C701.062 175.783 647.39 159.47 589.588 160.17C498.814 161.006 414.222 203.27 359.243 238.58C319.751 263.943 281.61 294.423 251.844 324.409C229.312 347.108 212.152 371.217 193.987 396.74C191.793 399.824 189.59 402.915 187.375 406.012C183.359 411.628 178.042 419.029 172.523 426.457C163.484 438.639 149.295 456.371 130.5 469.663C121.372 476.117 111.659 481.19 101.63 484.741C90.4467 488.701 78.4384 490.927 65.9454 491.352C64.1751 491.415 62.3926 491.445 60.5978 491.445Z" fill="#FFE492"/>
<path d="M66.3664 526.493C48.3785 526.493 28.8535 523.399 6.88947 517.086C-15.8508 510.551 -38.3333 501.362 -57.3245 493.234C-63.1599 490.732 -68.983 488.194 -74.6159 485.74C-90.3611 478.88 -105.235 472.398 -119.259 467.106C-169.621 448.1 -219.654 429.545 -268.043 411.599C-284.049 405.663 -300.598 399.526 -316.638 393.565L-316.036 392.475C-299.997 398.436 -283.448 404.573 -267.442 410.509C-219.053 428.455 -169.013 447.013 -118.648 466.022C-104.588 471.328 -89.6953 477.815 -73.9317 484.685C-68.3019 487.139 -62.4788 489.674 -56.6495 492.177C-17.2621 509.028 28.424 526.866 72.1711 525.187C125.883 523.077 156.051 486.452 176.337 454.782C181.537 446.668 186.566 438.522 190.364 432.332C192.315 429.155 194.254 425.981 196.19 422.814C213.592 394.33 230.028 367.427 252.246 341.592C281.144 307.99 319.332 273.213 359.769 243.667C416.082 202.697 503.119 152.723 597.964 147.303C658.282 143.764 713.798 158.953 762.963 192.454C785.053 207.513 806.898 224.882 833.798 248.78C847.393 260.855 860.883 273.372 873.928 285.472C907.87 316.957 942.962 349.514 982.506 376.688C1001.66 389.857 1021.75 402.662 1042.21 414.751C1066.98 429.374 1092.88 443.285 1119.17 456.098C1159.57 475.66 1209.85 500.011 1260.45 493.118C1288.2 489.418 1309.17 477.75 1322.78 458.442C1350.39 419.365 1344.47 355.435 1340.14 308.755C1338.92 295.655 1337.77 283.282 1337.55 273.301C1337.05 251.118 1337.09 221.869 1341.93 192.328C1350.28 141.138 1370.76 101.122 1402.8 73.3987C1414.03 63.6314 1426.91 55.1454 1441.07 48.1749C1461.22 38.2465 1483.96 31.568 1508.66 28.3281C1531.92 25.2771 1556.4 25.325 1581.43 28.4716C1602.55 31.1853 1623.31 36.1042 1643.15 43.0873C1663.18 50.1409 1681.76 59.1279 1698.37 69.7989C1717.57 82.1288 1735.11 96.8226 1750.51 113.475C1765.09 129.256 1777.87 146.918 1788.5 165.974C1808.44 201.751 1820.74 242.496 1824.07 283.806L1822.62 283.884C1815.45 194.891 1769.83 117.203 1697.47 70.7429C1664.66 49.6652 1623.37 35.0721 1581.21 29.6548C1529.23 23.1223 1481.04 29.8813 1441.83 49.202C1427.78 56.1146 1415 64.5326 1403.86 74.2219C1372.04 101.762 1351.69 141.551 1343.38 192.489C1338.55 221.95 1338.51 251.141 1339.01 273.281C1339.24 283.227 1340.38 295.585 1341.59 308.667C1343.83 332.796 1346.37 360.147 1344.92 386.848C1343.23 417.94 1336.4 441.555 1324.04 459.043C1317.39 468.476 1308.99 476.179 1299.05 481.939C1288.28 488.184 1275.37 492.343 1260.7 494.301C1237.93 497.4 1213.43 494.616 1185.79 485.788C1161.76 478.112 1138.75 466.965 1118.44 457.133C1092.1 444.302 1066.17 430.371 1041.36 415.727C1020.87 403.622 1000.76 390.798 981.573 377.612C941.946 350.382 906.814 317.79 872.839 286.273C859.8 274.175 846.313 261.666 832.73 249.6C805.876 225.746 784.071 208.409 762.034 193.385C713.16 160.076 657.997 144.977 598.063 148.494C503.626 153.893 416.877 203.714 360.732 244.561C320.375 274.046 282.267 308.75 253.431 342.281C231.273 368.044 214.862 394.909 197.488 423.35C195.552 426.519 193.613 429.694 191.662 432.871C187.861 439.066 182.829 447.219 177.622 455.34C157.159 487.293 126.687 524.245 72.2355 526.382C70.2996 526.455 68.3391 526.493 66.3664 526.493Z" fill="#FFE492"/>
<path d="M72.2505 561.541C23.1006 561.541 -28.4699 536.773 -74.1867 514.814C-88.2352 508.068 -101.504 501.694 -114.114 496.304L-317.779 409.262L-317.071 408.147L-113.405 495.189C-100.762 500.591 -87.4774 506.973 -73.4105 513.729C-25.9265 536.537 27.896 562.387 78.4541 560.147C133.35 557.717 162.27 518.009 181.331 483.69C187.566 472.465 193.585 461.044 199.408 449.998C215.334 419.79 231.801 388.552 253.715 359.479C271.117 336.395 292.735 312.186 316.23 289.472C342.004 264.552 369.601 241.69 398.247 221.521C429.833 199.285 461.949 180.891 493.7 166.852C528.82 151.325 563.418 141.187 596.541 136.719C662.893 127.77 723.241 141.351 775.904 177.09C819.669 206.787 856.866 243.51 892.839 279.025C924.151 309.938 956.528 341.9 993.191 369.224C1035.54 400.781 1081.37 429.904 1129.42 455.78C1169.9 477.583 1220.29 504.72 1272.21 498.62C1316.07 493.47 1341.43 469.394 1349.73 425.013C1356.79 387.263 1350.07 342.482 1344.67 306.502C1342.83 294.24 1341.1 282.657 1340.24 273.265C1335.54 221.488 1338.54 178.746 1349.41 142.6C1356.2 120.047 1366.22 99.9433 1379.18 82.848C1393.66 63.7514 1412.24 47.8317 1434.43 35.532C1453.62 24.8911 1475.24 17.1629 1498.71 12.5612C1521.05 8.181 1544.57 6.71339 1568.62 8.19862C1615.91 11.1187 1662.17 25.3568 1698.88 48.2873C1718.5 60.5443 1736.32 75.2909 1751.83 92.1143C1766.53 108.059 1779.27 125.97 1789.69 145.354C1809.32 181.868 1820.59 223.422 1822.28 265.519L1820.75 265.562C1817.13 175.914 1771.23 95.0647 1697.95 49.2918C1620.13 0.681828 1509.66 -4.66752 1435.28 36.5767C1361.6 77.4332 1331.01 154.824 1341.77 273.172C1342.62 282.534 1344.36 294.101 1346.19 306.348C1351.6 342.406 1358.34 387.283 1351.24 425.204C1347.37 445.859 1339.61 462.459 1328.15 474.544C1321.71 481.339 1313.94 486.892 1305.07 491.046C1295.62 495.466 1284.64 498.434 1272.43 499.869C1267.44 500.455 1262.36 500.75 1257.2 500.75C1238.38 500.75 1218.34 496.846 1196.37 488.936C1171.63 480.025 1147.76 467.166 1128.57 456.835C1080.46 430.921 1034.56 401.76 992.154 370.158C955.408 342.776 922.998 310.776 891.652 279.83C855.725 244.361 818.574 207.683 774.919 178.062C722.609 142.567 662.675 129.074 596.78 137.963C463.486 155.942 326.179 265.738 255.01 360.144C233.154 389.136 216.709 420.331 200.804 450.499C194.978 461.55 188.955 472.979 182.715 484.214C170.059 506.998 157.56 523.313 143.38 535.552C134.529 543.19 124.926 549.211 114.838 553.448C103.621 558.158 91.4043 560.836 78.5247 561.408C76.4445 561.496 74.3491 561.541 72.2505 561.541Z" fill="#FFE492"/>
</g>
</svg>
